<?xml version="1.0" encoding="utf-8"?>
<!-- Generator: Adobe Illustrator 17.0.0, SVG Export Plug-In . SVG Version: 6.00 Build 0)  -->
<!DOCTYPE svg PUBLIC "-//W3C//DTD SVG 1.1//EN" "http://www.w3.org/Graphics/SVG/1.1/DTD/svg11.dtd">
<svg version="1.1" id="Layer_1" xmlns="http://www.w3.org/2000/svg" xmlns:xlink="http://www.w3.org/1999/xlink" x="0px" y="0px"
	 width="232.19px" height="280.486px" viewBox="0 0 232.19 280.486" enable-background="new 0 0 232.19 280.486"
	 xml:space="preserve">
<path fill="#ED353A" d="M65.8,190.632c1.585-0.141,3.164-0.242,4.737-0.357c4.691-0.362,9.851-0.44,14.13,1.814
	c4.428,2.336,5.824,8.551,5.557,13.027c-0.386,6.474-3.675,13.27-8.794,17.336c-4.476,3.554-12.549,4.141-17.68,2.23
	c-8.601-3.205-17.33-15.142-15.104-24.614c0.883-3.761,4.82-6.794,8.413-7.911C59.906,191.27,62.844,190.886,65.8,190.632z"/>
<path fill="#ED353A" d="M89.48,97.057C57.665,81.95,2.933,91.755,0.121,131.837c-2.282,32.54,27.978,56.959,58.374,58.162
	c19.167,0.759,39.463-3.636,52.91-18.162c14.19-15.33,17.472-37.374,5.863-55.14C111.157,107.343,99.689,101.904,89.48,97.057z"/>
<g>
	<path fill="#1F3043" d="M145.911,81.28c-11.628-0.286-22.553,2.286-33.548,5.987c-7.615,2.558-15.736,5.621-22.762,9.847
		c2.14,1.016,4.332,2.069,6.519,3.169c6.718-5.85,20.503-10.58,27.021-12.063c5.752-1.307,12.162,0.279,17.882,1.099
		c2.738,0.397,18.168,3.203,17.44-2.69C157.91,82.111,149.142,81.362,145.911,81.28z"/>
	<path fill="#1F3043" d="M91.838,67.245c4.777-3.461,11.295-4.516,16.879-6.007c2.674-0.709,17.968-4.184,14.985-9.318
		c-2.282-3.939-10.641-1.187-13.645,0.007C99.25,56.226,90.211,62.878,81.553,70.598c-6.58,5.857-13.461,12.517-18.4,19.938
		c2.561,0.174,5.097,0.468,7.595,0.872C73.269,83.045,85.857,71.58,91.838,67.245z"/>
</g>
<g>
	<path fill="#FFFFFF" d="M110.638,127.321c-2.132-4.932-5.706-9.368-9.881-12.396c-9.891-7.174-21.415-11.46-33.53-12.845
		c-6.565-0.751-13.418-0.867-20.003-0.226c-10.166,0.992-20.769,3.233-28.951,9.693c-5.593,4.416-8.925,11.31-4.651,17.743
		c4.606,6.931,17.279,0.51,23.428,0.241c14.515-0.633,19.998,1.851,26.808,6.437c12.58,8.478,32.28,28.775,45.006,12.395
		C113.779,142.034,113.61,134.196,110.638,127.321z"/>
	<path fill="#1F3043" d="M77.191,116.019c0.167,2.395-1.632,4.472-4.029,4.64s-4.471-1.639-4.639-4.033
		c-0.167-2.392,1.635-4.469,4.032-4.637C74.953,111.822,77.024,113.628,77.191,116.019z"/>
	<path fill="#1F3043" d="M48.658,113.044c0.168,2.395-1.632,4.472-4.029,4.64s-4.47-1.639-4.638-4.033
		c-0.168-2.392,1.635-4.469,4.032-4.637S48.491,110.652,48.658,113.044z"/>
</g>
<path fill="#7E808F" d="M227.277,267.035c-6.667-0.181-15.753-0.667-25.096-1.384c0.657-1.999,0.894-4.132,0.703-6.345
	c-0.381-4.375-2.38-7.949-5.792-10.332c-5.851-4.103-14.714-3.744-21.092-2.041c-22.163,5.934-23.636,10.671-24.267,12.712
	c-0.454,1.466-0.362,3.014,0.223,4.421c-6.739-3.902-12.374-9.323-15.516-15.46c-7.036-13.733,6.321-26.089,21.79-37.586
	c3.365,1.087,7.163,1.628,11.364,1.579c18.337-0.211,29.337-20.245,40.849-33.281c-1.414-1.553-3.17-3.278-5.143-5.098
	c4.461-4.017,9.16-8.177,13.103-11.664l7.007-6.232c2.147-1.924,2.318-5.226,0.388-7.368c-0.864-0.96-1.998-1.524-3.181-1.683
	c-1.47-0.198-3.009,0.223-4.193,1.299l-6.941,6.158c-4.239,3.75-9.343,8.27-14.121,12.584c-4.303-3.578-8.893-7.193-13.082-10.406
	c3.717-5.259,7.594-10.862,10.815-15.516l5.243-7.539c1.66-2.36,1.099-5.615-1.26-7.281c-0.71-0.497-1.503-0.8-2.306-0.907
	c-1.87-0.25-3.811,0.518-4.969,2.163l-5.296,7.625c-3.155,4.557-6.942,10.03-10.569,15.167c-3.846-2.851-6.378-4.663-6.378-4.663
	s-29.28,29.071-27.472,44.161c0.78,6.511,3.126,11.604,6.768,15.29c-14.547,11.086-31.839,27.439-21.411,47.8
	c7.942,15.513,27.364,26.983,46.174,27.275c0.158,0.003,0.316,0.003,0.48,0.003c5.003,0,13.485-1.177,20.02-5.22
	c14.313,1.269,27.949,1.729,32.88,1.861c2.84,0.122,5.109-2.124,5.188-4.908C232.261,269.431,230.065,267.11,227.277,267.035z
	 M191.248,264.71c-10.395-1.003-20.033-2.265-25.76-3.682c3.182-1.335,7.758-2.903,13.13-4.339c4.274-1.147,10-1.325,12.683,0.556
	c0.671,0.467,1.374,1.183,1.525,2.936C192.977,261.929,192.477,263.372,191.248,264.71z"/>
<path fill="#1F3043" d="M147.524,215.96c1.864,0.463,3.017,2.714,3.347,4.639c0.272,1.586-0.693,2.876-1.781,3.908
	c-1.781,1.689-3.399,3.542-5.19,5.22c-1.035,0.973-2.776,2.696-4.277,1.497c-0.995-0.794-1.127-2.298-1.473-3.439
	c-0.333-1.099-0.829-2.274-0.633-3.446c0.209-1.269,1.28-2.565,2.039-3.545C141.322,218.511,144.221,215.137,147.524,215.96z"/>
<path fill="#1F3043" d="M143.197,209.016c-2.337-2.236-6.061,6.229-9.894,5.632c-1.736-0.234-3.471-0.489-5.201-0.807
	c-10.187-1.867-32.599-9.122-38.991-17.94c-0.693-0.959-1.5-0.612-2.25,0.081c-1.282,1.186,1.486,4.056,2.105,4.705
	c3.007,3.151,17.249,10.096,21.133,12.049c3.864,1.944,13.422,6.375,21.858,8.526c1.033-1.321,2.157-2.592,3.315-3.839
	C139.145,220.259,144.351,209.526,143.197,209.016z"/>
<path fill="#1F3043" d="M50.021,198.347c-5.127,1.295-9.228,4.603-14.477,5.526c-2.781,0.499-7.767,2.405-9.457-1.085
	c-1.939-4.001,3.146-7.8,5.291-10.356c2.529-3.017,6.194-8.591,6.141-12.687c-0.035-3.404-3.407-4.466-3.906-7.272
	c-0.681-3.877,3.679-4.233,5.818-2.543c4.948,3.893,1.923,11.57-0.196,16.366c-2.335,5.276-5.57,9.507-8.541,14.224
	c3.242,0.326,7.144-0.522,10.159-1.509c2.261-0.737,7.833-3.549,9.631-1.665"/>
<g>
	<path fill="#1F3043" d="M62.135,223.979c0.416,3.633,1.304,7.389,1.483,8.702c0.668,4.944,2.216,13.915,1.223,14.525
		c-1.917,1.182-7.501,4.146-9.612,4.864c-0.461,0.154-4.55,1.986-3.805,3.791c0.736,1.787,7.365-0.117,10.006-0.695
		c3.012-0.671,8.783-0.366,8.819-4.288c0.028-2.984-2.625-13.288-2.941-15.998c-0.375-3.211-0.887-6.387-1.296-9.567
		c-0.795-0.167-1.559-0.371-2.261-0.632C63.211,224.481,62.672,224.246,62.135,223.979z"/>
	<path fill="#1F3043" d="M95.984,250.725c-2.169-0.505-8.016-2.911-10.043-3.9c-1.048-0.515-4.756-9.483-5.801-14.371
		c-0.484-2.261-1.013-5.384-1.679-8.309c-1.189,0.514-2.461,0.909-3.797,1.169c0.768,3.227,1.602,6.527,2.352,9.84
		c0.601,2.649,3.588,12.886,3.904,15.85c0.418,3.9,6.132,3.043,9.197,3.406c2.68,0.322,9.465,1.569,10.025-0.281
		C100.706,252.26,96.458,250.84,95.984,250.725z"/>
</g>
<g>
	<path fill="#205081" d="M39.028,0L39.028,0C26.808,0,16.77,3.273,16.77,7.419c0,1.091,2.619,16.585,3.71,22.695
		c0.436,2.837,7.638,6.765,18.549,6.765l0,0c10.911,0,17.894-3.928,18.549-6.765c1.091-6.11,3.71-21.604,3.71-22.695
		C61.069,3.273,51.249,0,39.028,0L39.028,0z M39.028,31.86c-3.928,0-6.983-3.055-6.983-6.983s3.055-6.983,6.983-6.983
		s6.983,3.055,6.983,6.983C46.011,28.587,42.956,31.86,39.028,31.86L39.028,31.86z M39.028,9.602
		c-7.856,0-14.184-1.309-14.184-3.055c0-1.746,6.328-3.055,14.184-3.055s14.184,1.309,14.184,3.055
		C53.213,8.292,46.884,9.602,39.028,9.602L39.028,9.602z"/>
	<path fill="#205081" d="M55.134,36.006c-0.436,0-0.655,0.218-0.655,0.218s-5.455,4.364-15.275,4.364s-15.275-4.364-15.275-4.364
		s-0.436-0.218-0.655-0.218c-0.436,0-0.873,0.218-0.873,0.873v0.218c0.873,4.583,1.528,7.856,1.528,8.292
		c0.655,3.273,7.201,5.892,15.057,5.892l0,0c7.856,0,14.402-2.619,15.057-5.892c0-0.436,0.655-3.71,1.528-8.292v-0.218
		C55.788,36.442,55.57,36.006,55.134,36.006L55.134,36.006z"/>
	<circle fill="#205081" cx="39.029" cy="24.659" r="3.491"/>
</g>
</svg>
