<?xml version="1.0" encoding="utf-8"?>
<!-- Generator: Adobe Illustrator 17.0.0, SVG Export Plug-In . SVG Version: 6.00 Build 0)  -->
<!DOCTYPE svg PUBLIC "-//W3C//DTD SVG 1.1//EN" "http://www.w3.org/Graphics/SVG/1.1/DTD/svg11.dtd">
<svg version="1.1" id="Layer_1" xmlns="http://www.w3.org/2000/svg" xmlns:xlink="http://www.w3.org/1999/xlink" x="0px" y="0px"
	 width="270px" height="294px" viewBox="0 0 270 294" enable-background="new 0 0 270 294" xml:space="preserve">
<g>
	<g>
		<path fill="#1489AC" d="M143.235,197.36c21.092-4.837,38.157,6.418,49.068,19.65c15.068,18.275,49.213,29.893,69.88,43.147
			c-32.557-6.193-56.753-5.288-77.672-1.676c-33.788,5.834-57.665,35.223-125.148,15.16
			C74.285,242.985,121.499,196.474,143.235,197.36z"/>
		<path fill="#1F3043" d="M132.591,243.277c-5.065-4.114-8.598,13.034-11.03,21.356c-1.92,6.571-7.888,18.45-9.37,19.047
			c-2.87,1.146-11.098,3.846-14.112,4.316c-0.658,0.109-6.605,1.622-6.022,4.233c0.579,2.584,9.973,1.563,13.667,1.393
			c4.224-0.188,11.943,1.557,12.907-3.728c0.73-4.017,5.838-17.701,6.925-21.259c2.595-8.502,5.632-16.931,7.532-24.74
			L132.591,243.277z"/>
		<path fill="#1F3043" d="M161.105,241.592c1.981,7.788,5.106,16.184,7.79,24.66c1.124,3.546,6.375,17.175,7.146,21.186
			c1.019,5.274,8.719,3.449,12.946,3.593c3.695,0.131,13.099,1.054,13.651-1.536c0.556-2.617-5.406-4.068-6.065-4.169
			c-3.019-0.44-11.276-3.053-14.157-4.169c-1.488-0.584-7.58-12.398-9.568-18.949c-2.518-8.296-6.23-25.407-11.251-21.24
			L161.105,241.592z"/>
		<path fill="#ED353A" d="M154.803,195.583c-11.666-0.358-28.107,3.365-35.918,12.688c-4.915,5.865-6.241,12.563-4.092,19.904
			c2.051,7.001,5.941,13.645,11.444,18.487c7.118,6.266,20.448,7.925,29.127,5.182c14.523-4.584,29.986-23.634,27.089-39.518
			c-1.15-6.316-7.423-11.675-13.278-13.833C164.279,196.698,159.52,195.728,154.803,195.583z"/>
		<path fill="#1F3043" d="M121.499,205.158c-0.669,3.413-17.18,7.316-20.258,8.111c-4.112,1.05-9.122,2.896-12.549,5.59
			c6.739,3.189,13.432,5.639,19.854,9.914c5.835,3.894,14.76,10.386,11.972,18.331c-1.201,3.443-6.373,6.165-8.39,1.305
			c-1.451-3.518,1.594-7.139-0.818-11.013c-2.879-4.655-11.019-8.31-16.035-9.901c-4.258-1.343-12.726-1.977-13.411-7.885
			c-0.597-5.153,6.396-6.578,9.891-8.016c6.588-2.724,21.79-5.008,28.509-7.236L121.499,205.158z"/>
		<path fill="#1F3043" d="M177.335,203.274c1.251,3.294,9.672,2.705,12.883,2.975c4.274,0.349,9.59,1.335,13.465,3.446
			c-6.173,4.32-12.434,7.909-18.109,13.264c-5.166,4.878-12.958,12.869-8.83,20.32c1.787,3.231,7.41,5.069,8.596-0.128
			c0.852-3.758-2.805-6.848-1.068-11.12c2.085-5.132,9.585-10.165,14.317-12.605c4.011-2.059,12.356-4.141,12.028-10.15
			c-0.273-5.238-7.494-5.47-11.225-6.31c-7.031-1.599-13.886,0.38-20.965-0.696L177.335,203.274z"/>
		<g>
			<path fill="#ED353A" d="M98.291,45.03c45.922-19.23,105.195-16.745,130.4,22.561c7.954,12.404,10.893,26.884,9.894,41.483
				c-2.189,31.961-21.035,63.235-49.894,77.754c-35.543,17.878-87.533,16.228-119.835-6.886
				c-26.991-19.315-39.713-60.908-24.291-90.218C54.696,70.471,74.738,54.894,98.291,45.03z"/>
			<path fill="#FFFFFF" d="M207.76,137.115c-6.082,17.43-34.927,17.013-67.332,21.727c-30.313,4.412-47.262,16.809-68.193,0.713
				c-6.257-4.811-13.943-19.271-9.691-27.525c12.308-23.899,36.43,1.768,69.674-6.672c31.555-8.01,63.427-31.964,72.509-19.971
				C212.672,115.877,211.32,126.917,207.76,137.115z"/>
			<path fill="#1F3043" d="M104.535,136.486c0,3.84,3.101,6.952,6.943,6.952c3.842,0,6.949-3.112,6.949-6.952
				c0-3.833-3.107-6.946-6.949-6.946C107.636,129.54,104.535,132.653,104.535,136.486z"/>
			<path fill="#1F3043" d="M157.381,124.005c0,3.839,3.101,6.95,6.943,6.95s6.949-3.111,6.949-6.95c0-3.833-3.107-6.946-6.949-6.946
				S157.381,120.172,157.381,124.005z"/>
			<g>
				<path fill="#1F3043" d="M20.676,44.109c19.113-0.47,37.075,3.756,55.148,9.842c9.494,3.189,19.453,6.874,28.757,11.488
					c-3.327,1.509-6.448,3.094-9.323,4.731C83.41,63.015,66.815,57.5,58.107,55.518c-9.456-2.149-19.993,0.459-29.396,1.807
					c-4.502,0.653-29.867,5.266-28.67-4.421C0.951,45.474,15.364,44.242,20.676,44.109z"/>
				<path fill="#1F3043" d="M118.317,60.087c-7.658-12.22-22.754-25.691-30.722-31.465c-7.854-5.688-18.568-7.424-27.748-9.875
					c-4.397-1.165-29.538-6.878-24.634-15.318c3.752-6.476,17.492-1.952,22.431,0.01c17.766,7.068,32.625,18.005,46.86,30.694
					c7.894,7.026,16.044,14.764,23.043,23.165c-0.435,0.116-0.862,0.214-1.298,0.335C123.528,58.388,120.899,59.222,118.317,60.087z
					"/>
			</g>
		</g>
	</g>
	<g>
		<path fill="#FFFFFF" d="M140.442,233.199c-0.625-1.731-0.724-5.707-0.805-7.853c-0.014-0.355-0.13-2.683-0.168-3.275
			c-0.092-1.433-0.188-2.912-0.435-4.353c0.6-0.085,1.095-0.293,1.444-0.604c0.884-0.79,1.231-2.105,0.929-3.517
			c-0.393-1.836-1.744-3.373-3.446-3.916c-2.564-0.817-4.225-0.07-5.15,2.152c-0.671,1.61-0.239,3.162,1.235,4.383
			c1.294,0.948,2.049,4.5,2.242,6.657c0.635,7.11,0.622,6.874,0.712,10.016c-1.241,0.185-2.187,0.678-2.626,1.381
			c-0.629,1.006-0.597,2.365,0.086,3.638c0.888,1.655,2.615,2.755,4.399,2.801c0.248,0.007,0.5,0.004,0.75-0.014
			c2.141-0.15,3.352-1.323,3.598-3.487C143.418,235.343,142.412,233.891,140.442,233.199z M136.808,236.078
			c0.175-0.461,0.663-0.824,1.305-0.968c0.328-0.074,0.607-0.119,0.855-0.137c0.51-0.035,0.862,0.046,1.08,0.246
			c0.228,0.211,0.345,0.595,0.348,1.141l0.002,0.157c0.015,0.988-0.043,1.593-1.011,1.661h-0.001l-0.223,0.011
			c-0.978,0.049-1.469,0.074-2.071-0.761C136.752,236.955,136.653,236.487,136.808,236.078z M138.683,214.641
			c-0.278,0.427-0.874,0.668-1.563,0.625c-0.964-0.057-1.551-0.252-1.796-0.597c-0.19-0.266-0.206-0.683-0.049-1.24l0.043-0.154
			c0.212-0.769,0.405-1.317,0.982-1.358c0.132-0.009,0.283,0.007,0.453,0.047l0.217,0.051c0.953,0.224,1.432,0.336,1.777,1.307
			C138.93,213.841,138.909,214.297,138.683,214.641z"/>
		<path fill="#FFFFFF" d="M158.832,231.911c-0.625-1.729-0.724-5.696-0.805-7.837c-0.014-0.363-0.077-2.017-0.095-2.324
			c-0.141-2.4-0.402-6.867-2.868-9.033c-0.96-0.845-2.161-1.252-3.572-1.213l-0.269-3.834l-0.552,0.303
			c-1.65,0.905-4.779,4.246-5.805,5.487l-0.121,0.147l0.035,0.187c0.041,0.213,0.041,0.213,2.059,1.307
			c1.396,0.756,3.994,2.163,4.261,2.4l0.694,0.631l-0.021-0.939c-0.019-0.881-0.055-1.769-0.1-2.659
			c2.544,0.659,2.837,4.759,2.966,6.566c0.013,0.185,0.025,0.348,0.037,0.483c0.446,4.993,0.598,6.059,0.712,10.017
			c-1.241,0.184-2.187,0.678-2.627,1.381c-0.628,1.005-0.596,2.364,0.087,3.637c0.888,1.654,2.615,2.755,4.399,2.802
			c0.248,0.007,0.5,0.003,0.749-0.015c2.143-0.15,3.354-1.322,3.598-3.486C161.808,234.055,160.803,232.604,158.832,231.911z
			 M158.787,235.072l0.001,0.16c0.014,0.987-0.043,1.59-1.011,1.658h-0.001l-0.223,0.011c-0.978,0.049-1.468,0.075-2.071-0.76
			c-0.341-0.474-0.439-0.94-0.283-1.351c0.174-0.461,0.662-0.822,1.304-0.968c0.328-0.074,0.607-0.119,0.855-0.136
			c0.509-0.036,0.863,0.044,1.08,0.246C158.665,234.142,158.782,234.526,158.787,235.072z"/>
	</g>
</g>
</svg>
