<?xml version="1.0" encoding="utf-8"?>
<!-- Generator: Adobe Illustrator 17.0.0, SVG Export Plug-In . SVG Version: 6.00 Build 0)  -->
<!DOCTYPE svg PUBLIC "-//W3C//DTD SVG 1.1//EN" "http://www.w3.org/Graphics/SVG/1.1/DTD/svg11.dtd">
<svg version="1.1" id="Layer_1" xmlns="http://www.w3.org/2000/svg" xmlns:xlink="http://www.w3.org/1999/xlink" x="0px" y="0px"
	 width="232.19px" height="248.06px" viewBox="0 32.839 232.19 248.06" enable-background="new 0 32.839 232.19 248.06"
	 xml:space="preserve">
<g>
	<g>
		<path fill="#1F3043" d="M173.72,188.099c4.06-0.053,10.918-2.438,13.715-5.317c2.485-2.549,0.771-4.163-0.294-6.811
			c-0.881-2.201-0.27-6.256-2.348-7.535c-3.924-2.391-10.942,3.432-13.249,5.813c-1.749,1.803,0.42,13.501,0.977,14"/>
		<path fill="#1F3043" d="M186.334,183.745c3.491-3.358,10.05-4.396,14.023-4.17c1.673,0.093,3.244,1.412,4.444-0.338
			c1.038-1.559-0.397-3.503-1.773-4.172c-2.384-1.159-6.288-0.428-8.45,0.794c-3.368,1.897-4.713,2.81-8.795,3.34"/>
	</g>
	<path fill="#1F3043" d="M154.589,203.728c5.985-3.219,11.979-6.684,16.859-11.484c2.632-2.593,5.182-5.796,6.164-9.43
		c0.485-1.815,0.768-5.148-1.997-4.717c-5.954,0.935-4.921,7.832-7.989,11.929c-3.891,5.198-11.456,10.565-17.289,13.474
		c-3.827,1.914-8.163,2.931-12.456,2.775l4.357,3.5C146.478,208.038,150.566,205.894,154.589,203.728z"/>
	<path fill="#1F3043" d="M119.405,245.96c-0.002,5.345,1.084,10.562,1.704,15.891c0.277,2.376,2.603,11.409,2.579,14.024
		c-0.031,3.437-5.09,3.171-7.731,3.758c-2.315,0.508-8.126,2.176-8.771,0.609c-0.654-1.582,2.931-3.188,3.335-3.323
		c1.85-0.63,6.745-3.228,8.426-4.264c0.871-0.534-0.486-8.398-1.072-12.732c-0.36-2.668-4.079-16.832,1.809-14.514"/>
	<path fill="#1F3043" d="M125.976,245.948c0.846,5.073,2.388,10.595,3.645,16.144c0.526,2.321,3.144,11.295,3.421,13.895
		c0.367,3.418,5.376,2.668,8.063,2.986c2.35,0.282,8.297,1.375,8.788-0.247c0.495-1.639-3.23-2.884-3.644-2.984
		c-1.902-0.443-7.027-2.552-8.805-3.418c-0.918-0.451-4.168-8.313-5.086-12.598c-1.161-5.425-2.61-16.537-6.036-14.149"/>
	<path fill="#1F3043" d="M84.683,105.516c-0.866-10.082,0.956-20.164,2.659-30.071c1.648-9.6,3.626-19.325,7.928-28.144
		c2.324-4.759,5.515-9.687,10.006-12.673c2.244-1.487,6.647-3.391,7.321,0.564c1.442,8.517-8.635,14.752-12.803,20.786
		c-5.293,7.658-8.905,15.89-10.203,25.144c-0.911,6.47-0.253,13.291,2.289,19.342"/>
	<path fill="#1F3043" d="M75.788,108.087C69.625,99.625,60.95,92.28,52.753,85.886c-10.299-8.029-20.944-14.84-33.4-18.874
		c-3.465-1.123-13.052-3.595-15.335,0.992c-2.966,5.993,14.47,8.766,17.525,9.37c6.382,1.264,13.782,1.965,19.407,5.504
		c7.182,4.514,22.657,16.872,25.695,26.153"/>
	<path fill="#ED353A" d="M71.646,102.6c3.775-1.751,7.586-3.409,11.334-5.048c15.125-6.652,31.378-12.235,48.16-10.606
		c11.942,1.155,21.373,10.506,28.321,19.688c6.085,8.047,8.86,17.785,8.955,27.803c0.199,21.94-11.01,44.293-29.948,55.735
		c-23.32,14.092-58.903,15.722-82.183,1.655c-24.289-14.687-34.63-45.798-14.786-68.646C49.605,113.855,60.487,107.792,71.646,102.6
		z"/>
	<path fill="#FFFFFF" d="M89.297,127.233c3.603-4.753,6.99-9.654,10.386-15.1c4.437-7.12,10.459-12.802,18.964-14.661
		c16.215-3.543,35.369,5.226,35.535,26.511c0.08,10.201-10.578,15.957-18.058,20.69c-13.023,8.242-26.776,15.307-40.732,21.824
		c-7.625,3.56-27.717,9.063-29.701-2.704C65.033,159.898,82.436,136.282,89.297,127.233z"/>
	<path fill="#1F3043" d="M129.441,115.299c0.799,2.576,3.282,4.105,5.544,3.403c2.262-0.701,3.446-3.365,2.647-5.941
		c-0.799-2.578-3.278-4.096-5.54-3.396C129.83,110.067,128.643,112.72,129.441,115.299z"/>
	<path fill="#1F3043" d="M103.387,131.5c0.799,2.577,3.281,4.105,5.543,3.403c2.262-0.7,3.446-3.365,2.648-5.941
		c-0.799-2.579-3.278-4.096-5.54-3.396C103.776,126.268,102.587,128.922,103.387,131.5z"/>
	<path fill="#ED353A" d="M109.447,202.16c2.181-0.298,4.366-0.547,6.536-0.825c6.475-0.824,13.619-1.302,19.705,1.527
		c6.292,2.929,8.664,11.438,8.609,17.654c-0.081,8.998-4.158,18.645-10.964,24.633c-5.95,5.237-17.092,6.624-24.347,4.331
		c-12.137-3.831-25.062-19.754-22.642-33.031c0.961-5.279,6.204-9.759,11.098-11.562
		C101.329,203.462,105.373,202.724,109.447,202.16z"/>
	<path fill="#1F3043" d="M85.756,215.408c-4.293,1.94-8.986,1.903-13.16,4.167c-2.215,1.193-6.75,2.626-5.994,5.996
		c0.865,3.866,6.517,3.7,9.428,4.295c3.436,0.702,9.081,2.559,11.313,5.443c1.863,2.396,0.099,5.005,1.305,7.237
		c1.674,3.081,4.911,0.917,5.467-1.448c1.293-5.457-5.068-9.137-9.205-11.308c-4.551-2.387-9.151-3.545-13.837-5.187
		c2.082-2.024,5.273-3.597,7.923-4.579c1.985-0.738,7.43-1.864,7.639-4.174"/>
</g>
</svg>
