<?xml version="1.0" encoding="utf-8"?>
<!-- Generator: Adobe Illustrator 17.0.0, SVG Export Plug-In . SVG Version: 6.00 Build 0)  -->
<!DOCTYPE svg PUBLIC "-//W3C//DTD SVG 1.1//EN" "http://www.w3.org/Graphics/SVG/1.1/DTD/svg11.dtd">
<svg version="1.1" id="Layer_1" xmlns="http://www.w3.org/2000/svg" xmlns:xlink="http://www.w3.org/1999/xlink" x="0px" y="0px"
	 width="183.739px" height="211.432px" viewBox="0 0 183.739 211.432" enable-background="new 0 0 183.739 211.432"
	 xml:space="preserve">
<g>
	<path fill="#1F3043" d="M30.857,175.309c-12.349,0.82-21.284,0.521-25.872,0.579c-2.919,0.038-3.994-0.81-4.909,1.677
		c-0.701,1.905,3.651,2.615,4.887,2.777c0.077,0.026,0.181,0.042,0.329,0.04c2.655-0.026-0.709,5.243-2.025,7.552
		c-0.803,1.411-1.397,3.051-0.617,4.607c0.947,1.893,2.85,3.861,4.927,3.756c3.681-0.186,5.623-4.592,6.736-7.511
		c0.478-1.254,0.942-4.236,1.622-5.452l0-0.002c1.109-1.851,2.258-4.499,7.539-5.018c7.63-0.751,30.423-1.864,40.232-2.369
		l0.345-3.595C58.661,172.595,42.422,174.542,30.857,175.309z"/>
	<path fill="#ED353A" d="M77.789,164.135c1.583,0.078,3.164,0.189,4.738,0.279c4.695,0.272,9.818,0.878,13.754,3.686
		c4.069,2.906,4.625,9.246,3.763,13.64c-1.247,6.362-5.409,12.655-11.02,15.996c-4.906,2.923-12.979,2.432-17.814-0.15
		c-8.09-4.319-15.137-17.303-11.669-26.386c1.379-3.611,5.683-6.09,9.388-6.721C71.868,163.984,74.829,163.996,77.789,164.135z"/>
	<g>
		<path fill="#EE363A" d="M113.539,55.683c-37.611-12.646-97.529,5.638-95.316,50.854c1.797,36.707,38.913,59.98,73.077,57.263
			c21.544-1.713,43.662-9.342,56.763-27.391c13.825-19.046,14.549-44.145-0.811-62.468
			C139.163,64.293,125.607,59.741,113.539,55.683z"/>
		<path fill="#FFFFFF" d="M143.491,123.485c-2.943,5.289-7.448,9.862-12.467,12.788c-11.892,6.934-25.293,10.447-39.029,10.642
			c-7.444,0.106-15.14-0.532-22.45-1.989c-11.285-2.252-22.921-5.953-31.369-14.113c-5.775-5.578-8.738-13.68-3.226-20.413
			c5.941-7.253,19.428,1.366,26.292,2.357c16.2,2.336,22.627,0.166,30.774-4.211c15.054-8.095,39.414-28.64,51.844-8.85
			C148.662,107.341,147.594,116.11,143.491,123.485z"/>
		<path fill="#1F3043" d="M106.816,130.681c0.507,2.657-1.228,5.221-3.887,5.73c-2.658,0.508-5.221-1.236-5.728-3.893
			c-0.507-2.654,1.231-5.218,3.89-5.726C103.751,126.284,106.309,128.028,106.816,130.681z"/>
		<path fill="#1F3043" d="M69.977,130.152c0.508,2.658-1.228,5.222-3.886,5.73c-2.659,0.508-5.22-1.236-5.728-3.892
			c-0.507-2.654,1.232-5.218,3.891-5.726C66.913,125.756,69.471,127.499,69.977,130.152z"/>
		<path fill="#1F3043" d="M101.878,77.379c4.978-10.815,25.462-23.615,34.795-28.084c7.307-3.496,16.372-3.315,24.282-3.953
			c3.787-0.299,25.303-1.222,22.54-8.892c-2.113-5.885-14.082-4.229-18.433-3.357c-15.659,3.144-29.511,9.903-43.112,18.196
			c-10.833,6.594-22.363,14.281-31.019,23.672c0,0-2.27,3.013,3.32,4.146C99.842,80.24,101.878,77.379,101.878,77.379z"/>
		<path fill="#1F3043" d="M77.569,71.315c0.335-11.901,14.153-31.712,20.983-39.486c5.348-6.083,13.757-9.474,20.783-13.165
			c3.366-1.761,22.794-11.054,17.241-17.025c-4.252-4.583-14.611,1.638-18.273,4.147c-13.169,9.038-23.256,20.689-32.51,33.654
			c-7.377,10.317-14.966,21.913-19.242,33.947c0,0,1.102,1.485,4.717,1.93C78.129,76.163,77.569,71.315,77.569,71.315z"/>
	</g>
	<g>
		<path fill="#1F3043" d="M101.068,170.475c6.748,8.408,29.258,14.492,39.42,15.843c4.574,0.609,9.154,0.817,13.745,1.213
			c2.677,0.235,6.982,0.69,4.305,4.382c-4.949,6.829-29.106-2.803-35.903-5.814c-3.935-1.742-18.352-7.917-21.478-10.886
			c-0.644-0.612-3.52-3.315-2.31-4.55C99.555,169.943,100.335,169.56,101.068,170.475z"/>
		<g>
			<g>
				<g>
					<g>
						<path fill="#6E6E71" d="M131.743,164.911c2.59,0.904,8.121,8.3,9.38,10.846c1.658,3.349,2.979,6.233,4.139,9.69
							c1.944,5.811,5.488,22.05,12.082,23.203c8.715,1.519,0.2-15.64-1.194-19.903c-1.181-3.622-2.829-7.114-4.108-10.705
							c-1.604-4.495-1.54-8.98-1.602-13.373c-0.018-1.457,0.198-3.199-0.081-4.761"/>
						<path fill="#6E6E71" d="M169.107,97.365c-26.678-37.528-95.628-10.095-96.483,32.503c-0.2,9.872,6.095,17.254,12.073,23.892
							c12.458,13.836,29.687,15.578,46.733,13.379C164.113,162.931,192.897,130.824,169.107,97.365z M128.782,160.895
							c-14.542,2.021-29.207,0.653-39.721-11.166c-5.045-5.667-10.349-11.975-10.106-20.482c1.055-36.68,60.014-60.825,82.46-28.717
							C181.432,129.157,156.663,157.021,128.782,160.895z"/>
						<path fill="#CDCCCB" d="M78.702,129.19c-0.243,8.507,5.061,14.815,10.107,20.482c10.513,11.819,25.178,13.187,39.72,11.166
							c27.882-3.874,52.651-31.738,32.633-60.365C138.716,68.364,79.756,92.509,78.702,129.19z"/>
					</g>
				</g>
			</g>
			<path fill="#1F3043" d="M151.55,178.044c1.602-1.503,4.482-1.213,6.537-0.334c1.693,0.724,2.333,2.453,2.647,4.139
				c0.516,2.761,1.291,5.466,1.789,8.23c0.291,1.599,0.866,4.342-1.22,5.039c-1.381,0.463-2.908-0.346-4.219-0.722
				c-1.263-0.364-2.699-0.616-3.704-1.533c-1.089-0.99-1.669-2.823-2.14-4.161C150.147,185.588,148.707,180.705,151.55,178.044z"/>
			<path fill="#1F3043" d="M141.425,190.932c3.033-3.282-2.848-12.187,0.766-13.046c1.328-0.872,9.813,13.384,1.266,13.145"/>
		</g>
	</g>
	<g>
		<g>
			<path fill="#1F3043" d="M64.718,203.918c7.902-1.669,9.311-1.667,16.451-2.843c9.856-1.627,19.003-4.424,29.038-4.441
				c5.108-0.01,9.998-1.852,14.716-3.571c3.432-1.25,6.044-2.952,4.097-5.527c-1.127-1.492-11.071-0.006-15.714,1.26
				c-6.949,1.892-14.307,3.314-21.211,5.355c-9.426,2.783-16.754,3.896-26.708,5.574"/>
			<path fill="#1F3043" d="M129.019,187.537c-1.611-1.998-15.983-2.392-19.706-2.529c-3.916-0.147-7.806,0.168-11.716,0.311
				c-1.293,0.048-4.08-0.168-3.723,3.002c0.341,3.028,3.461,3.649,8.472,2.33c3.091-0.813,6.731-1.72,9.89-1.139
				c1.177,0.218,2.414,0.773,3.553,0.919c1.41,0.178,4.955,0.394,6.316-0.01c1.727-0.514,2.747-1.582,4.835-1.826"/>
		</g>
		<g>
			<path fill="#1F3043" d="M95.751,206.03c-6.792-2.614-9.265-3.437-16.405-4.613c-9.856-1.627-19.003-4.424-29.038-4.441
				c-5.108-0.01-9.998-1.852-14.716-3.571c-3.432-1.25-6.044-2.952-4.097-5.527c1.127-1.492,11.071-0.006,15.714,1.26
				c6.949,1.892,14.307,3.314,21.211,5.355c9.426,2.783,16.754,3.896,26.708,5.574"/>
			<path fill="#1F3043" d="M83.135,198.316c8.167,1.158,10.515-2.882,14.228,0.554c2.301,2.129,4.617,2.819,6.633,4.736
				c1.408,1.338,6.815,5.133,5.349,6.232c-2.88,2.161-11.253-2.72-13.595-3.808c-4.566-2.125-8.612-2.992-17.657-4.829"/>
			<path fill="#1F3043" d="M67.578,199.364c-8.167,1.158-10.515-2.882-14.228,0.554c-2.301,2.129-4.617,2.819-6.633,4.736
				c-1.408,1.338-6.815,5.133-5.349,6.232c2.88,2.161,11.253-2.72,13.595-3.808c4.566-2.125,8.612-2.992,17.657-4.829"/>
			<path fill="#1F3043" d="M31.496,187.879c1.611-1.998,15.983-2.392,19.706-2.529c3.916-0.147,7.806,0.168,11.716,0.311
				c1.293,0.048,4.08-0.168,3.723,3.002c-0.341,3.028-3.461,3.649-8.472,2.33c-3.091-0.813-6.731-1.72-9.89-1.139
				c-1.177,0.218-2.414,0.773-3.553,0.919c-1.41,0.178-4.955,0.394-6.316-0.01c-1.727-0.514-2.747-1.582-4.835-1.826"/>
		</g>
	</g>
</g>
</svg>
