<?xml version="1.0" encoding="utf-8"?>
<!-- Generator: Adobe Illustrator 17.0.0, SVG Export Plug-In . SVG Version: 6.00 Build 0)  -->
<!DOCTYPE svg PUBLIC "-//W3C//DTD SVG 1.1//EN" "http://www.w3.org/Graphics/SVG/1.1/DTD/svg11.dtd">
<svg version="1.1" id="Layer_1" xmlns="http://www.w3.org/2000/svg" xmlns:xlink="http://www.w3.org/1999/xlink" x="0px" y="0px"
	 width="232.19px" height="248.06px" viewBox="0 32.839 232.19 248.06" enable-background="new 0 32.839 232.19 248.06"
	 xml:space="preserve">
<g>
	<g>
		<g>
			<path fill="#1F3043" d="M170.475,193.637c4.158-0.054,11.18-2.496,14.043-5.445c2.545-2.61,0.789-4.262-0.301-6.974
				c-0.902-2.254-0.277-6.406-2.404-7.716c-4.018-2.448-11.204,3.514-13.566,5.952c-1.791,1.846,0.43,13.825,1.001,14.336"/>
			<path fill="#1F3043" d="M183.39,189.178c3.575-3.439,10.291-4.502,14.359-4.27c1.713,0.095,3.322,1.446,4.551-0.346
				c1.062-1.597-0.406-3.587-1.815-4.272c-2.441-1.186-6.439-0.439-8.652,0.813c-3.448,1.942-4.826,2.877-9.005,3.42"/>
		</g>
		<path fill="#1F3043" d="M150.884,209.64c6.128-3.296,12.266-6.844,17.263-11.759c2.695-2.655,5.306-5.934,6.311-9.656
			c0.496-1.858,0.786-5.271-2.044-4.83c-6.097,0.957-5.039,8.019-8.181,12.215c-3.984,5.323-11.73,10.819-17.703,13.797
			c-3.919,1.96-8.359,3.002-12.755,2.842l4.462,3.584C142.579,214.053,146.765,211.857,150.884,209.64z"/>
	</g>
	<g>
		<path fill="#1F3043" d="M111.41,246.116c-0.004,5.318,0.23,10.628,0.276,15.973c0.018,2.375,0.985,11.21,0.963,13.807
			c-0.028,3.43-5.067,3.164-7.698,3.746c-2.305,0.503-8.091,2.165-8.732,0.603c-0.651-1.574,2.918-3.168,3.321-3.306
			c1.845-0.622,6.714-3.213,8.393-4.245c0.864-0.53,0.807-8.322,0.807-12.68c0-2.669-2.918-16.756,2.946-14.444"/>
		<path fill="#1F3043" d="M114.714,255.55c-5.22,1.034-10.467,1.826-15.726,2.819c-2.333,0.439-11.19,1.194-13.732,1.717
			c-3.356,0.694-2.128,5.584-2.188,8.276c-0.05,2.356-0.566,8.357,1.091,8.688c1.678,0.33,2.545-3.479,2.605-3.902
			c0.262-1.927,1.852-7.209,2.546-9.051c0.354-0.952,8.003-2.399,12.283-3.241c2.617-0.519,24.075-2.515,24.146-8.815l0.318-7.185
			l-4.274,1.979c0,0,1.685,5.572,0.364,6.304C120.832,253.869,114.714,255.55,114.714,255.55z"/>
		<g>
			<path fill="#1F3043" d="M113.039,103.794c0.082-10.072-2.5-19.95-4.957-29.649c-2.372-9.402-5.088-18.903-10.035-27.32
				c-2.677-4.547-6.218-9.195-10.91-11.811c-2.344-1.308-6.863-2.855-7.224,1.123c-0.775,8.563,9.71,13.977,14.313,19.648
				c5.843,7.194,10.06,15.084,12.068,24.167c1.402,6.354,1.275,13.173-0.786,19.378"/>
			<path fill="#1F3043" d="M122.072,105.657c5.467-8.875,13.505-16.836,21.154-23.813c9.603-8.766,19.645-16.349,31.701-21.312
				c3.35-1.378,12.681-4.573,15.294-0.192c3.41,5.716-13.686,9.815-16.67,10.648c-6.24,1.748-13.531,3.017-18.842,6.961
				c-6.778,5.037-21.188,18.495-23.491,27.937"/>
			<path fill="#ED353A" d="M125.762,99.893c-3.888-1.45-7.798-2.802-11.639-4.143c-15.531-5.438-32.095-9.719-48.628-6.816
				c-11.759,2.069-20.406,12.082-26.596,21.733c-5.421,8.457-7.425,18.333-6.745,28.286c1.494,21.793,14.345,43.116,34.025,53.017
				c24.234,12.192,59.683,11.063,81.707-4.697c22.977-16.447,30.845-48.125,9.387-69.272
				C148.508,109.363,137.241,104.183,125.762,99.893z"/>
			<path fill="#FFFFFF" d="M155.13,130.226c-5.162-11.445-17.846-15.719-29.064-18.739c-10.838-2.922-21.526-6.652-32.566-8.754
				c-16.231-3.1-38.752,1.918-37.276,23.064c0.666,9.352,6.781,16.947,14.048,22.344c4.146,3.089,8.841,6.173,13.525,8.374
				c3.976,1.864,8.187,3.424,12.404,4.648c17.779,5.149,41.525,5.591,55.086-9.543C157.276,144.934,158.165,136.936,155.13,130.226z
				"/>
			<path fill="#1F3043" d="M133.654,133.719c-0.595,2.619-3.194,4.267-5.82,3.671c-2.618-0.594-4.26-3.202-3.669-5.822
				c0.595-2.619,3.201-4.262,5.822-3.666C132.61,128.497,134.249,131.099,133.654,133.719z"/>
			<path fill="#1F3043" d="M91.549,124.174c-0.595,2.62-3.194,4.263-5.821,3.668c-2.62-0.59-4.26-3.197-3.669-5.819
				c0.592-2.619,3.201-4.262,5.821-3.672C90.501,118.947,92.14,121.554,91.549,124.174z"/>
		</g>
		<path fill="#ED353A" d="M104.618,202.509c2.171-0.298,4.341-0.548,6.505-0.821c6.444-0.825,13.562-1.299,19.62,1.514
			c6.267,2.917,8.629,11.393,8.573,17.578c-0.082,8.955-4.143,18.562-10.917,24.528c-5.928,5.218-17.018,6.59-24.238,4.314
			c-12.085-3.817-24.956-19.672-22.545-32.892c0.956-5.254,6.179-9.714,11.048-11.506
			C96.534,203.801,100.557,203.068,104.618,202.509z"/>
		<path fill="#1F3043" d="M80.929,216.317c-4.277,1.931-8.951,1.895-13.105,4.149c-2.206,1.191-6.721,2.616-5.966,5.97
			c0.857,3.849,6.49,3.685,9.387,4.275c3.417,0.702,9.041,2.55,11.265,5.42c1.851,2.387,0.091,4.984,1.295,7.205
			c1.668,3.069,4.89,0.914,5.446-1.44c1.285-5.432-5.046-9.096-9.168-11.259c-4.529-2.376-9.114-3.531-13.774-5.165
			c2.072-2.017,5.251-3.58,7.886-4.557c1.979-0.738,7.397-1.857,7.602-4.158"/>
	</g>
</g>
</svg>
