<?xml version="1.0" encoding="utf-8"?>
<!-- Generator: Adobe Illustrator 17.0.0, SVG Export Plug-In . SVG Version: 6.00 Build 0)  -->
<!DOCTYPE svg PUBLIC "-//W3C//DTD SVG 1.1//EN" "http://www.w3.org/Graphics/SVG/1.1/DTD/svg11.dtd">
<svg version="1.1" id="Layer_1" xmlns="http://www.w3.org/2000/svg" xmlns:xlink="http://www.w3.org/1999/xlink" x="0px" y="0px"
	 width="232.19px" height="284px" viewBox="0 -92.257 232.19 284" enable-background="new 0 -92.257 232.19 284"
	 xml:space="preserve">
<g>
	<g>
		<path fill="#1F3043" d="M107.229,144.514c-0.002,6.01,1.217,11.875,1.917,17.866c0.311,2.671,2.925,12.826,2.899,15.767
			c-0.035,3.864-5.723,3.565-8.691,4.226c-2.603,0.57-9.137,2.446-9.862,0.684c-0.735-1.778,3.295-3.584,3.75-3.736
			c2.08-0.707,7.583-3.629,9.472-4.793c0.98-0.6-0.546-9.441-1.205-14.315c-0.406-3-4.586-18.924,2.033-16.317"/>
		<path fill="#1F3043" d="M114.616,144.5c0.953,5.704,2.687,11.912,4.098,18.15c0.593,2.611,3.536,12.7,3.847,15.622
			c0.412,3.843,6.043,2.999,9.064,3.357c2.642,0.317,9.329,1.545,9.881-0.278c0.555-1.843-3.631-3.242-4.098-3.355
			c-2.139-0.498-7.9-2.869-9.898-3.842c-1.032-0.508-4.686-9.347-5.717-14.163c-1.306-6.1-2.935-18.592-6.788-15.907"/>
	</g>
	<path fill="#1F3043" d="M62.232,120.455c-11.763-2.093-20.069-4.444-24.381-5.451c-2.744-0.64-3.556-1.685-4.99,0.434
		c-1.098,1.623,2.816,3.297,3.937,3.735c0.066,0.042,0.16,0.081,0.299,0.114c2.495,0.591-1.88,4.749-3.648,6.609
		c-1.079,1.136-2.016,2.536-1.646,4.175c0.449,1.994,1.776,4.279,3.748,4.662c3.493,0.679,6.334-3,8.053-5.479
		c0.738-1.064,1.864-3.752,2.783-4.734l0.001-0.002c1.468-1.478,3.158-3.694,8.228-2.957c7.325,1.064,28.945,5.301,38.255,7.101
		l1.156-3.29C88.92,124.354,73.249,122.416,62.232,120.455z"/>
	<path fill="#1F3043" d="M158.961,120.455c11.763-2.093,20.069-4.444,24.381-5.451c2.744-0.64,3.556-1.685,4.99,0.434
		c1.098,1.623-2.816,3.297-3.937,3.735c-0.066,0.042-0.16,0.081-0.299,0.114c-2.495,0.591,1.88,4.749,3.648,6.609
		c1.08,1.136,2.016,2.536,1.646,4.175c-0.449,1.994-1.776,4.279-3.748,4.662c-3.493,0.679-6.334-3-8.053-5.479
		c-0.738-1.064-1.864-3.752-2.783-4.734l-0.001-0.002c-1.468-1.478-3.158-3.694-8.228-2.957c-7.325,1.064-28.945,5.301-38.255,7.101
		l-1.156-3.29C132.273,124.354,147.945,122.416,158.961,120.455z"/>
	<path fill="#ED353A" d="M107.685,114.381c1.458-0.072,2.909-0.107,4.355-0.156c4.313-0.163,9.046-0.048,12.887,2.171
		c3.975,2.302,5.031,8.05,4.625,12.142c-0.587,5.921-3.846,12.032-8.685,15.576c-4.231,3.097-11.653,3.344-16.288,1.407
		c-7.77-3.248-15.34-14.504-12.96-23.107c0.947-3.415,4.664-6.055,7.998-6.948C102.259,114.754,104.965,114.508,107.685,114.381z"/>
	<path fill="#ED353A" d="M135.012,6.524C101.971-7.313,59.323-5.524,41.188,22.758c-5.723,8.924-7.838,19.343-7.119,29.847
		c1.575,22.997,15.135,45.499,35.9,55.945c25.574,12.864,62.981,11.676,86.223-4.954c19.42-13.898,28.574-43.824,17.478-64.913
		C166.381,24.83,151.96,13.622,135.012,6.524z"/>
	<g>
		<path fill="#1F3043" d="M190.858,5.861c-13.753-0.338-26.676,2.703-39.68,7.082c-6.831,2.294-13.997,4.946-20.691,8.266
			c2.393,1.086,4.639,2.226,6.708,3.404c8.525-5.149,20.465-9.117,26.73-10.543c6.804-1.546,14.385,0.33,21.151,1.3
			c3.239,0.47,21.49,3.789,20.629-3.181C205.051,6.844,194.68,5.958,190.858,5.861z"/>
		<path fill="#1F3043" d="M120.604,17.358c5.51-8.792,16.372-18.485,22.105-22.64c5.65-4.093,13.36-5.342,19.965-7.105
			c3.163-0.839,21.253-4.949,17.724-11.022c-2.7-4.659-12.586-1.404-16.14,0.007c-12.783,5.086-23.474,12.955-33.716,22.085
			c-5.68,5.055-11.544,10.623-16.579,16.668c0.313,0.084,0.62,0.153,0.934,0.241C116.854,16.136,118.746,16.736,120.604,17.358z"/>
	</g>
	<path fill="#FFFFFF" d="M161.31,80.42c-2.874,7.197-17.732,14.41-24.725,16.244c-18.7,4.908-39.93,2.795-57.086-6.037
		c-8.393-4.32-17.32-10.336-22.145-18.683c-4.388-7.597-8.544-28.181,1.833-32.998c9.783-4.54,19.859,9.562,27.12,13.873
		c8.997,5.342,18.957,8.408,29.343,9.5c10.384,1.089,48.109-5.944,46.853,12.772C162.373,77.026,161.958,78.796,161.31,80.42z"/>
	<path fill="#1F3043" d="M130.252,83.147c-2.84,0.96-6.935,0.2-8.022-2.97c-0.269-0.791-0.831-4.098,0.94-3.485
		c1.271,0.446,2.472,1.01,3.851,0.979c1.091-0.027,2.233-0.082,3.307-0.286c0.754-0.143,1.508-0.354,2.187-0.717
		c0.938-0.5,1.74-1.211,2.513-1.931c0.173-0.161,0.361,0.168,0.397,0.271c0.278,0.811-0.172,2.1-0.396,2.89
		c-0.286,1.001-0.701,1.978-1.31,2.829c-0.34,0.473-0.741,0.9-1.212,1.248C131.824,82.481,131.056,82.875,130.252,83.147z"/>
	<path fill="#1F3043" d="M74.127,69.9c2.168,2.07,6.201,3.111,8.525,0.695c0.579-0.601,2.486-3.363,0.618-3.556
		c-1.339-0.132-2.667-0.129-3.903-0.739c-0.976-0.485-1.988-1.018-2.876-1.656c-0.622-0.448-1.216-0.958-1.678-1.573
		c-0.639-0.85-1.068-1.833-1.463-2.813c-0.087-0.218-0.399,0-0.473,0.078c-0.597,0.617-0.732,1.976-0.863,2.787
		c-0.165,1.028-0.2,2.089-0.007,3.117c0.107,0.573,0.292,1.131,0.569,1.645C72.983,68.631,73.511,69.312,74.127,69.9z"/>
</g>
<polygon fill="#DEDEDE" points="125.642,-27.828 125.642,-92.257 156.062,-92.257 "/>
</svg>
