<?xml version="1.0" encoding="utf-8"?>
<!-- Generator: Adobe Illustrator 17.0.0, SVG Export Plug-In . SVG Version: 6.00 Build 0)  -->
<!DOCTYPE svg PUBLIC "-//W3C//DTD SVG 1.1//EN" "http://www.w3.org/Graphics/SVG/1.1/DTD/svg11.dtd">
<svg version="1.1" id="Layer_1" xmlns="http://www.w3.org/2000/svg" xmlns:xlink="http://www.w3.org/1999/xlink" x="0px" y="0px"
	 width="232.19px" height="284px" viewBox="0 -92.257 232.19 284" enable-background="new 0 -92.257 232.19 284"
	 xml:space="preserve">
<polygon fill="#DEDEDE" points="125.642,-27.828 125.642,-92.257 156.062,-92.257 "/>
<g>
	<g>
		<path fill="#1F3043" d="M175.166,91.516c4.041-0.053,10.866-2.426,13.649-5.292c2.473-2.537,0.767-4.143-0.293-6.779
			c-0.876-2.19-0.269-6.227-2.336-7.499c-3.905-2.379-10.889,3.415-13.185,5.785c-1.741,1.794,0.418,13.437,0.973,13.933"/>
		<path fill="#1F3043" d="M187.719,87.182c3.474-3.342,10.002-4.375,13.955-4.15c1.665,0.092,3.229,1.405,4.423-0.337
			c1.033-1.552-0.395-3.487-1.764-4.152c-2.373-1.153-6.258-0.426-8.409,0.79c-3.351,1.888-4.689,2.796-8.752,3.324"/>
	</g>
	<path fill="#1F3043" d="M156.126,107.069c5.957-3.203,11.922-6.651,16.778-11.428c2.62-2.58,5.157-5.768,6.134-9.385
		c0.482-1.806,0.764-5.123-1.987-4.695c-5.926,0.93-4.898,7.794-7.951,11.871c-3.872,5.173-11.401,10.515-17.206,13.409
		c-3.809,1.905-8.124,2.917-12.396,2.762l4.336,3.483C148.055,111.359,152.123,109.225,156.126,107.069z"/>
	<path fill="#1F3043" d="M122.073,151.397c0.562,5.29,0.033,10.567-0.023,15.905c-0.025,2.381-1.383,11.564-1.085,14.15
		c0.391,3.398,5.37,2.605,8.044,2.911c2.344,0.26,8.27,1.303,8.744-0.315c0.482-1.634-3.235-2.849-3.649-2.94
		c-1.897-0.429-7.014-2.489-8.785-3.338c-0.918-0.438-0.398-8.362-0.271-12.714c0.077-2.678,2.275-17.085-3.309-14.174"/>
	<path fill="#1F3043" d="M113.769,151.481c-0.842,5.049-2.539,10.681-4.221,16.087c-0.832,2.671-3.878,10.611-4.153,13.198
		c-0.365,3.402-5.35,2.655-8.024,2.971c-2.338,0.281-8.258,1.368-8.746-0.246c-0.492-1.631,3.215-2.87,3.627-2.97
		c1.893-0.441,7.06-2.414,8.763-3.402c1.834-1.065,4.909-7.55,6.404-11.928c1.784-5.226,2.598-16.457,6.007-14.081"/>
	<path fill="#1F3043" d="M100.828,2.319c-1.15-10.005-4.922-19.478-8.544-28.804c-3.506-9.037-7.36-18.131-13.3-25.881
		c-3.208-4.181-7.296-8.356-12.267-10.381c-2.483-1.007-7.153-1.992-7.029,1.998c0.278,8.592,11.34,12.68,16.6,17.741
		c6.678,6.422,11.829,13.736,14.926,22.505c2.169,6.13,2.876,12.913,1.595,19.318"/>
	<path fill="#1F3043" d="M77.703,11.887C71.571,3.465,62.937-3.844,54.78-10.208C44.53-18.198,33.936-24.976,21.54-28.991
		c-3.448-1.117-12.99-3.578-15.261,0.987c-2.951,5.965,14.401,8.724,17.441,9.325c6.351,1.258,13.716,1.955,19.314,5.478
		c7.148,4.493,22.548,16.79,25.572,26.027"/>
	<path fill="#ED353A" d="M73.583,6.426c3.756-1.743,7.548-3.393,11.278-5.024c17.63-7.708,42.634-12.224,60.694-4.053
		c16.533,7.48,26.174,28.498,24.741,45.579c-1.622,19.337-11.978,38.413-28.547,48.827c-23.811,14.966-67.005,19.492-89.714-2.889
		C38.807,75.828,31.904,60.126,39.083,42.198C44.623,28.361,60.031,12.712,73.583,6.426z"/>
	<path fill="#FFFFFF" d="M79.061,28.461c3.092-3.186,6.359-6.199,9.514-9.14c9.053-8.437,19.546-15.324,31.782-17.998
		c13.616-2.975,28.781,3.305,35.882,15.183c18.204,30.454-26.441,49.665-49.038,54.877c-9.324,2.151-20.249,4.14-29.845,3.019
		C64.325,72.881,62.048,58.257,65.6,48.332C68.329,40.707,73.401,34.293,79.061,28.461z"/>
	<path fill="#1F3043" d="M129.811,19.064c0.795,2.564,3.266,4.085,5.517,3.387c2.251-0.697,3.43-3.348,2.634-5.913
		c-0.795-2.566-3.263-4.076-5.513-3.38C130.198,13.857,129.016,16.498,129.811,19.064z"/>
	<path fill="#1F3043" d="M103.881,35.187c0.795,2.564,3.266,4.086,5.516,3.387c2.251-0.697,3.43-3.348,2.635-5.912
		c-0.795-2.567-3.263-4.077-5.513-3.38C104.268,29.98,103.086,32.622,103.881,35.187z"/>
	<path fill="#ED353A" d="M111.201,105.509c2.17-0.296,4.345-0.544,6.505-0.821c6.444-0.821,13.554-1.296,19.611,1.519
		c6.262,2.915,8.623,11.383,8.568,17.569c-0.081,8.955-4.138,18.556-10.911,24.515c-5.921,5.212-17.01,6.592-24.23,4.31
		c-12.079-3.813-24.942-19.659-22.533-32.873c0.957-5.254,6.174-9.712,11.045-11.507
		C103.122,106.804,107.147,106.069,111.201,105.509z"/>
	<g>
		<path fill="#1F3043" d="M115.918,105.844c3.156-0.53,5.881-0.074,9.023-0.679c-0.842,1.716-0.675,3.669-1.229,5.442
			c-0.48,1.539-1.026,1.675-2.645,2.028c-2.714,0.591-2.337,0.021-3.649-2.182c-0.68-1.141-1.456-2.062-1.732-3.391"/>
		<path fill="#1F3043" d="M119.699,111.575c0.075,1.234-1.031,4.597-1.202,5.795c-0.304,2.134-0.348,4.317-0.704,6.48
			c-0.462,2.812-0.667,6.312-1.662,8.916c1.303,2.965,8.958,8.094,10.104,10.362c1.095-2.497,3.064-4.475,4.437-6.79
			c2.106-3.552-1.029-7.453-2.315-10.916c-1.269-3.418-3.099-6.731-4.606-10.064c-0.553-1.222-1.246-2.665-1.76-3.846"/>
		<path fill="#FFFFFF" d="M118.429,105.591c-2.459,0.436-2.356,5.895-2.411,7.949c-1.564,0.245-2.061-2.629-2.433-3.689
			c-0.436-1.24-1.112-3.861-0.196-4.961"/>
		<path fill="#FFFFFF" d="M119.642,103.738c1.634-0.049,2.869-0.33,4.455,0.069c0.794,0.199-0.221,0.754-1.814,1.665
			c1.743-0.049,2.632,5.088,3.038,5.947c2.911-2.211,0.781-6.392-1.224-7.611"/>
	</g>
	<path fill="#1F3043" d="M90.891,119.712c-0.3-1.184-1.125-1.829-2.862-1.755c-4.663,7.453-12.423,17.549-26.193,26.128
		c-2.056,1.281-5.329-0.034-5.505,1.494c-0.162,1.418,2.163,2.16,3.634,2.903c-1.739,4.152,0.078,12.414,3.351,10.965
		c2.439-1.08-0.137-5.523,1.139-10.29c1.28-4.783,4.881-6.669,8.596-9.724C76.427,136.656,92.443,123.658,90.891,119.712z"/>
</g>
</svg>
