<?xml version="1.0" encoding="utf-8"?>
<!-- Generator: Adobe Illustrator 17.0.0, SVG Export Plug-In . SVG Version: 6.00 Build 0)  -->
<!DOCTYPE svg PUBLIC "-//W3C//DTD SVG 1.1//EN" "http://www.w3.org/Graphics/SVG/1.1/DTD/svg11.dtd">
<svg version="1.1" id="Layer_1" xmlns="http://www.w3.org/2000/svg" xmlns:xlink="http://www.w3.org/1999/xlink" x="0px" y="0px"
	 width="18.353px" height="22.346px" viewBox="0 0 18.353 22.346" enable-background="new 0 0 18.353 22.346" xml:space="preserve">
<g>
	<path fill="#777777" d="M18.332,17.02c-1.071-3.664-3.611-6.398-6.809-7.334c-0.091-0.474-0.322-0.903-0.663-1.24
		c2.287-0.849,3.86-3.327,3.86-6.142c0-0.28-0.228-0.507-0.508-0.507c-0.279,0-0.507,0.227-0.507,0.507
		c0,1.248-0.364,2.454-1.016,3.418c0.025-0.17,0.038-0.34,0.038-0.513c0-1.332-0.741-2.536-1.909-3.145
		c0.428-0.35,0.757-0.824,0.959-1.385c0.094-0.262-0.046-0.554-0.307-0.648c-0.257-0.094-0.559,0.048-0.65,0.306
		C10.532,1.142,9.887,1.66,9.177,1.66c-0.71,0-1.355-0.519-1.645-1.325c-0.091-0.256-0.403-0.4-0.646-0.307
		C6.757,0.074,6.654,0.167,6.596,0.29c-0.057,0.122-0.063,0.26-0.017,0.387c0.199,0.56,0.528,1.034,0.957,1.385
		c-1.17,0.609-1.91,1.813-1.91,3.145c0,0.173,0.013,0.344,0.039,0.514c-0.653-0.964-1.017-2.17-1.017-3.42
		c0-0.28-0.229-0.507-0.509-0.507c-0.277,0-0.504,0.227-0.504,0.507c0,2.817,1.573,5.294,3.859,6.142
		C7.152,8.783,6.921,9.212,6.83,9.685c-3.198,0.937-5.739,3.671-6.809,7.334c-0.038,0.13-0.024,0.267,0.042,0.385
		c0.066,0.12,0.173,0.205,0.302,0.245c0.266,0.076,0.554-0.085,0.629-0.345c0.939-3.214,3.125-5.652,5.866-6.561
		c0.102,0.388,0.302,0.746,0.58,1.038c-3.077,0.918-5.279,4.2-5.279,7.939c0,0.303,0.02,0.671,0.06,1.065
		c0.026,0.256,0.244,0.498,0.549,0.498c0.003,0,0.005,0,0.006,0c0.135,0,0.257-0.124,0.343-0.229c0.086-0.106,0.124-0.26,0.11-0.393
		c-0.026-0.266-0.055-0.595-0.055-0.929c0-2.327,0.942-4.493,2.501-5.833c-0.298,0.653-0.453,1.388-0.453,2.169
		c0,3.226,2.876,6.278,3.952,6.278c1.077,0,3.954-3.054,3.954-6.28c0-0.781-0.155-1.519-0.453-2.173
		c1.558,1.343,2.499,3.501,2.499,5.827c0,0.329-0.027,0.649-0.055,0.916c-0.014,0.135,0.025,0.267,0.11,0.373
		c0.085,0.105,0.206,0.17,0.394,0.187c0.259,0,0.476-0.195,0.505-0.455c0.04-0.39,0.06-0.715,0.06-1.022
		c0-3.737-2.202-7.02-5.277-7.939c0.279-0.294,0.48-0.652,0.58-1.038c2.74,0.911,4.924,3.349,5.864,6.561
		c0.076,0.26,0.368,0.425,0.629,0.343c0.131-0.037,0.237-0.125,0.303-0.244C18.357,17.286,18.37,17.149,18.332,17.02z M6.643,5.208
		c0-1.397,1.137-2.533,2.534-2.533c1.397,0,2.535,1.135,2.535,2.533c0,1.396-1.137,2.534-2.535,2.535
		C7.78,7.742,6.643,6.604,6.643,5.208z M10.562,10.143c0,0.057-0.008,0.112-0.019,0.189c-0.096,0.682-0.682,1.196-1.365,1.196
		c-0.685,0-1.271-0.514-1.37-1.234c-0.007-0.05-0.015-0.099-0.015-0.152c0-0.139,0.026-0.281,0.079-0.439
		c0.188-0.567,0.714-0.946,1.305-0.946c0.592,0,1.118,0.381,1.307,0.95C10.538,9.859,10.562,10.002,10.562,10.143z M12.117,16.066
		c0,2.733-2.524,5.262-2.937,5.264c-0.416-0.003-2.939-2.531-2.939-5.264c-0.001-2.072,1.207-3.517,2.937-3.517
		C10.907,12.549,12.117,13.995,12.117,16.066z"/>
</g>
</svg>
