<?xml version="1.0" encoding="utf-8"?>
<!-- Generator: Adobe Illustrator 17.0.0, SVG Export Plug-In . SVG Version: 6.00 Build 0)  -->
<!DOCTYPE svg PUBLIC "-//W3C//DTD SVG 1.1//EN" "http://www.w3.org/Graphics/SVG/1.1/DTD/svg11.dtd">
<svg version="1.1" id="Layer_1" xmlns="http://www.w3.org/2000/svg" xmlns:xlink="http://www.w3.org/1999/xlink" x="0px" y="0px"
	 width="293.089px" height="224.275px" viewBox="0 0 293.089 224.275" enable-background="new 0 0 293.089 224.275"
	 xml:space="preserve">
<g>
	<path fill="#1F3043" d="M169.05,162.478c-5.135,2.72-10.915,3.043-15.876,6.157c-2.635,1.641-8.106,3.759-6.914,7.851
		c1.366,4.691,8.311,4.044,11.943,4.548c4.285,0.597,11.38,2.444,14.353,5.823c2.479,2.802,0.512,6.152,2.172,8.807
		c2.299,3.664,6.118,0.743,6.617-2.211c1.167-6.819-6.953-10.852-12.214-13.202c-5.79-2.583-11.546-3.65-17.442-5.31
		c2.404-2.653,6.212-4.836,9.396-6.252c2.387-1.064,9.003-2.875,9.081-5.736"/>
	<path fill="#1F3043" d="M228.119,179.68c3.959-0.488,37.342-6.142,38.773-6.349c5.387-0.776,15.158-2.549,15.832-1.472
		c1.307,2.08,4.594,8.143,5.398,10.439c0.171,0.501,2.21,4.944,4.172,4.113c1.942-0.82-0.198-8.032-0.853-10.908
		c-0.76-3.279-0.483-9.577-4.761-9.578c-3.255-0.002-14.47,2.989-17.423,3.36c-3.499,0.44-36.253,5.679-39.718,6.155
		c-0.174,0.869-0.389,1.705-0.668,2.472C228.656,178.501,228.404,179.092,228.119,179.68z"/>
	<path fill="#EE363A" d="M198.109,161.63c7.008,1.012,22.906-3.431,28.84,2.12c10.242,9.582-2.804,25.797-12.027,29.446
		c-3.489,1.381-7.559,2.099-11.317,2.044c-14.468-0.213-33.741-13.325-35.442-28.569c-0.618-5.53,2.668-12.7,7.641-15.235
		C180.93,148.824,192.236,160.782,198.109,161.63z"/>
	<path fill="#1F3043" d="M258.12,151.38c-2.272,0.778-8.267,4-10.335,5.286c-1.063,0.661-0.952,10.273-0.929,15.655
		c0.016,3.29,4.531,18.831-2.887,18.317s-25.017-1.656-23.902-4.615c0.457-1.211,2.922-1.14,3.902-1.134
		c4.301,0.026,10.555,2.047,14.794,2.666c1.36,0.198,4.757,0.691,4.788-2.47c-0.1-5.095-0.274-10.191-0.34-15.312
		c-0.035-2.93-1.277-13.827-1.262-17.032c0.018-4.235,6.236-3.936,9.477-4.664c2.845-0.635,9.977-2.717,10.775-0.792
		C263.014,149.225,258.616,151.211,258.12,151.38z"/>
	<path fill="#1F3043" d="M175.087,162.607c-3.224,5.006-7.674,15.416-14.264,26.401c-7.035,11.732-14.98,21.582-17.923,25.7
		c-1.873,2.62-6.473,11.006,1.346,9.352c1.733-0.369,7.757-9.151,7.757-9.151c5.719,0.186,7.658,3.244,10.069-0.195
		c1.373-1.958-9.104-5.279-4.51-13.837c4.019-7.489,17.088-24.516,22.873-33.691c0,0,1.197-3.429-0.958-5.584
		S175.087,162.607,175.087,162.607z"/>
	<g>
		<path fill="#EE363A" d="M185.885,53.914c-36.415-12.244-94.429,5.459-92.286,49.237c1.74,35.541,37.676,58.074,70.754,55.443
			c20.859-1.659,42.274-9.045,54.959-26.521c13.386-18.441,14.087-42.742-0.786-60.483C210.695,62.249,197.57,57.843,185.885,53.914
			z"/>
		<path fill="#FFFFFF" d="M214.886,119.56c-2.85,5.121-7.211,9.548-12.071,12.382c-11.514,6.713-24.489,10.115-37.789,10.303
			c-7.207,0.102-14.659-0.515-21.736-1.926c-10.927-2.18-22.192-5.764-30.372-13.664c-5.592-5.4-8.461-13.245-3.123-19.764
			c5.752-7.023,18.811,1.323,25.457,2.282c15.685,2.262,21.908,0.161,29.796-4.077c14.576-7.837,38.161-27.729,50.197-8.569
			C219.893,103.929,218.859,112.42,214.886,119.56z"/>
		<path fill="#1F3043" d="M179.376,126.528c0.491,2.573-1.189,5.055-3.763,5.548c-2.574,0.492-5.055-1.197-5.546-3.769
			c-0.491-2.569,1.192-5.052,3.767-5.544C176.409,122.271,178.885,123.959,179.376,126.528z"/>
		<path fill="#1F3043" d="M143.709,126.015c0.492,2.573-1.189,5.056-3.763,5.547c-2.575,0.492-5.054-1.196-5.546-3.768
			c-0.491-2.569,1.193-5.053,3.767-5.544C140.742,121.759,143.218,123.447,143.709,126.015z"/>
		<path fill="#1F3043" d="M174.595,74.92c4.819-10.471,24.652-22.865,33.689-27.191c7.074-3.385,15.852-3.21,23.51-3.827
			c3.666-0.289,24.499-1.183,21.824-8.61c-2.045-5.698-13.635-4.094-17.847-3.251c-15.161,3.044-28.573,9.588-41.742,17.617
			c-10.488,6.385-21.653,13.827-30.033,22.92c0,0-2.198,2.917,3.215,4.014C172.624,77.69,174.595,74.92,174.595,74.92z"/>
		<path fill="#1F3043" d="M151.059,69.049c0.325-11.523,13.703-30.705,20.316-38.231c5.178-5.89,13.32-9.173,20.122-12.747
			c3.259-1.705,22.07-10.703,16.693-16.484c-4.117-4.437-14.147,1.586-17.692,4.015c-12.751,8.751-22.517,20.032-31.477,32.584
			c-7.142,9.989-14.491,21.216-18.63,32.868c0,0,1.067,1.437,4.567,1.869C151.601,73.743,151.059,69.049,151.059,69.049z"/>
	</g>
</g>
<polygon fill="#E9E9E9" points="0,131.261 61,97.261 0,97.261 "/>
</svg>
