<?xml version="1.0" encoding="utf-8"?>
<!-- Generator: Adobe Illustrator 17.0.0, SVG Export Plug-In . SVG Version: 6.00 Build 0)  -->
<!DOCTYPE svg PUBLIC "-//W3C//DTD SVG 1.1//EN" "http://www.w3.org/Graphics/SVG/1.1/DTD/svg11.dtd">
<svg version="1.1" id="Layer_1" xmlns="http://www.w3.org/2000/svg" xmlns:xlink="http://www.w3.org/1999/xlink" x="0px" y="0px"
	 width="232.19px" height="225.505px" viewBox="0 55.394 232.19 225.505" enable-background="new 0 55.394 232.19 225.505"
	 xml:space="preserve">
<path fill="#1F3043" d="M152.06,197.757c5.513,1.674,17.929,3.219,23.345,5.3c2.873,1.098,8.592,2.114,8.212,6.319
	c-0.435,4.821-7.313,5.512-10.749,6.692c-4.047,1.398-10.596,4.539-12.843,8.386c-1.882,3.202,0.67,6.085-0.438,8.978
	c-1.541,3.996-5.805,1.888-6.853-0.889c-2.433-6.406,4.696-11.873,9.364-15.161c5.137-3.611,10.532-5.743,15.95-8.476
	c-2.844-2.122-6.959-3.52-10.325-4.29c-2.522-0.584-16.035-3.419-16.651-6.182L152.06,197.757z"/>
<path fill="#1F3043" d="M129.637,235.467c-0.002,6.798,1.377,13.432,2.168,20.209c0.352,3.022,3.309,14.508,3.279,17.835
	c-0.04,4.371-6.473,4.033-9.831,4.78c-2.944,0.645-10.335,2.767-11.155,0.774c-0.831-2.011,3.727-4.054,4.242-4.226
	c2.353-0.8,8.577-4.105,10.715-5.422c1.109-0.679-0.618-10.68-1.363-16.192c-0.459-3.393-5.188-21.406,2.3-18.457"/>
<path fill="#1F3043" d="M137.992,235.451c1.078,6.452,3.039,13.475,4.635,20.53c0.671,2.953,4,14.365,4.352,17.671
	c0.466,4.347,6.836,3.392,10.253,3.797c2.989,0.359,10.553,1.748,11.177-0.314c0.628-2.084-4.108-3.667-4.635-3.796
	c-2.419-0.563-8.936-3.245-11.197-4.346c-1.168-0.574-5.301-10.573-6.467-16.021c-1.478-6.9-3.32-21.03-7.679-17.994"/>
<path fill="#ED353A" d="M122.86,198.699c1.772-0.626,3.551-1.204,5.32-1.799c5.265-1.791,11.151-3.394,16.712-2.069
	c5.756,1.377,9.177,8.085,10.185,13.289c1.457,7.526-0.316,16.274-4.985,22.433c-4.082,5.383-13.155,8.423-19.592,7.74
	c-10.792-1.147-24.288-12.257-24.518-23.757c-0.091-4.567,3.527-9.195,7.313-11.528C116.295,201.159,119.547,199.857,122.86,198.699
	z"/>
<g>
	<path fill="#1F3043" d="M99.27,103.378c-8.239-5.677-18.381-9.555-27.801-12.719c-11.828-3.983-23.583-6.749-36.092-6.441
		c-3.476,0.087-12.909,0.893-13.505,5.756c-0.783,6.339,15.818,3.321,18.764,2.893c6.155-0.882,13.051-2.589,19.239-1.182
		c7.905,1.799,25.774,8.034,31.45,15.436"/>
	<path fill="#1F3043" d="M110.819,100.298c-5.35-8.455-13.156-16.002-20.579-22.608c-9.317-8.305-19.041-15.462-30.668-20.089
		c-3.232-1.284-12.225-4.245-14.681-0.006c-3.209,5.523,13.246,9.262,16.122,10.025c6.008,1.604,13.021,2.74,18.161,6.463
		c6.565,4.757,20.553,17.505,22.869,26.54"/>
	<path fill="#ED353A" d="M85.626,100.924c27.064-10.906,77.594-15.349,88.272,22.056c6.061,21.232,1.195,39.46-15.018,55.847
		c-4.409,4.457-10.026,8.727-15.643,11.552c-23.262,11.701-57.287,10.621-78.426-4.507c-22.052-15.79-29.602-46.191-9.007-66.491
		C64.212,111.095,74.686,105.333,85.626,100.924z"/>
	<path fill="#FFFFFF" d="M55.742,134.074c5.68-12.605,19.081-16.214,30.95-20.149c21.645-7.176,51.132-23.168,70.12-1.61
		c2.734,3.104,7.472,12.424,5.018,16.743c-4.475,7.877-18.724,1.866-25.422,2.042c-15.809,0.415-21.576,3.529-28.621,9.026
		c-13.018,10.162-32.867,33.699-47.93,16.878C53.44,149.84,52.484,141.266,55.742,134.074z"/>
	<path fill="#1F3043" d="M88.161,137.817c0,2.512,2.03,4.549,4.544,4.549c2.514,0,4.548-2.037,4.548-4.549
		c0-2.509-2.033-4.546-4.548-4.546C90.191,133.27,88.161,135.307,88.161,137.817z"/>
	<path fill="#1F3043" d="M131.109,122.978c0,2.513,2.03,4.549,4.544,4.549c2.515,0,4.548-2.037,4.548-4.549
		c0-2.509-2.033-4.546-4.548-4.546C133.138,118.433,131.109,120.47,131.109,122.978z"/>
</g>
<path fill="#1F3043" d="M108.007,206.458c-5.544,1.797-11.31,1.109-16.746,3.32c-2.887,1.166-8.656,2.303-8.185,6.546
	c0.528,4.87,7.505,5.442,10.998,6.568c4.121,1.337,10.808,4.392,13.159,8.239c1.957,3.203-0.573,6.166,0.607,9.073
	c1.637,4.018,5.911,1.801,6.921-1.029c2.334-6.527-4.976-11.92-9.768-15.158c-5.263-3.554-10.764-5.611-16.291-8.269
	c2.835-2.205,6.974-3.697,10.361-4.541c2.543-0.64,9.385-1.275,9.955-4.086"/>
</svg>
