<?xml version="1.0" encoding="utf-8"?>
<!-- Generator: Adobe Illustrator 17.0.0, SVG Export Plug-In . SVG Version: 6.00 Build 0)  -->
<!DOCTYPE svg PUBLIC "-//W3C//DTD SVG 1.1//EN" "http://www.w3.org/Graphics/SVG/1.1/DTD/svg11.dtd">
<svg version="1.1" id="Layer_1" xmlns="http://www.w3.org/2000/svg" xmlns:xlink="http://www.w3.org/1999/xlink" x="0px" y="0px"
	 width="232.19px" height="226.757px" viewBox="0 53.729 232.19 226.757" enable-background="new 0 53.729 232.19 226.757"
	 xml:space="preserve">
<g>
	<path fill="#1F3043" d="M65.402,210.339c-5.159,1.71-16.831,3.464-21.889,5.555c-2.683,1.105-8.052,2.199-7.593,6.156
		c0.526,4.535,7.028,5.023,10.297,6.054c3.851,1.221,10.101,4.028,12.312,7.602c1.851,2.974-0.486,5.754,0.627,8.456
		c1.548,3.732,5.52,1.642,6.442-1.002c2.141-6.1-4.711-11.085-9.192-14.074c-4.93-3.282-10.07-5.164-15.244-7.611
		c2.631-2.07,6.478-3.486,9.635-4.293c2.363-0.611,15.04-3.607,15.555-6.227"/>
	<path fill="#1F3043" d="M86.577,235.984c0.002,6.413-1.299,12.671-2.045,19.064c-0.332,2.851-3.122,13.687-3.093,16.825
		c0.037,4.124,6.107,3.804,9.274,4.509c2.777,0.608,9.749,2.61,10.523,0.73c0.784-1.898-3.516-3.825-4.001-3.986
		c-2.22-0.755-8.092-3.873-10.109-5.115c-1.046-0.641,0.583-10.074,1.287-15.275c0.433-3.201,4.893-20.194-2.17-17.412"/>
	<path fill="#1F3043" d="M78.695,235.969c-1.016,6.086-2.867,12.711-4.373,19.368c-0.632,2.785-3.773,13.551-4.105,16.669
		c-0.44,4.101-6.449,3.2-9.672,3.582c-2.819,0.339-9.955,1.649-10.543-0.297c-0.593-1.966,3.874-3.459,4.372-3.58
		c2.282-0.531,8.431-3.061,10.562-4.101c1.102-0.542,5.001-9.973,6.101-15.113c1.393-6.509,3.132-19.839,7.243-16.974"/>
	<path fill="#ED353A" d="M90.236,209.771c-1.577-0.557-3.159-1.071-4.732-1.6c-4.684-1.593-9.921-3.019-14.868-1.84
		c-5.12,1.225-8.164,7.193-9.061,11.822c-1.296,6.696,0.281,14.478,4.435,19.956c3.632,4.788,11.703,7.494,17.429,6.885
		c9.599-1.02,21.607-10.904,21.811-21.134c0.081-4.063-3.137-8.18-6.506-10.255C96.075,211.959,93.182,210.801,90.236,209.771z"/>
	<path fill="#CDCCCB" d="M115.239,218.964c0,2.819-0.249,5.181-0.681,7.475c-0.642,3.399-1.22,6.706-2.201,10.04
		c-1.352,4.596-2.021,9.284-3.753,13.478c-3.353,0-6.911-1.9-9.997-2.072c-4.301-0.239-8.592-0.553-12.941-0.739
		c-0.479-5.301,1.625-26.585,2.737-29.905C89.895,212.79,108.437,218.226,115.239,218.964z"/>
	<g>
		<path fill="#ED353A" d="M124.936,94.565c-2.227-0.956-4.46-1.809-6.675-2.529c-17.923-5.821-37.227-10.073-55.918-5.458
			c-12.524,3.091-29.467,12.417-36.656,23.628c-6.107,9.523-8.364,20.641-7.596,31.85c1.68,24.539,16.151,48.551,38.308,59.698
			c27.289,13.728,67.206,12.461,92.007-5.287c13.557-9.703,25.978-31.749,25.063-48.488c-0.986-18.032-13.954-32.735-28.363-42.276
			C138.979,101.647,131.989,97.593,124.936,94.565z"/>
		<path fill="#FFFFFF" d="M43.753,171.658c7.998,11.658,22.907,13.864,35.944,14.975c12.591,1.078,25.179,3.079,37.831,3.209
			c10.87,0.11,23.6-2.928,31.451-10.981c4.23-4.337,9.945-16.269,5.386-21.748c-6.093-7.312-19.705,1.554-26.665,2.618
			c-17.75,2.714-35.439-3.396-50.867-11.723c-10.773-5.814-24.432-14.862-33.089-0.821C38.44,155.787,39.047,164.829,43.753,171.658
			z"/>
		<path fill="#1F3043" d="M122.123,179.783c0,2.947-2.381,5.337-5.331,5.337s-5.335-2.39-5.335-5.337
			c0-2.944,2.385-5.334,5.335-5.334S122.123,176.839,122.123,179.783z"/>
		<path fill="#1F3043" d="M89.38,174.448c0,2.947-2.382,5.337-5.331,5.337c-2.95,0-5.336-2.389-5.336-5.337
			c0-2.944,2.385-5.334,5.336-5.334C86.998,169.114,89.38,171.504,89.38,174.448z"/>
		<path fill="#1F3043" d="M119.95,118.185c6.659-8.684,27.621-15.999,36.896-18.11c7.26-1.65,15.35,0.353,22.57,1.388
			c3.456,0.501,22.931,4.043,22.012-3.394c-0.7-5.705-11.766-6.65-15.843-6.753c-14.676-0.361-28.466,2.884-42.343,7.557
			c-11.049,3.712-22.948,8.261-32.614,14.922c0,0-2.647,2.24,2.135,4.391C117.544,120.336,119.95,118.185,119.95,118.185z"/>
		<path fill="#1F3043" d="M89.574,106.789c2.717-10.601,19.127-25.555,26.829-31.136c6.03-4.367,14.256-5.7,21.305-7.582
			c3.374-0.895,22.678-5.281,18.913-11.761c-2.881-4.972-13.43-1.499-17.223,0.007c-13.64,5.428-25.049,13.824-35.978,23.567
			c-8.708,7.751-17.866,16.605-24.143,26.524c0,0,0.687,1.555,3.836,2.688C89.092,111.249,89.574,106.789,89.574,106.789z"/>
	</g>
	<path fill="#1F3043" d="M116.487,224.857c-1.287-0.93-3.321-0.457-4.713,0.364c-1.144,0.674-1.444,1.972-1.513,3.207
		c-0.114,2.025-0.42,4.034-0.523,6.057c-0.062,1.173-0.22,3.19,1.337,3.496c1.032,0.205,2.05-0.515,2.954-0.906
		c0.872-0.376,1.876-0.69,2.512-1.438c0.689-0.809,0.935-2.177,1.148-3.179C118.187,230.128,118.768,226.501,116.487,224.857z"/>
	<path fill="#6E6E71" d="M94.461,218.084c1.713,0.231,3.844,0.416,5.314,0.602c1.617,0.205,3.163,0.531,4.711,0.987
		c2.091,0.619,4.434,0.966,6.927,1.468c0.472-1.255,1.097-3.394,0.008-4.186c-1.294-0.942-3.632-0.712-5.322-0.772
		c0.319-1.687,0.64-3.721-1.352-4.063c-2.446-0.42-2.317,0.79-2.366,2.775c-2.441-0.47-6.011-1.357-6.895-1.322
		C94.605,213.607,94.461,216.307,94.461,218.084z M103.243,214.329c0-0.538,0.436-0.974,0.973-0.974
		c0.539,0,0.974,0.435,0.974,0.974c0,0.537-0.435,0.973-0.974,0.973C103.679,215.302,103.243,214.866,103.243,214.329z"/>
</g>
</svg>
