<?xml version="1.0" encoding="utf-8"?>
<!-- Generator: Adobe Illustrator 17.0.0, SVG Export Plug-In . SVG Version: 6.00 Build 0)  -->
<!DOCTYPE svg PUBLIC "-//W3C//DTD SVG 1.1//EN" "http://www.w3.org/Graphics/SVG/1.1/DTD/svg11.dtd">
<svg version="1.1" id="Layer_1" xmlns="http://www.w3.org/2000/svg" xmlns:xlink="http://www.w3.org/1999/xlink" x="0px" y="0px"
	 width="51.893px" height="65.709px" viewBox="0 0 51.893 65.709" enable-background="new 0 0 51.893 65.709" xml:space="preserve">
<g>
	<path fill="#1F3043" d="M27.213,29.032c-0.82-3.66-2.589-7.024-4.299-10.333c-1.654-3.21-3.44-6.426-5.944-9.061
		c-1.354-1.423-3.03-2.81-4.952-3.363c-0.96-0.277-2.729-0.457-2.524,1.017c0.441,3.171,4.7,4.25,6.847,5.918
		c2.726,2.116,4.92,4.621,6.415,7.746c1.045,2.186,1.574,4.67,1.35,7.093"/>
	<path fill="#1F3043" d="M33.792,30.258c1.176-3.699,1.469-7.901,1.579-11.753c0.14-4.84-0.16-9.514-1.689-14.122
		c-0.425-1.279-1.79-4.688-3.661-4.361c-2.441,0.426,0.556,6.246,1.046,7.29c1.022,2.185,2.436,4.55,2.613,7.006
		c0.225,3.136-0.07,10.471-2.175,13.415"/>
	<path fill="#EE363A" d="M44.453,30.453c-3.907-2.393-8.43-3.321-12.955-3.909c-1.532-0.198-3.064-0.358-4.57-0.52
		c-6.091-0.662-12.459-0.817-18.209,1.631c-4.09,1.742-6.381,6.103-7.811,10.124c-1.253,3.524-1.146,7.275-0.06,10.827
		c2.38,7.777,8.839,14.425,16.811,16.355c9.817,2.377,22.576-1.023,29.234-8.596C53.837,48.463,54.018,36.311,44.453,30.453z
		 M45.118,43.149c-3.641,6.632-12.29,8.476-19.172,8.108c-1.632-0.088-3.291-0.298-4.89-0.638c-1.885-0.403-3.848-1.126-5.612-1.896
		c-3.09-1.345-5.948-3.583-6.979-6.918c-2.32-7.543,5.425-11.263,11.572-11.508c4.181-0.169,8.371,0.282,12.548,0.427
		c4.323,0.149,9.283,0.629,12.121,4.344C46.373,37.244,46.725,40.219,45.118,43.149z"/>
	<circle fill="#1F3043" cx="35.402" cy="38.155" r="1.812"/>
	<circle fill="#1F3043" cx="19.328" cy="38.246" r="1.811"/>
</g>
</svg>
