<?xml version="1.0" encoding="utf-8"?>
<!-- Generator: Adobe Illustrator 17.0.0, SVG Export Plug-In . SVG Version: 6.00 Build 0)  -->
<!DOCTYPE svg PUBLIC "-//W3C//DTD SVG 1.1//EN" "http://www.w3.org/Graphics/SVG/1.1/DTD/svg11.dtd">
<svg version="1.1" id="Layer_1" xmlns="http://www.w3.org/2000/svg" xmlns:xlink="http://www.w3.org/1999/xlink" x="0px" y="0px"
	 width="230.948px" height="219.039px" viewBox="0.621 30.723 230.948 219.039"
	 enable-background="new 0.621 30.723 230.948 219.039" xml:space="preserve">
<g>
	<g>
		<path fill="#1F3043" d="M50.977,73.736c-4.933-5.032-11.087-8.648-17.09-12.241c-5.818-3.486-11.852-6.855-18.461-8.584
			c-3.567-0.933-7.621-1.485-11.233-0.465c-1.805,0.508-4.809,1.97-3.026,4.122c3.842,4.625,11.709,2.131,16.79,2.67
			c6.445,0.681,12.434,2.507,17.906,6.016c3.832,2.459,7.135,5.9,9.18,9.991"/>
		<path fill="#1F3043" d="M65.857,73.073c-2.357-6.898-6.614-13.568-10.748-19.51c-5.192-7.463-10.871-14.186-18.326-19.44
			c-2.072-1.455-7.94-5.078-10.402-2.495c-3.209,3.372,7.819,8.811,9.726,9.841c3.983,2.156,8.762,4.149,11.773,7.658
			c3.847,4.486,11.592,15.892,11.705,22.692"/>
		<path fill="#EE363A" d="M75.751,71.539c-2.871-0.386-5.749-0.702-8.577-1.024c-11.435-1.308-23.394-1.666-34.221,2.87
			c-7.704,3.229-12.05,11.394-14.778,18.933c-2.389,6.609-2.23,13.655-0.226,20.34c4.386,14.63,16.449,27.186,31.403,30.896
			c18.414,4.567,42.416-1.683,55.003-15.837c13.131-14.772,13.597-37.593-4.313-48.697C92.732,74.481,84.245,72.691,75.751,71.539z"
			/>
		<path fill="#FFFFFF" d="M100.476,87.686c-5.294-7.006-14.605-7.959-22.725-8.287c-7.844-0.318-15.708-1.206-23.563-0.933
			c-9.235,0.317-20.782,4.64-22.422,14.925c-1.295,8.102,1.925,18.461,8.915,23.034c9.845,6.443,23.119-0.199,33.373-3.236
			c9.228-2.733,21.512-1.358,27.108-10.318C104.489,97.549,103.579,91.798,100.476,87.686z"/>
		<circle fill="#1F3043" cx="62.033" cy="93.391" r="3.402"/>
		<path fill="#1F3043" d="M92.228,93.391c0,1.879-1.52,3.402-3.405,3.402c-1.879,0-3.399-1.523-3.399-3.402
			c0-1.879,1.521-3.402,3.399-3.402C90.708,89.99,92.228,91.513,92.228,93.391z"/>
	</g>
</g>
<g>
	<path fill="#1F3043" d="M178.587,100.802c0.058-6.875-1.705-13.615-3.382-20.235c-1.619-6.418-3.472-12.901-6.848-18.645
		c-1.826-3.101-4.243-6.276-7.446-8.06c-1.599-0.893-4.682-1.95-4.931,0.767c-0.528,5.842,6.628,9.538,9.769,13.408
		c3.988,4.909,6.867,10.293,8.235,16.493c0.958,4.338,0.873,8.991-0.535,13.225"/>
	<path fill="#1F3043" d="M184.752,102.073c3.732-6.057,9.218-11.49,14.439-16.251c6.553-5.985,13.407-11.157,21.634-14.545
		c2.285-0.94,8.654-3.122,10.438-0.13c2.328,3.9-9.339,6.699-11.378,7.266c-4.257,1.192-9.233,2.059-12.856,4.75
		c-4.627,3.439-14.464,12.622-16.033,19.066"/>
	<path fill="#EE363A" d="M190.003,96.097c-2.656-0.986-5.321-1.909-7.946-2.825c-10.599-3.713-21.904-6.634-33.186-4.653
		c-8.026,1.412-13.925,8.245-18.149,14.832c-3.701,5.772-5.069,12.511-4.604,19.305c1.018,14.873,9.789,29.427,23.219,36.183
		c16.54,8.32,40.734,7.553,55.766-3.205c15.68-11.227,21.048-32.844,6.405-47.279C205.527,102.562,197.835,99.027,190.003,96.097z"
		/>
	<path fill="#FFFFFF" d="M207.313,118.842c-3.521-7.812-12.178-10.728-19.835-12.79c-7.395-1.994-14.689-4.539-22.223-5.974
		c-6.472-1.232-14.393-0.786-19.939,3.175c-2.989,2.134-7.68,8.638-5.547,12.395c2.849,5.015,11.921,1.188,16.186,1.301
		c10.065,0.263,13.736,2.247,18.223,5.747c8.287,6.47,20.924,21.455,30.515,10.745C208.779,128.88,209.387,123.421,207.313,118.842z
		"/>
	<path fill="#1F3043" d="M160.332,110.156c-1.305-1.065-3.143-1.35-4.705-0.704c-1.108,0.464-2.911,1.707-1.206,2.763
		c1.284,0.796,3.349,0.719,4.785,0.689c1.863-0.041,2.785-1.35,1.181-2.704C160.369,110.185,160.349,110.173,160.332,110.156z"/>
	<circle fill="#1F3043" cx="185.267" cy="121.565" r="3.233"/>
</g>
<g>
	<g>
		<path fill="#1F3043" d="M96.294,181.305c-0.617-7.183,0.681-14.367,1.895-21.426c1.174-6.839,2.584-13.769,5.649-20.052
			c1.656-3.39,3.93-6.901,7.129-9.03c1.599-1.059,4.736-2.415,5.216,0.402c1.027,6.068-6.152,10.511-9.123,14.811
			c-3.771,5.456-6.344,11.322-7.27,17.915c-0.649,4.61-0.18,9.47,1.631,13.781"/>
		<path fill="#1F3043" d="M89.957,183.137c-4.391-6.029-10.572-11.262-16.412-15.818c-7.338-5.722-14.923-10.574-23.797-13.448
			c-2.469-0.8-9.3-2.561-10.926,0.707c-2.112,4.27,10.31,6.246,12.487,6.676c4.547,0.9,9.819,1.4,13.827,3.922
			c5.117,3.216,16.144,12.021,18.308,18.634"/>
		<path fill="#EE363A" d="M87.006,179.229c2.689-1.248,5.405-2.43,8.075-3.597c10.777-4.739,22.357-8.717,34.315-7.557
			c8.509,0.823,15.228,7.485,20.179,14.028c4.336,5.734,6.312,12.672,6.381,19.81c0.141,15.632-7.845,31.558-21.338,39.712
			c-16.615,10.04-41.969,11.202-58.556,1.179c-17.306-10.464-24.674-32.63-10.535-48.91
			C71.301,187.247,79.055,182.927,87.006,179.229z"/>
		<path fill="#FFFFFF" d="M99.582,196.778c2.567-3.386,4.98-6.878,7.4-10.758c3.161-5.073,7.452-9.121,13.511-10.446
			c11.553-2.524,25.201,3.723,25.319,18.889c0.056,7.269-7.537,11.37-12.866,14.742c-9.279,5.872-19.078,10.906-29.022,15.55
			c-5.433,2.536-19.749,6.458-21.163-1.927C82.294,220.053,94.693,203.227,99.582,196.778z"/>
		<path fill="#1F3043" d="M128.185,188.276c0.569,1.836,2.338,2.925,3.95,2.425c1.611-0.499,2.455-2.397,1.886-4.233
			c-0.569-1.837-2.336-2.918-3.947-2.419C128.462,184.548,127.616,186.439,128.185,188.276z"/>
		
			<ellipse transform="matrix(-0.9552 0.296 -0.296 -0.9552 278.9091 355.6087)" fill="#1F3043" cx="112.539" cy="198.915" rx="3.054" ry="3.485"/>
	</g>
</g>
</svg>
