<?xml version="1.0" encoding="utf-8"?>
<!-- Generator: Adobe Illustrator 17.0.0, SVG Export Plug-In . SVG Version: 6.00 Build 0)  -->
<!DOCTYPE svg PUBLIC "-//W3C//DTD SVG 1.1//EN" "http://www.w3.org/Graphics/SVG/1.1/DTD/svg11.dtd">
<svg version="1.1" id="Layer_1" xmlns="http://www.w3.org/2000/svg" xmlns:xlink="http://www.w3.org/1999/xlink" x="0px" y="0px"
	 width="64.015px" height="58.878px" viewBox="0 0 64.015 58.878" enable-background="new 0 0 64.015 58.878" xml:space="preserve">
<g>
	<g>
		<path fill="#F24E4A" d="M25.76,28.889c0.201-0.902-0.07-1.872,0.138-2.772c0.017-0.075,0.043-0.144,0.069-0.21
			c0.822-0.494,1.58-1.058,2.259-1.682c0.233,0.058,0.467,0.117,0.699,0.182c1.045,0.291,1.408,0.763,2.37,0.193
			c0.927-0.55,3.554-3.628,3.206-4.595c-0.225-0.625-1.677-1.455-2.7-2.074c0.173-1.023,0.186-2.074-0.001-3.132
			c-0.039-0.224-0.085-0.451-0.137-0.678c0.496-0.35,1.017-0.672,1.571-0.933c1.284-0.609,2.21-0.769,2.03-2.216
			c-0.111-0.905-0.551-2.029-1.172-2.763c-0.859-1.013-1.872-0.699-3.165-0.618c-0.734,0.046-1.441,0.408-2.219,0.24
			c-0.603-0.789-1.285-1.52-2.037-2.168c0.652-0.99,1.401-2.054,1.012-2.997c-0.421-1.023-2.292-2.452-3.547-1.809
			c-1.078,0.551-1.933,1.409-2.832,2.181c-0.868-0.157-1.782-0.209-2.74-0.137c-0.903-1.915-1.467-3.289-4.516-2.802
			c-1.91,0.305-1.452,1.409-1.114,2.842c0.135,0.569,0.3,1.135,0.464,1.7C12.67,5.1,11.99,5.629,11.373,6.206
			C10.259,5.807,8.885,5.132,7.716,5.17C6.12,5.221,6.072,6.426,5.882,7.553C5.71,8.579,4.893,9.552,4.796,10.559
			c-0.1,1.033,1.152,1.595,2.097,2.342c0.17,0.134,0.365,0.264,0.563,0.396c-0.17,0.675-0.3,1.361-0.378,2.048
			c-0.773,0.681-1.539,1.244-2.463,1.817c-1.178,0.733-0.97,1.018-0.533,2.218c0.241,0.663,0.352,2.086,0.772,2.622
			c0.467,0.593,0.442,0.389,1.279,0.368c0.838-0.02,1.69-0.089,2.546-0.153c0.399,0.603,0.857,1.174,1.352,1.671
			c0.012,0.373,0.03,0.745,0.042,1.12c0.022,0.67-0.275,1.472-0.069,2.126c0.4,1.265,3.242,2.854,4.644,2.084
			c0.852-0.468,1.881-1.119,2.704-1.727c0.658,0.112,1.321,0.176,1.99,0.188c0.154,0.353,0.282,0.717,0.409,1.095
			c0.319,0.954,0.301,1.999,1.311,2.1C22.4,31.01,25.471,30.187,25.76,28.889z M16.216,22.5c-4.035-2.071-4.945-6.518-3.564-9.846
			c2.226-5.364,9.141-6.959,12.886-2.113c1.341,1.736,1.904,5.49,0.988,7.99C25.381,21.655,20.479,24.688,16.216,22.5z"/>
		<path fill="#BCBEC0" d="M20.813,12.001c-1.965-0.397-5.432,0.895-4.986,3.915c0.243,1.645,2.246,3.099,3.744,3.385
			c2.17,0.414,3.498-1.45,3.69-3.463C23.361,14.798,22.778,12.398,20.813,12.001z"/>
	</g>
	<g>
		<path fill="#F24E4A" d="M52.833,56.531c0.236-1.058-0.082-2.198,0.162-3.254c0.02-0.088,0.05-0.169,0.081-0.246
			c0.965-0.58,1.854-1.242,2.652-1.974c0.273,0.068,0.549,0.137,0.82,0.213c1.227,0.342,1.653,0.895,2.781,0.226
			c1.088-0.646,4.171-4.259,3.763-5.394c-0.264-0.733-1.968-1.707-3.169-2.434c0.203-1.201,0.219-2.435-0.001-3.675
			c-0.046-0.263-0.099-0.529-0.16-0.796c0.582-0.41,1.193-0.788,1.844-1.095c1.507-0.715,2.594-0.902,2.383-2.601
			c-0.13-1.062-0.646-2.381-1.376-3.243c-1.008-1.188-2.198-0.821-3.715-0.726c-0.861,0.053-1.691,0.479-2.604,0.282
			c-0.708-0.926-1.508-1.784-2.39-2.545c0.766-1.161,1.645-2.411,1.188-3.518c-0.494-1.2-2.689-2.878-4.163-2.123
			c-1.265,0.647-2.269,1.653-3.324,2.56c-1.019-0.184-2.091-0.245-3.215-0.161c-1.06-2.247-1.721-3.86-5.3-3.289
			c-2.242,0.358-1.704,1.654-1.308,3.335c0.158,0.668,0.352,1.332,0.544,1.996c-0.854,0.539-1.652,1.16-2.377,1.837
			c-1.308-0.469-2.921-1.26-4.293-1.216c-1.872,0.06-1.93,1.475-2.152,2.798c-0.202,1.204-1.161,2.345-1.275,3.528
			c-0.117,1.213,1.352,1.872,2.461,2.748c0.2,0.158,0.429,0.31,0.661,0.465c-0.199,0.792-0.352,1.597-0.444,2.404
			c-0.907,0.799-1.807,1.46-2.89,2.133c-1.383,0.86-1.139,1.194-0.626,2.604c0.283,0.778,0.413,2.449,0.906,3.077
			c0.548,0.696,0.518,0.456,1.5,0.432c0.984-0.023,1.983-0.105,2.988-0.18c0.468,0.708,1.006,1.378,1.586,1.961
			c0.014,0.437,0.035,0.875,0.05,1.314c0.026,0.787-0.322,1.728-0.082,2.495c0.469,1.485,3.805,3.35,5.451,2.446
			c1-0.549,2.207-1.313,3.173-2.027c0.772,0.131,1.551,0.206,2.335,0.221c0.181,0.414,0.332,0.842,0.48,1.285
			c0.374,1.119,0.354,2.346,1.539,2.465C48.89,59.02,52.494,58.054,52.833,56.531z M41.632,49.033
			c-4.736-2.43-5.804-7.651-4.183-11.556c2.613-6.296,10.729-8.168,15.124-2.48c1.574,2.037,2.235,6.443,1.16,9.377
			C52.389,48.041,46.635,51.6,41.632,49.033z"/>
		<path fill="#BCBEC0" d="M47.027,36.709c-2.307-0.466-6.376,1.05-5.851,4.595c0.285,1.93,2.635,3.638,4.394,3.973
			c2.547,0.486,4.106-1.702,4.331-4.065C50.018,39.992,49.334,37.175,47.027,36.709z"/>
	</g>
	<g>
		<path fill="#F24E4A" d="M17.303,54.075c0.158-0.708-0.055-1.471,0.109-2.178c0.014-0.059,0.033-0.113,0.054-0.165
			c0.646-0.388,1.241-0.831,1.775-1.321c0.183,0.046,0.367,0.092,0.549,0.143c0.821,0.229,1.107,0.599,1.862,0.151
			c0.728-0.432,2.792-2.851,2.519-3.611c-0.177-0.491-1.318-1.143-2.122-1.629c0.136-0.804,0.146-1.63-0.001-2.46
			c-0.031-0.176-0.066-0.354-0.107-0.533c0.39-0.275,0.799-0.528,1.234-0.733c1.009-0.479,1.736-0.604,1.595-1.741
			c-0.087-0.711-0.433-1.594-0.921-2.171c-0.675-0.796-1.471-0.549-2.487-0.486c-0.576,0.036-1.132,0.321-1.743,0.189
			c-0.474-0.62-1.009-1.194-1.6-1.703c0.513-0.778,1.101-1.614,0.795-2.355c-0.331-0.803-1.8-1.927-2.787-1.421
			c-0.847,0.433-1.519,1.107-2.225,1.714c-0.682-0.123-1.4-0.164-2.152-0.108c-0.71-1.505-1.152-2.584-3.548-2.202
			c-1.501,0.24-1.141,1.107-0.876,2.233c0.106,0.447,0.236,0.892,0.364,1.336C7.019,35.384,6.485,35.8,6,36.253
			c-0.876-0.314-1.955-0.843-2.874-0.814c-1.254,0.04-1.292,0.987-1.441,1.873c-0.135,0.806-0.777,1.57-0.854,2.361
			c-0.078,0.812,0.905,1.253,1.648,1.84c0.134,0.106,0.287,0.208,0.443,0.311c-0.133,0.53-0.236,1.069-0.297,1.609
			c-0.607,0.535-1.209,0.977-1.935,1.428c-0.926,0.576-0.762,0.8-0.419,1.743c0.19,0.521,0.276,1.639,0.607,2.06
			c0.367,0.466,0.347,0.305,1.005,0.289s1.327-0.07,2-0.12c0.313,0.474,0.673,0.922,1.062,1.313c0.01,0.293,0.023,0.585,0.033,0.88
			c0.018,0.527-0.216,1.157-0.055,1.67c0.314,0.994,2.547,2.243,3.649,1.638c0.67-0.367,1.477-0.879,2.124-1.356
			c0.517,0.088,1.038,0.138,1.563,0.148c0.121,0.277,0.222,0.563,0.321,0.86c0.25,0.749,0.237,1.571,1.03,1.65
			C14.663,55.741,17.075,55.094,17.303,54.075z M9.805,49.055c-3.17-1.627-3.885-5.121-2.8-7.735
			c1.749-4.215,7.182-5.468,10.124-1.66c1.054,1.364,1.496,4.313,0.777,6.277C17.005,48.391,13.154,50.774,9.805,49.055z"/>
		<path fill="#BCBEC0" d="M13.416,40.806c-1.544-0.312-4.268,0.703-3.917,3.076c0.191,1.292,1.764,2.435,2.941,2.66
			c1.705,0.325,2.748-1.139,2.899-2.721C15.418,43.003,14.96,41.118,13.416,40.806z"/>
	</g>
</g>
</svg>
