<?xml version="1.0" encoding="utf-8"?>
<!-- Generator: Adobe Illustrator 17.0.0, SVG Export Plug-In . SVG Version: 6.00 Build 0)  -->
<!DOCTYPE svg PUBLIC "-//W3C//DTD SVG 1.1//EN" "http://www.w3.org/Graphics/SVG/1.1/DTD/svg11.dtd">
<svg version="1.1" id="Layer_1" xmlns="http://www.w3.org/2000/svg" xmlns:xlink="http://www.w3.org/1999/xlink" x="0px" y="0px"
	 width="64.015px" height="58.878px" viewBox="0 0 64.015 58.878" enable-background="new 0 0 64.015 58.878" xml:space="preserve">
<g>
	<g>
		<path fill="#F24E4A" d="M39.15,45.688c0.236-1.058-0.082-2.198,0.162-3.254c0.02-0.088,0.05-0.169,0.081-0.246
			c0.965-0.58,1.854-1.242,2.652-1.974c0.273,0.068,0.549,0.137,0.82,0.213c1.227,0.342,1.653,0.895,2.781,0.226
			c1.088-0.646,4.171-4.259,3.763-5.394c-0.264-0.733-1.969-1.707-3.169-2.434c0.203-1.201,0.218-2.435-0.001-3.675
			c-0.046-0.263-0.099-0.53-0.16-0.796c0.582-0.41,1.193-0.788,1.844-1.095c1.507-0.715,2.594-0.902,2.383-2.601
			c-0.13-1.062-0.646-2.381-1.376-3.242c-1.008-1.189-2.198-0.821-3.715-0.726c-0.861,0.053-1.691,0.479-2.604,0.282
			c-0.708-0.926-1.508-1.784-2.39-2.545c0.766-1.161,1.645-2.411,1.188-3.518c-0.494-1.2-2.689-2.878-4.163-2.123
			c-1.265,0.647-2.269,1.653-3.324,2.56c-1.019-0.184-2.091-0.246-3.215-0.161c-1.06-2.248-1.721-3.86-5.3-3.289
			c-2.242,0.358-1.705,1.654-1.308,3.335c0.158,0.668,0.352,1.332,0.544,1.996c-0.854,0.539-1.652,1.16-2.377,1.837
			c-1.308-0.469-2.921-1.26-4.293-1.216c-1.873,0.06-1.93,1.475-2.152,2.798c-0.202,1.203-1.161,2.345-1.275,3.528
			c-0.117,1.213,1.352,1.872,2.461,2.748c0.2,0.158,0.429,0.31,0.661,0.465c-0.199,0.792-0.352,1.598-0.444,2.404
			c-0.907,0.799-1.807,1.46-2.89,2.133c-1.383,0.86-1.139,1.194-0.626,2.604c0.283,0.778,0.413,2.449,0.906,3.077
			c0.548,0.696,0.518,0.456,1.501,0.432c0.984-0.023,1.983-0.105,2.988-0.18c0.468,0.708,1.006,1.378,1.586,1.961
			c0.014,0.437,0.035,0.875,0.05,1.314c0.026,0.787-0.322,1.728-0.081,2.495c0.469,1.485,3.805,3.35,5.451,2.446
			c1-0.549,2.207-1.313,3.173-2.027c0.772,0.131,1.551,0.206,2.335,0.221c0.181,0.414,0.332,0.842,0.48,1.285
			c0.374,1.119,0.354,2.346,1.539,2.465C35.207,48.177,38.811,47.211,39.15,45.688z M27.949,38.19
			c-4.736-2.43-5.804-7.65-4.183-11.556c2.613-6.296,10.729-8.168,15.124-2.481c1.574,2.037,2.235,6.443,1.16,9.377
			C38.706,37.198,32.952,40.757,27.949,38.19z"/>
		<path fill="#BCBEC0" d="M33.345,25.867c-2.307-0.466-6.376,1.05-5.851,4.595c0.285,1.93,2.635,3.638,4.394,3.973
			c2.547,0.486,4.106-1.702,4.331-4.065C36.335,29.149,35.651,26.332,33.345,25.867z"/>
	</g>
</g>
</svg>
