<?xml version="1.0" encoding="utf-8"?>
<!-- Generator: Adobe Illustrator 17.0.0, SVG Export Plug-In . SVG Version: 6.00 Build 0)  -->
<!DOCTYPE svg PUBLIC "-//W3C//DTD SVG 1.1//EN" "http://www.w3.org/Graphics/SVG/1.1/DTD/svg11.dtd">
<svg version="1.1" id="Layer_1" xmlns="http://www.w3.org/2000/svg" xmlns:xlink="http://www.w3.org/1999/xlink" x="0px" y="0px"
	 width="64.015px" height="58.878px" viewBox="0 0 64.015 58.878" enable-background="new 0 0 64.015 58.878" xml:space="preserve">
<g>
	<g>
		<path fill="#F24E4A" d="M50.251,38.718c0.236-1.058-0.082-2.198,0.162-3.254c0.02-0.088,0.05-0.169,0.081-0.246
			c0.965-0.58,1.854-1.242,2.652-1.974c0.273,0.068,0.549,0.137,0.82,0.213c1.227,0.342,1.653,0.895,2.781,0.226
			c1.088-0.646,4.171-4.259,3.763-5.394c-0.264-0.733-1.969-1.707-3.169-2.434c0.203-1.201,0.218-2.435-0.001-3.675
			c-0.046-0.263-0.099-0.53-0.16-0.796c0.582-0.411,1.193-0.788,1.844-1.095c1.507-0.715,2.593-0.902,2.383-2.601
			c-0.13-1.062-0.646-2.381-1.376-3.242c-1.008-1.189-2.198-0.821-3.715-0.726c-0.861,0.053-1.691,0.479-2.604,0.282
			c-0.708-0.926-1.508-1.784-2.39-2.545c0.766-1.161,1.645-2.411,1.188-3.518c-0.494-1.2-2.69-2.878-4.163-2.123
			c-1.265,0.647-2.269,1.653-3.324,2.56c-1.019-0.184-2.091-0.245-3.215-0.161c-1.06-2.248-1.721-3.86-5.3-3.289
			C34.266,5.284,34.804,6.58,35.2,8.261c0.158,0.668,0.352,1.332,0.544,1.996c-0.854,0.539-1.652,1.16-2.377,1.837
			c-1.308-0.469-2.921-1.26-4.293-1.216c-1.872,0.06-1.93,1.475-2.152,2.798c-0.202,1.203-1.161,2.345-1.275,3.528
			c-0.117,1.213,1.352,1.872,2.461,2.748c0.2,0.158,0.429,0.31,0.661,0.465c-0.199,0.792-0.352,1.597-0.444,2.404
			c-0.907,0.799-1.807,1.46-2.89,2.133c-1.383,0.86-1.139,1.194-0.626,2.604c0.283,0.778,0.413,2.448,0.906,3.077
			c0.548,0.696,0.518,0.456,1.5,0.432c0.984-0.023,1.983-0.105,2.988-0.18c0.468,0.708,1.006,1.378,1.586,1.961
			c0.014,0.437,0.035,0.875,0.05,1.314c0.026,0.787-0.322,1.728-0.082,2.495c0.47,1.485,3.805,3.35,5.451,2.446
			c1-0.549,2.207-1.313,3.173-2.027c0.772,0.131,1.551,0.206,2.335,0.221c0.181,0.414,0.332,0.842,0.48,1.285
			c0.374,1.119,0.354,2.346,1.539,2.465C46.308,41.206,49.912,40.24,50.251,38.718z M39.051,31.219
			c-4.736-2.43-5.804-7.651-4.183-11.556c2.613-6.296,10.729-8.168,15.124-2.48c1.574,2.037,2.235,6.443,1.16,9.377
			C49.807,30.227,44.053,33.786,39.051,31.219z"/>
		<path fill="#BCBEC0" d="M44.446,18.896c-2.307-0.466-6.376,1.05-5.851,4.595c0.285,1.93,2.636,3.638,4.394,3.973
			c2.547,0.486,4.106-1.702,4.331-4.065C47.436,22.178,46.752,19.362,44.446,18.896z"/>
	</g>
	<g>
		<path fill="#F24E4A" d="M20.917,51.235c0.158-0.708-0.055-1.471,0.108-2.178c0.014-0.059,0.034-0.113,0.054-0.165
			c0.646-0.388,1.241-0.832,1.775-1.321c0.183,0.046,0.367,0.092,0.549,0.143c0.821,0.229,1.107,0.599,1.862,0.151
			c0.728-0.432,2.792-2.851,2.519-3.61c-0.177-0.491-1.318-1.143-2.122-1.629c0.136-0.804,0.146-1.63-0.001-2.46
			c-0.031-0.176-0.066-0.354-0.107-0.533c0.39-0.275,0.799-0.528,1.235-0.733c1.009-0.479,1.736-0.604,1.595-1.741
			c-0.087-0.711-0.433-1.594-0.921-2.171c-0.675-0.796-1.471-0.549-2.487-0.486c-0.576,0.036-1.132,0.321-1.743,0.189
			c-0.474-0.62-1.009-1.194-1.6-1.703c0.513-0.778,1.101-1.614,0.795-2.355c-0.331-0.803-1.8-1.927-2.787-1.421
			c-0.847,0.433-1.519,1.107-2.225,1.714c-0.682-0.123-1.4-0.164-2.152-0.108c-0.71-1.505-1.152-2.584-3.548-2.202
			c-1.501,0.24-1.141,1.107-0.876,2.233c0.106,0.447,0.236,0.892,0.364,1.336c-0.572,0.361-1.106,0.776-1.591,1.23
			C8.739,33.1,7.659,32.57,6.74,32.599c-1.253,0.04-1.292,0.987-1.441,1.873c-0.135,0.806-0.777,1.57-0.854,2.361
			c-0.079,0.812,0.905,1.253,1.648,1.84c0.134,0.106,0.287,0.208,0.443,0.311c-0.133,0.53-0.236,1.069-0.297,1.609
			c-0.607,0.535-1.209,0.977-1.935,1.428c-0.926,0.576-0.762,0.799-0.419,1.743c0.19,0.521,0.276,1.639,0.607,2.06
			c0.367,0.466,0.347,0.305,1.004,0.289c0.659-0.016,1.327-0.07,2-0.12c0.313,0.474,0.673,0.922,1.062,1.313
			c0.01,0.293,0.023,0.586,0.033,0.88c0.018,0.527-0.216,1.157-0.055,1.67c0.314,0.994,2.547,2.243,3.649,1.638
			c0.669-0.367,1.477-0.879,2.124-1.356c0.517,0.088,1.038,0.138,1.563,0.148c0.121,0.277,0.222,0.563,0.321,0.86
			c0.25,0.749,0.237,1.571,1.03,1.65C18.277,52.901,20.69,52.254,20.917,51.235z M13.419,46.215c-3.17-1.627-3.885-5.121-2.8-7.735
			c1.749-4.215,7.182-5.468,10.124-1.66c1.054,1.364,1.496,4.313,0.777,6.277C20.62,45.552,16.768,47.934,13.419,46.215z"/>
		<path fill="#BCBEC0" d="M17.031,37.966c-1.544-0.312-4.268,0.703-3.917,3.076c0.191,1.292,1.764,2.435,2.941,2.66
			c1.705,0.325,2.748-1.139,2.899-2.721C19.032,40.164,18.575,38.278,17.031,37.966z"/>
	</g>
</g>
</svg>
