<?xml version="1.0" encoding="utf-8"?>
<!-- Generator: Adobe Illustrator 17.0.0, SVG Export Plug-In . SVG Version: 6.00 Build 0)  -->
<!DOCTYPE svg PUBLIC "-//W3C//DTD SVG 1.1//EN" "http://www.w3.org/Graphics/SVG/1.1/DTD/svg11.dtd">
<svg version="1.1" id="Layer_1" xmlns="http://www.w3.org/2000/svg" xmlns:xlink="http://www.w3.org/1999/xlink" x="0px" y="0px"
	 width="189.366px" height="33.74px" viewBox="0 0 189.366 33.74" enable-background="new 0 0 189.366 33.74" xml:space="preserve">
<g>
	<path fill="#0E87AA" d="M15.731,13.313c-0.648,0-1.224,0.416-1.43,1.037c-0.058,0.173-0.087,0.329-0.087,0.481
		c0,0.058,0.008,0.111,0.016,0.166c0.108,0.789,0.751,1.352,1.501,1.352c0.749,0,1.391-0.564,1.496-1.311
		c0.012-0.084,0.021-0.145,0.021-0.207c0-0.154-0.027-0.311-0.085-0.477C16.956,13.73,16.38,13.313,15.731,13.313z"/>
	<path fill="#0E87AA" d="M18.509,9.424c0-1.531-1.247-2.775-2.778-2.775c-1.531,0-2.777,1.244-2.777,2.775
		c0,1.53,1.246,2.776,2.777,2.778C17.263,12.201,18.509,10.954,18.509,9.424z"/>
	<path fill="#0E87AA" d="M15.73,0C7.057,0,0,7.056,0,15.73c0,8.674,7.057,15.729,15.73,15.729c8.674,0,15.731-7.055,15.731-15.729
		C31.461,7.056,24.404,0,15.73,0z M25.715,22.787c-0.072,0.13-0.189,0.226-0.332,0.267c-0.286,0.09-0.606-0.091-0.689-0.376
		c-1.03-3.52-3.423-6.191-6.425-7.189c-0.11,0.423-0.33,0.815-0.636,1.137c3.369,1.007,5.782,4.604,5.782,8.699
		c0,0.337-0.022,0.693-0.066,1.12c-0.031,0.284-0.269,0.498-0.553,0.498c-0.206-0.019-0.339-0.09-0.432-0.205
		c-0.094-0.116-0.136-0.261-0.121-0.409c0.03-0.293,0.06-0.644,0.06-1.004c0-2.549-1.031-4.914-2.738-6.385
		c0.326,0.716,0.496,1.524,0.496,2.38c0,3.535-3.152,6.88-4.332,6.88c-1.179,0-4.33-3.345-4.33-6.88c0-0.856,0.169-1.665,0.496-2.38
		c-1.708,1.468-2.74,3.835-2.74,6.385c0,0.366,0.031,0.714,0.06,1.006c0.015,0.145-0.027,0.29-0.121,0.406
		C9,26.852,8.866,26.924,8.718,26.939c-0.002,0-0.004,0-0.007,0c-0.335,0-0.573-0.217-0.602-0.497
		c-0.044-0.431-0.066-0.786-0.066-1.118c0-4.097,2.413-7.693,5.784-8.699c-0.305-0.32-0.524-0.712-0.636-1.137
		c-3.003,0.996-5.398,3.667-6.427,7.189c-0.082,0.285-0.398,0.461-0.689,0.378c-0.142-0.043-0.259-0.136-0.331-0.268
		c-0.072-0.129-0.088-0.28-0.046-0.422c1.173-4.014,3.957-7.009,7.461-8.036c0.099-0.518,0.352-0.988,0.727-1.359
		c-2.505-0.929-4.228-3.644-4.228-6.73c0-0.307,0.248-0.556,0.552-0.556c0.307,0,0.558,0.249,0.558,0.556
		c0,1.369,0.399,2.691,1.114,3.747c-0.029-0.186-0.043-0.373-0.043-0.563c0-1.459,0.811-2.779,2.093-3.446
		c-0.471-0.385-0.831-0.904-1.049-1.518c-0.05-0.139-0.044-0.29,0.019-0.424c0.064-0.135,0.177-0.237,0.318-0.287
		c0.266-0.102,0.608,0.055,0.708,0.336c0.317,0.883,1.024,1.452,1.802,1.452s1.485-0.568,1.801-1.452
		c0.1-0.282,0.43-0.438,0.712-0.335c0.286,0.103,0.439,0.423,0.336,0.71c-0.222,0.615-0.582,1.134-1.051,1.518
		c1.28,0.667,2.092,1.987,2.092,3.446c0,0.189-0.015,0.376-0.042,0.562c0.714-1.056,1.113-2.378,1.113-3.745
		c0-0.307,0.25-0.556,0.556-0.556c0.307,0,0.557,0.249,0.557,0.556c0,3.085-1.723,5.8-4.229,6.73c0.373,0.37,0.626,0.84,0.726,1.359
		c3.503,1.026,6.286,4.021,7.46,8.036C25.803,22.508,25.788,22.658,25.715,22.787z"/>
	<path fill="#0E87AA" d="M12.513,21.321c0,2.995,2.764,5.765,3.22,5.768c0.453-0.003,3.218-2.773,3.218-5.768
		c0-2.269-1.325-3.854-3.22-3.854C13.835,17.467,12.512,19.051,12.513,21.321z"/>
</g>
<g>
	<g>
		<path fill="#0E87AA" d="M38.398,15.776v-0.049c0-4.984,3.882-9.066,9.191-9.066c3.156,0,5.059,0.851,6.887,2.404l-2.429,2.93
			c-1.352-1.126-2.554-1.778-4.583-1.778c-2.804,0-5.033,2.479-5.033,5.46v0.05c0,3.205,2.204,5.559,5.309,5.559
			c1.403,0,2.655-0.35,3.631-1.052V17.73h-3.882v-3.332h7.613v7.613c-1.803,1.528-4.283,2.78-7.488,2.78
			C42.154,24.791,38.398,20.961,38.398,15.776z"/>
		<path fill="#0E87AA" d="M59.736,6.961h3.856v17.531h-3.856V6.961z"/>
		<path fill="#0E87AA" d="M71.805,10.518h-5.334V6.961h14.525v3.557h-5.334v13.974h-3.857V10.518z"/>
		<path fill="#FFFFFF" d="M82.811,15.776v-0.049c0-4.959,3.707-9.066,8.865-9.066c3.181,0,5.084,1.126,6.837,2.779l-1.352,1.452
			c-1.478-1.403-3.131-2.404-5.51-2.404c-3.881,0-6.787,3.156-6.787,7.188v0.05c0,4.057,2.931,7.237,6.787,7.237
			c2.404,0,3.982-0.926,5.66-2.529l1.302,1.279c-1.828,1.852-3.831,3.079-7.012,3.079C86.542,24.791,82.811,20.81,82.811,15.776z"/>
		<path fill="#FFFFFF" d="M101.303,15.776v-0.049c0-4.834,3.631-9.066,8.966-9.066c5.334,0,8.915,4.182,8.915,9.015
			c0.025,0.025,0.025,0.025,0,0.05c0,4.833-3.631,9.065-8.966,9.065C104.884,24.791,101.303,20.609,101.303,15.776z M117.131,15.776
			v-0.049c0-3.983-2.905-7.238-6.912-7.238s-6.863,3.206-6.863,7.188v0.05c0,3.982,2.906,7.237,6.913,7.237
			S117.131,19.758,117.131,15.776z"/>
		<path fill="#FFFFFF" d="M122.68,6.961h1.978v15.703h9.868v1.828H122.68V6.961z"/>
		<path fill="#FFFFFF" d="M134.629,15.776v-0.049c0-4.834,3.631-9.066,8.966-9.066c5.334,0,8.916,4.182,8.916,9.015
			c0.025,0.025,0.025,0.025,0,0.05c0,4.833-3.631,9.065-8.966,9.065C138.211,24.791,134.629,20.609,134.629,15.776z M150.457,15.776
			v-0.049c0-3.983-2.905-7.238-6.913-7.238c-4.006,0-6.861,3.206-6.861,7.188v0.05c0,3.982,2.905,7.237,6.912,7.237
			C147.602,22.963,150.457,19.758,150.457,15.776z"/>
		<path fill="#FFFFFF" d="M156.266,6.961h1.853l11.044,14.05V6.961h1.929v17.531h-1.578l-11.319-14.375v14.375h-1.929V6.961z"/>
		<path fill="#FFFFFF" d="M180.075,17.554l-7.288-10.593h2.404l5.91,8.766l5.961-8.766h2.304l-7.288,10.569v6.962h-2.004
			L180.075,17.554L180.075,17.554z"/>
	</g>
</g>
<g>
	<path fill="#0E87AA" d="M86.032,28.768h3.698v0.959h-2.626v0.995h2.312v0.959h-2.312v1.03h2.662v0.959h-3.733L86.032,28.768
		L86.032,28.768z"/>
	<path fill="#0E87AA" d="M96.672,28.768h0.995l2.297,3.019v-3.019h1.065v4.903h-0.917l-2.375-3.117v3.117h-1.064L96.672,28.768
		L96.672,28.768z"/>
	<path fill="#0E87AA" d="M109.294,29.762h-1.492v-0.995h4.062v0.995h-1.492v3.908h-1.079L109.294,29.762L109.294,29.762z"/>
	<path fill="#0E87AA" d="M118.638,28.768h3.698v0.959h-2.626v0.995h2.312v0.959h-2.312v1.03h2.662v0.959h-3.733L118.638,28.768
		L118.638,28.768z"/>
	<path fill="#0E87AA" d="M129.278,28.768h2.241c0.623,0,1.106,0.175,1.429,0.498c0.273,0.273,0.42,0.658,0.42,1.121v0.014
		c0,0.792-0.427,1.289-1.051,1.52l1.198,1.751h-1.261l-1.051-1.569h-0.847v1.569h-1.079L129.278,28.768L129.278,28.768z
		 M131.449,31.149c0.525,0,0.827-0.28,0.827-0.693v-0.014c0-0.462-0.322-0.701-0.848-0.701h-1.071v1.408
		C130.357,31.149,131.449,31.149,131.449,31.149z"/>
	<path fill="#0E87AA" d="M140.289,28.768h2.003c1.17,0,1.877,0.693,1.877,1.695v0.014c0,1.135-0.882,1.723-1.982,1.723h-0.819v1.471
		h-1.079L140.289,28.768L140.289,28.768z M142.222,31.24c0.539,0,0.854-0.322,0.854-0.743v-0.014c0-0.483-0.336-0.743-0.875-0.743
		h-0.833v1.499L142.222,31.24L142.222,31.24z"/>
	<path fill="#0E87AA" d="M150.915,28.768h2.241c0.623,0,1.106,0.175,1.429,0.498c0.273,0.273,0.42,0.658,0.42,1.121v0.014
		c0,0.792-0.427,1.289-1.051,1.52l1.198,1.751h-1.261l-1.051-1.569h-0.847v1.569h-1.079L150.915,28.768L150.915,28.768z
		 M153.086,31.149c0.525,0,0.827-0.28,0.827-0.693v-0.014c0-0.462-0.322-0.701-0.848-0.701h-1.071v1.408
		C151.994,31.149,153.086,31.149,153.086,31.149z"/>
	<path fill="#0E87AA" d="M161.975,28.768h1.079v4.903h-1.079V28.768z"/>
	<path fill="#0E87AA" d="M169.892,32.956l0.638-0.764c0.441,0.364,0.903,0.596,1.463,0.596c0.441,0,0.708-0.175,0.708-0.462v-0.014
		c0-0.273-0.168-0.413-0.987-0.623c-0.988-0.252-1.625-0.525-1.625-1.499v-0.014c0-0.889,0.714-1.478,1.716-1.478
		c0.714,0,1.324,0.224,1.821,0.624l-0.561,0.812c-0.434-0.301-0.861-0.483-1.274-0.483c-0.414,0-0.63,0.189-0.63,0.427v0.014
		c0,0.322,0.21,0.427,1.058,0.645c0.994,0.259,1.555,0.616,1.555,1.471v0.014c0,0.974-0.743,1.52-1.8,1.52
		C171.229,33.74,170.48,33.481,169.892,32.956z"/>
	<path fill="#0E87AA" d="M180.658,28.768h3.698v0.959h-2.626v0.995h2.312v0.959h-2.312v1.03h2.662v0.959h-3.733L180.658,28.768
		L180.658,28.768z"/>
</g>
</svg>
