<?xml version="1.0" encoding="utf-8"?>
<!-- Generator: Adobe Illustrator 17.0.0, SVG Export Plug-In . SVG Version: 6.00 Build 0)  -->
<!DOCTYPE svg PUBLIC "-//W3C//DTD SVG 1.1//EN" "http://www.w3.org/Graphics/SVG/1.1/DTD/svg11.dtd">
<svg version="1.1" id="Layer_1" xmlns="http://www.w3.org/2000/svg" xmlns:xlink="http://www.w3.org/1999/xlink" x="0px" y="0px"
	 width="30px" height="30px" viewBox="0 0 30 30" enable-background="new 0 0 30 30" xml:space="preserve">
<g>
	<path fill="#1289AB" d="M15,30C6.729,30,0,23.271,0,15C0,6.728,6.729,0,15,0c8.271,0,15,6.728,15,15C30,23.271,23.271,30,15,30
		L15,30z"/>
	<path fill="#FFFFFF" d="M24.565,21.328c-1.119-3.829-3.773-6.685-7.114-7.663c-0.096-0.495-0.336-0.943-0.692-1.296
		c2.389-0.886,4.033-3.476,4.033-6.418c0-0.293-0.238-0.53-0.531-0.53c-0.292,0-0.53,0.237-0.53,0.53
		c0,1.303-0.38,2.564-1.061,3.571c0.026-0.177,0.04-0.356,0.04-0.536c0-1.391-0.774-2.65-1.995-3.286
		c0.447-0.366,0.791-0.861,1.002-1.448c0.098-0.274-0.047-0.579-0.32-0.677c-0.269-0.099-0.583,0.051-0.679,0.319
		C16.416,4.738,15.741,5.28,15,5.28c-0.742,0-1.416-0.542-1.718-1.385c-0.096-0.268-0.421-0.418-0.675-0.32
		c-0.135,0.048-0.242,0.145-0.303,0.273c-0.06,0.128-0.066,0.272-0.018,0.405c0.208,0.585,0.551,1.08,1.001,1.448
		c-1.222,0.636-1.996,1.895-1.996,3.286c0,0.181,0.013,0.36,0.041,0.537c-0.682-1.007-1.062-2.268-1.062-3.573
		c0-0.293-0.239-0.53-0.532-0.53c-0.29,0-0.527,0.237-0.527,0.53c0,2.943,1.643,5.532,4.032,6.418
		c-0.357,0.354-0.599,0.802-0.693,1.296c-3.341,0.979-5.996,3.835-7.115,7.663c-0.04,0.136-0.024,0.279,0.044,0.403
		c0.068,0.126,0.18,0.215,0.316,0.256c0.278,0.079,0.579-0.089,0.657-0.36c0.981-3.359,3.265-5.906,6.129-6.856
		c0.107,0.406,0.315,0.779,0.606,1.085c-3.214,0.96-5.516,4.388-5.516,8.296c0,0.316,0.021,0.655,0.063,1.067
		c0.028,0.267,0.254,0.474,0.574,0.474c0.003,0,0.004,0,0.007,0c0.141-0.014,0.269-0.083,0.358-0.193
		c0.09-0.11,0.13-0.249,0.116-0.388c-0.028-0.279-0.057-0.61-0.057-0.96c0-2.431,0.984-4.689,2.613-6.089
		c-0.312,0.682-0.473,1.454-0.473,2.27c0,3.371,3.005,6.561,4.129,6.561c1.125,0,4.131-3.19,4.131-6.561
		c0-0.816-0.162-1.586-0.473-2.269c1.628,1.403,2.611,3.658,2.611,6.088c0,0.343-0.028,0.678-0.057,0.957
		c-0.014,0.141,0.026,0.28,0.115,0.39c0.089,0.109,0.215,0.178,0.412,0.196c0.271,0,0.498-0.204,0.527-0.475
		c0.042-0.407,0.063-0.746,0.063-1.068c0-3.905-2.301-7.336-5.514-8.296c0.292-0.307,0.501-0.68,0.607-1.085
		c2.863,0.952,5.144,3.499,6.127,6.856c0.079,0.271,0.384,0.444,0.657,0.359c0.137-0.039,0.248-0.13,0.317-0.254
		C24.591,21.607,24.605,21.463,24.565,21.328z M15,15.59c-0.715,0-1.328-0.537-1.431-1.289c-0.008-0.052-0.015-0.103-0.015-0.158
		c0-0.145,0.028-0.294,0.083-0.458c0.196-0.592,0.745-0.989,1.364-0.989c0.619,0,1.168,0.398,1.365,0.993
		c0.055,0.159,0.081,0.308,0.081,0.455c0,0.059-0.009,0.118-0.02,0.197C16.327,15.053,15.715,15.59,15,15.59z M15,11.636
		c-1.46-0.002-2.648-1.19-2.648-2.649c0-1.46,1.188-2.646,2.648-2.646c1.46,0,2.649,1.187,2.649,2.646
		C17.649,10.446,16.462,11.635,15,11.636z M15,16.656c1.807,0,3.07,1.511,3.07,3.676c0,2.856-2.636,5.498-3.069,5.501
		c-0.435-0.003-3.071-2.644-3.071-5.501C11.931,18.167,13.193,16.656,15,16.656z"/>
</g>
</svg>
