<?xml version="1.0" encoding="utf-8"?>
<!-- Generator: Adobe Illustrator 17.0.0, SVG Export Plug-In . SVG Version: 6.00 Build 0)  -->
<!DOCTYPE svg PUBLIC "-//W3C//DTD SVG 1.1//EN" "http://www.w3.org/Graphics/SVG/1.1/DTD/svg11.dtd">
<svg version="1.1" id="Layer_1" xmlns="http://www.w3.org/2000/svg" xmlns:xlink="http://www.w3.org/1999/xlink" x="0px" y="0px"
	 width="189.366px" height="31.459px" viewBox="0 0 189.366 31.459" enable-background="new 0 0 189.366 31.459"
	 xml:space="preserve">
<path fill="#0E87AA" d="M15.73,31.459C7.057,31.459,0,24.404,0,15.73C0,7.056,7.057,0,15.73,0c8.674,0,15.731,7.056,15.731,15.73
	C31.461,24.404,24.404,31.459,15.73,31.459L15.73,31.459z"/>
<path fill="#FFFFFF" d="M25.761,22.366c-1.174-4.015-3.957-7.01-7.46-8.036c-0.1-0.519-0.353-0.989-0.726-1.359
	c2.506-0.93,4.229-3.645,4.229-6.73c0-0.307-0.25-0.556-0.557-0.556c-0.306,0-0.556,0.249-0.556,0.556
	c0,1.367-0.399,2.689-1.113,3.745c0.027-0.186,0.042-0.373,0.042-0.562c0-1.459-0.812-2.779-2.092-3.446
	c0.469-0.384,0.829-0.903,1.051-1.518c0.103-0.287-0.05-0.607-0.336-0.71c-0.282-0.103-0.612,0.053-0.712,0.335
	c-0.316,0.884-1.023,1.452-1.801,1.452c-0.778,0-1.485-0.569-1.802-1.452c-0.1-0.281-0.442-0.438-0.708-0.336
	c-0.141,0.05-0.254,0.152-0.318,0.287c-0.063,0.134-0.069,0.285-0.019,0.424c0.218,0.614,0.578,1.133,1.049,1.518
	c-1.282,0.667-2.093,1.987-2.093,3.446c0,0.19,0.014,0.377,0.043,0.563c-0.715-1.056-1.114-2.378-1.114-3.747
	c0-0.307-0.251-0.556-0.558-0.556c-0.304,0-0.552,0.249-0.552,0.556c0,3.086,1.723,5.801,4.228,6.73
	c-0.375,0.371-0.628,0.841-0.727,1.359c-3.504,1.027-6.288,4.022-7.461,8.036c-0.042,0.142-0.026,0.293,0.046,0.422
	c0.072,0.132,0.189,0.225,0.331,0.268c0.291,0.083,0.607-0.093,0.689-0.378c1.029-3.522,3.424-6.193,6.427-7.189
	c0.112,0.425,0.331,0.817,0.636,1.137c-3.371,1.006-5.784,4.602-5.784,8.699c0,0.332,0.022,0.687,0.066,1.118
	c0.029,0.28,0.267,0.497,0.602,0.497c0.003,0,0.005,0,0.007,0c0.148-0.015,0.282-0.087,0.376-0.202
	c0.094-0.116,0.136-0.261,0.121-0.406c-0.029-0.292-0.06-0.64-0.06-1.006c0-2.55,1.032-4.917,2.74-6.385
	c-0.327,0.715-0.496,1.524-0.496,2.38c0,3.535,3.151,6.88,4.33,6.88c1.18,0,4.332-3.345,4.332-6.88c0-0.856-0.17-1.664-0.496-2.38
	c1.707,1.471,2.738,3.836,2.738,6.385c0,0.36-0.03,0.711-0.06,1.004c-0.015,0.148,0.027,0.293,0.121,0.409
	c0.093,0.115,0.226,0.186,0.432,0.205c0.284,0,0.522-0.214,0.553-0.498c0.044-0.427,0.066-0.783,0.066-1.12
	c0-4.095-2.413-7.692-5.782-8.699c0.306-0.322,0.526-0.714,0.636-1.137c3.002,0.998,5.395,3.669,6.425,7.189
	c0.083,0.285,0.403,0.466,0.689,0.376c0.143-0.041,0.26-0.137,0.332-0.267C25.788,22.658,25.803,22.508,25.761,22.366z
	 M15.731,16.349c-0.75,0-1.393-0.563-1.501-1.352c-0.008-0.055-0.016-0.108-0.016-0.166c0-0.152,0.029-0.308,0.087-0.481
	c0.206-0.621,0.782-1.037,1.43-1.037c0.649,0,1.225,0.417,1.432,1.041c0.058,0.166,0.085,0.323,0.085,0.477
	c0,0.062-0.009,0.123-0.021,0.207C17.122,15.785,16.48,16.349,15.731,16.349z M15.731,12.202c-1.531-0.002-2.777-1.248-2.777-2.778
	c0-1.531,1.246-2.775,2.777-2.775c1.531,0,2.778,1.244,2.778,2.775C18.509,10.954,17.263,12.201,15.731,12.202z M15.731,17.467
	c1.895,0,3.22,1.585,3.22,3.854c0,2.995-2.765,5.765-3.218,5.768c-0.456-0.003-3.22-2.773-3.22-5.768
	C12.512,19.051,13.835,17.467,15.731,17.467z"/>
<g>
	<g>
		<path fill="#0E87AA" d="M38.398,15.776v-0.049c0-4.984,3.882-9.066,9.191-9.066c3.156,0,5.059,0.851,6.887,2.404l-2.429,2.93
			c-1.352-1.126-2.554-1.778-4.583-1.778c-2.804,0-5.033,2.479-5.033,5.46v0.05c0,3.205,2.204,5.559,5.309,5.559
			c1.403,0,2.655-0.35,3.631-1.052V17.73h-3.882v-3.332h7.613v7.613c-1.803,1.528-4.283,2.78-7.488,2.78
			C42.154,24.791,38.398,20.961,38.398,15.776z"/>
		<path fill="#0E87AA" d="M59.736,6.961h3.856v17.531h-3.856V6.961z"/>
		<path fill="#0E87AA" d="M71.805,10.518h-5.334V6.961h14.525v3.557h-5.334v13.974h-3.857V10.518z"/>
		<path fill="#1F3043" d="M82.811,15.776v-0.049c0-4.959,3.707-9.066,8.865-9.066c3.181,0,5.084,1.126,6.837,2.779l-1.352,1.452
			c-1.478-1.403-3.131-2.404-5.51-2.404c-3.881,0-6.787,3.156-6.787,7.188v0.05c0,4.057,2.931,7.237,6.787,7.237
			c2.404,0,3.982-0.926,5.66-2.529l1.302,1.279c-1.828,1.852-3.831,3.079-7.012,3.079C86.542,24.791,82.811,20.81,82.811,15.776z"/>
		<path fill="#1F3043" d="M101.303,15.776v-0.049c0-4.834,3.631-9.066,8.966-9.066c5.334,0,8.915,4.182,8.915,9.015
			c0.025,0.025,0.025,0.025,0,0.05c0,4.833-3.631,9.065-8.966,9.065C104.884,24.791,101.303,20.609,101.303,15.776z M117.131,15.776
			v-0.049c0-3.983-2.905-7.238-6.912-7.238c-4.007,0-6.863,3.206-6.863,7.188v0.05c0,3.982,2.906,7.237,6.913,7.237
			S117.131,19.758,117.131,15.776z"/>
		<path fill="#1F3043" d="M122.68,6.961h1.978v15.703h9.868v1.828H122.68V6.961z"/>
		<path fill="#1F3043" d="M134.629,15.776v-0.049c0-4.834,3.631-9.066,8.966-9.066c5.334,0,8.916,4.182,8.916,9.015
			c0.025,0.025,0.025,0.025,0,0.05c0,4.833-3.631,9.065-8.966,9.065C138.211,24.791,134.629,20.609,134.629,15.776z M150.457,15.776
			v-0.049c0-3.983-2.905-7.238-6.913-7.238c-4.006,0-6.861,3.206-6.861,7.188v0.05c0,3.982,2.905,7.237,6.912,7.237
			C147.602,22.963,150.457,19.758,150.457,15.776z"/>
		<path fill="#1F3043" d="M156.266,6.961h1.853l11.044,14.05V6.961h1.929v17.531h-1.578l-11.319-14.375v14.375h-1.929V6.961z"/>
		<path fill="#1F3043" d="M180.075,17.554l-7.288-10.593h2.404l5.91,8.766l5.961-8.766h2.304l-7.288,10.569v6.962h-2.004V17.554z"/>
	</g>
</g>
</svg>
