<?xml version="1.0" encoding="utf-8"?>
<!-- Generator: Adobe Illustrator 17.0.0, SVG Export Plug-In . SVG Version: 6.00 Build 0)  -->
<!DOCTYPE svg PUBLIC "-//W3C//DTD SVG 1.1//EN" "http://www.w3.org/Graphics/SVG/1.1/DTD/svg11.dtd">
<svg version="1.1" id="Layer_1" xmlns="http://www.w3.org/2000/svg" xmlns:xlink="http://www.w3.org/1999/xlink" x="0px" y="0px"
	 width="60px" height="60px" viewBox="0 0 60 60" enable-background="new 0 0 60 60" xml:space="preserve">
<g>
	<g>
		<path fill="#F24E4A" d="M15.452,46.45c-0.616,0-1.136,0.212-1.559,0.635c-0.424,0.423-0.635,0.943-0.635,1.559
			s0.212,1.136,0.635,1.559c0.423,0.424,0.943,0.635,1.559,0.635c0.616,0,1.136-0.212,1.559-0.635
			c0.423-0.423,0.645-0.943,0.664-1.559c-0.019-0.616-0.241-1.136-0.664-1.559C16.588,46.662,16.068,46.45,15.452,46.45z"/>
		<path fill="#F24E4A" d="M15.452,27.969c-0.616,0-1.136,0.212-1.559,0.635c-0.424,0.423-0.635,0.943-0.635,1.559
			c0,0.616,0.212,1.136,0.635,1.559c0.423,0.423,0.943,0.645,1.559,0.664c0.616-0.019,1.136-0.241,1.559-0.664
			c0.423-0.424,0.635-0.943,0.635-1.559c0-0.616-0.212-1.136-0.635-1.559C16.588,28.181,16.068,27.969,15.452,27.969z"/>
		<path fill="#F24E4A" d="M30.236,46.45c-0.616,0-1.136,0.212-1.559,0.635c-0.423,0.423-0.635,0.943-0.635,1.559
			s0.212,1.136,0.635,1.559c0.423,0.424,0.943,0.645,1.559,0.664c0.616-0.019,1.136-0.241,1.559-0.664
			c0.424-0.423,0.635-0.943,0.635-1.559s-0.212-1.136-0.635-1.559C31.372,46.662,30.852,46.45,30.236,46.45z"/>
		<path fill="#F24E4A" d="M28.819,17.97c-1.898-0.552-3.899-0.863-5.975-0.863c-11.804,0-21.373,9.569-21.373,21.373
			s9.569,21.373,21.373,21.373c11.804,0,21.373-9.569,21.373-21.373c0-2.99-0.618-5.834-1.727-8.418
			C35.804,29.297,30.375,24.386,28.819,17.97z M33.933,48.644c-0.019,1.059-0.375,1.935-1.068,2.628
			c-0.693,0.693-1.569,1.049-2.628,1.068c-1.059-0.019-1.935-0.375-2.628-1.068c-0.693-0.693-1.049-1.569-1.068-2.628
			c0-0.693,0.168-1.314,0.505-1.862c0.337-0.549,0.784-0.987,1.343-1.314V33.86c-0.019-0.481-0.212-0.905-0.578-1.271
			c-0.366-0.366-0.789-0.558-1.271-0.578h-1.848v3.696l-5.544-5.544c0,0.693-0.168,1.314-0.505,1.863
			c-0.337,0.549-0.784,0.987-1.343,1.314v12.128c0.558,0.327,1.006,0.765,1.343,1.314c0.337,0.549,0.505,1.169,0.505,1.862
			c-0.019,1.059-0.375,1.935-1.068,2.628s-1.569,1.049-2.628,1.068c-1.059-0.019-1.935-0.375-2.628-1.068
			c-0.693-0.693-1.049-1.569-1.069-2.628c0-0.693,0.169-1.314,0.505-1.862c0.337-0.549,0.784-0.987,1.343-1.314V33.34
			c-0.558-0.327-1.006-0.765-1.343-1.314c-0.337-0.549-0.505-1.17-0.505-1.863c0.019-1.059,0.375-1.935,1.069-2.628
			c0.693-0.693,1.569-1.049,2.628-1.068c1.059,0.019,1.935,0.375,2.628,1.068s1.049,1.569,1.068,2.628l5.544-5.544v3.696h1.848
			c1.444,0.058,2.714,0.635,3.812,1.732c1.097,1.097,1.675,2.368,1.733,3.812v4.591c0,2.791,0,5.13,0,7.017
			c0.558,0.327,1.006,0.765,1.343,1.314C33.764,47.331,33.933,47.951,33.933,48.644z"/>
	</g>
	<g>
		<path fill="#293F55" d="M44.313,0c-7.851,0-14.216,6.365-14.216,14.216c0,7.851,6.365,14.216,14.216,14.216
			c7.851,0,14.216-6.365,14.216-14.216C58.529,6.365,52.164,0,44.313,0z M53.101,10.758l-8.518,8.517l-1.6,1.6
			c-0.22,0.22-0.486,0.329-0.799,0.329c-0.314,0-0.581-0.11-0.8-0.329l-1.6-1.6l-4.259-4.259c-0.22-0.22-0.329-0.486-0.329-0.799
			s0.11-0.581,0.329-0.8l1.601-1.6c0.219-0.22,0.486-0.329,0.799-0.329s0.581,0.11,0.8,0.329l3.459,3.471l7.717-7.73
			c0.22-0.219,0.486-0.329,0.8-0.329c0.313,0,0.58,0.111,0.799,0.329l1.601,1.601c0.219,0.22,0.329,0.486,0.329,0.799
			C53.431,10.271,53.32,10.538,53.101,10.758z"/>
	</g>
</g>
</svg>
