<?xml version="1.0" encoding="utf-8"?>
<!-- Generator: Adobe Illustrator 17.0.0, SVG Export Plug-In . SVG Version: 6.00 Build 0)  -->
<!DOCTYPE svg PUBLIC "-//W3C//DTD SVG 1.1//EN" "http://www.w3.org/Graphics/SVG/1.1/DTD/svg11.dtd">
<svg version="1.1" id="Layer_1" xmlns="http://www.w3.org/2000/svg" xmlns:xlink="http://www.w3.org/1999/xlink" x="0px" y="0px"
	 width="60px" height="60px" viewBox="0 0 60 60" enable-background="new 0 0 60 60" xml:space="preserve">
<g>
	<g>
		<path fill="#F24E4A" d="M25.539,29.508c0.18-0.808-0.063-1.678,0.124-2.483c0.016-0.067,0.038-0.129,0.062-0.188
			c0.737-0.443,1.415-0.948,2.024-1.507c0.208,0.052,0.419,0.105,0.626,0.163c0.936,0.261,1.262,0.683,2.123,0.173
			c0.831-0.493,3.184-3.251,2.872-4.117c-0.202-0.559-1.503-1.303-2.419-1.858c0.155-0.916,0.167-1.858-0.001-2.805
			c-0.035-0.201-0.076-0.404-0.122-0.608c0.444-0.313,0.911-0.602,1.408-0.836c1.15-0.546,1.98-0.689,1.819-1.986
			c-0.1-0.81-0.493-1.818-1.05-2.475c-0.769-0.907-1.678-0.626-2.836-0.554c-0.657,0.041-1.29,0.366-1.988,0.215
			C27.64,9.935,27.029,9.28,26.356,8.7c0.584-0.887,1.255-1.84,0.907-2.685c-0.377-0.916-2.053-2.197-3.178-1.62
			c-0.966,0.494-1.732,1.262-2.537,1.954c-0.778-0.14-1.596-0.187-2.454-0.123c-0.809-1.715-1.314-2.947-4.045-2.51
			c-1.711,0.273-1.301,1.262-0.998,2.546c0.121,0.51,0.269,1.017,0.416,1.523c-0.652,0.411-1.261,0.885-1.814,1.402
			c-0.999-0.358-2.229-0.962-3.277-0.928c-1.429,0.046-1.473,1.126-1.643,2.135c-0.154,0.919-0.886,1.79-0.973,2.693
			c-0.089,0.926,1.032,1.429,1.879,2.098c0.153,0.12,0.327,0.237,0.505,0.355c-0.152,0.605-0.269,1.219-0.339,1.835
			c-0.692,0.61-1.379,1.115-2.206,1.628c-1.056,0.657-0.869,0.912-0.478,1.987c0.216,0.594,0.315,1.869,0.692,2.349
			c0.419,0.531,0.396,0.348,1.145,0.33c0.751-0.018,1.514-0.08,2.281-0.137c0.357,0.54,0.768,1.051,1.211,1.497
			c0.011,0.334,0.027,0.668,0.038,1.003c0.02,0.6-0.246,1.319-0.062,1.904c0.358,1.133,2.904,2.557,4.16,1.867
			c0.763-0.419,1.685-1.002,2.422-1.547c0.589,0.1,1.184,0.157,1.783,0.169c0.138,0.316,0.253,0.643,0.366,0.981
			c0.285,0.854,0.27,1.791,1.174,1.881C22.529,31.407,25.28,30.67,25.539,29.508z M16.989,23.784c-3.615-1.855-4.43-5.84-3.193-8.82
			c1.994-4.806,8.189-6.235,11.544-1.893c1.202,1.555,1.706,4.918,0.885,7.158C25.2,23.027,20.808,25.743,16.989,23.784z"/>
		<path fill="#293F55" d="M21.107,14.378c-1.761-0.356-4.867,0.802-4.466,3.507c0.218,1.473,2.012,2.777,3.354,3.033
			c1.944,0.371,3.134-1.299,3.306-3.103C23.39,16.883,22.868,14.733,21.107,14.378z"/>
	</g>
	<g>
		<path fill="#F24E4A" d="M49.793,54.271c0.211-0.948-0.073-1.969,0.145-2.915c0.018-0.079,0.045-0.151,0.073-0.221
			c0.865-0.519,1.661-1.113,2.376-1.768c0.245,0.061,0.491,0.123,0.735,0.191c1.099,0.306,1.481,0.802,2.492,0.203
			c0.975-0.578,3.737-3.815,3.371-4.832c-0.237-0.657-1.764-1.53-2.839-2.18c0.181-1.076,0.196-2.181-0.001-3.293
			c-0.041-0.236-0.089-0.474-0.144-0.713c0.522-0.368,1.069-0.706,1.652-0.981c1.35-0.641,2.323-0.808,2.135-2.33
			c-0.117-0.951-0.579-2.133-1.233-2.905c-0.903-1.065-1.969-0.735-3.328-0.65c-0.771,0.048-1.515,0.429-2.333,0.253
			c-0.634-0.829-1.351-1.598-2.141-2.28c0.686-1.04,1.474-2.16,1.064-3.151c-0.443-1.075-2.409-2.578-3.73-1.902
			c-1.133,0.58-2.032,1.481-2.978,2.293c-0.913-0.165-1.874-0.22-2.881-0.144c-0.95-2.013-1.542-3.458-4.748-2.946
			c-2.008,0.321-1.527,1.481-1.172,2.988c0.142,0.599,0.315,1.193,0.488,1.788c-0.765,0.483-1.48,1.039-2.129,1.646
			c-1.172-0.42-2.617-1.129-3.846-1.09c-1.678,0.054-1.729,1.321-1.928,2.506c-0.181,1.078-1.04,2.101-1.142,3.16
			c-0.105,1.087,1.211,1.677,2.205,2.462c0.179,0.141,0.384,0.278,0.593,0.417c-0.179,0.71-0.315,1.431-0.398,2.154
			c-0.812,0.716-1.619,1.308-2.589,1.911c-1.239,0.771-1.02,1.07-0.561,2.333c0.254,0.697,0.37,2.194,0.812,2.756
			c0.491,0.624,0.464,0.409,1.344,0.387c0.881-0.021,1.777-0.094,2.677-0.161c0.42,0.634,0.901,1.234,1.421,1.757
			c0.013,0.392,0.031,0.784,0.045,1.177c0.024,0.705-0.289,1.548-0.073,2.235c0.421,1.33,3.409,3.001,4.883,2.192
			c0.896-0.492,1.977-1.176,2.843-1.815c0.691,0.117,1.389,0.185,2.092,0.198c0.162,0.371,0.297,0.754,0.43,1.151
			c0.335,1.003,0.317,2.102,1.378,2.208C46.26,56.5,49.489,55.635,49.793,54.271z M39.758,47.553
			c-4.243-2.177-5.2-6.854-3.748-10.352c2.341-5.64,9.611-7.318,13.549-2.222c1.41,1.825,2.002,5.772,1.039,8.401
			C49.395,46.664,44.24,49.853,39.758,47.553z"/>
		<path fill="#293F55" d="M44.592,36.513c-2.066-0.417-5.712,0.941-5.242,4.116c0.256,1.729,2.361,3.259,3.936,3.559
			c2.282,0.435,3.678-1.525,3.88-3.641C47.27,39.454,46.658,36.931,44.592,36.513z"/>
	</g>
	<g>
		<path fill="#F24E4A" d="M17.962,52.07c0.141-0.635-0.049-1.318,0.097-1.951c0.012-0.053,0.03-0.101,0.049-0.148
			c0.579-0.348,1.112-0.745,1.59-1.184c0.164,0.041,0.329,0.082,0.492,0.128c0.736,0.205,0.991,0.537,1.668,0.136
			c0.653-0.387,2.502-2.554,2.257-3.235c-0.159-0.44-1.18-1.024-1.901-1.46c0.121-0.72,0.131-1.46-0.001-2.204
			c-0.027-0.158-0.06-0.317-0.096-0.477c0.349-0.246,0.716-0.473,1.106-0.657c0.904-0.429,1.555-0.541,1.429-1.56
			c-0.078-0.637-0.388-1.428-0.825-1.945c-0.604-0.713-1.318-0.492-2.228-0.435c-0.516,0.032-1.014,0.287-1.562,0.169
			c-0.424-0.555-0.904-1.07-1.433-1.526c0.459-0.697,0.986-1.446,0.712-2.109c-0.296-0.72-1.613-1.726-2.497-1.273
			c-0.759,0.388-1.36,0.991-1.994,1.535c-0.611-0.11-1.254-0.147-1.928-0.097c-0.636-1.348-1.032-2.315-3.178-1.972
			c-1.345,0.215-1.022,0.992-0.784,2c0.095,0.401,0.211,0.799,0.326,1.197c-0.512,0.323-0.991,0.696-1.425,1.102
			c-0.785-0.281-1.752-0.756-2.575-0.729c-1.123,0.036-1.157,0.884-1.29,1.678c-0.121,0.722-0.696,1.406-0.765,2.115
			c-0.07,0.727,0.811,1.122,1.476,1.648c0.12,0.095,0.257,0.186,0.397,0.279c-0.12,0.475-0.211,0.958-0.266,1.442
			c-0.544,0.479-1.083,0.876-1.733,1.279c-0.829,0.516-0.683,0.716-0.375,1.561c0.17,0.467,0.247,1.468,0.543,1.845
			c0.329,0.417,0.311,0.273,0.9,0.259c0.59-0.014,1.189-0.063,1.792-0.108c0.281,0.425,0.603,0.826,0.951,1.176
			c0.009,0.262,0.021,0.525,0.03,0.788c0.016,0.472-0.193,1.036-0.049,1.496c0.282,0.89,2.282,2.009,3.269,1.467
			c0.6-0.329,1.324-0.787,1.903-1.215c0.463,0.079,0.93,0.124,1.401,0.133c0.108,0.248,0.199,0.505,0.288,0.771
			c0.224,0.671,0.212,1.407,0.923,1.478C15.597,53.563,17.759,52.983,17.962,52.07z M11.245,47.573
			c-2.84-1.457-3.481-4.588-2.509-6.93c1.567-3.776,6.434-4.898,9.07-1.488c0.944,1.222,1.34,3.864,0.696,5.624
			C17.696,46.979,14.245,49.113,11.245,47.573z"/>
		<path fill="#293F55" d="M14.481,40.183c-1.383-0.279-3.824,0.63-3.509,2.755c0.171,1.158,1.581,2.181,2.635,2.383
			c1.528,0.291,2.462-1.021,2.597-2.438C16.274,42.152,15.864,40.463,14.481,40.183z"/>
	</g>
</g>
</svg>
