<?xml version="1.0" encoding="utf-8"?>
<!-- Generator: Adobe Illustrator 17.0.0, SVG Export Plug-In . SVG Version: 6.00 Build 0)  -->
<!DOCTYPE svg PUBLIC "-//W3C//DTD SVG 1.1//EN" "http://www.w3.org/Graphics/SVG/1.1/DTD/svg11.dtd">
<svg version="1.1" id="Layer_1" xmlns="http://www.w3.org/2000/svg" xmlns:xlink="http://www.w3.org/1999/xlink" x="0px" y="0px"
	 width="60px" height="60px" viewBox="0 0 60 60" enable-background="new 0 0 60 60" xml:space="preserve">
<g>
	<circle fill="#293F55" cx="43.921" cy="14.242" r="14.242"/>
	<g>
		<path fill="#F24E4A" d="M15.634,46.535c-0.617,0-1.138,0.212-1.562,0.637c-0.424,0.424-0.637,0.945-0.637,1.562
			c0,0.617,0.212,1.138,0.637,1.562c0.424,0.424,0.945,0.637,1.562,0.637c0.617,0,1.138-0.212,1.562-0.637
			c0.424-0.424,0.646-0.945,0.665-1.562c-0.019-0.617-0.241-1.138-0.665-1.562C16.772,46.748,16.251,46.535,15.634,46.535z"/>
		<path fill="#F24E4A" d="M15.634,28.021c-0.617,0-1.138,0.212-1.562,0.636c-0.424,0.424-0.637,0.945-0.637,1.562
			c0,0.617,0.212,1.138,0.637,1.562c0.424,0.424,0.945,0.646,1.562,0.665c0.617-0.019,1.138-0.241,1.562-0.665
			c0.424-0.424,0.636-0.945,0.636-1.562c0-0.617-0.212-1.138-0.636-1.562C16.772,28.233,16.251,28.021,15.634,28.021z"/>
		<path fill="#F24E4A" d="M30.446,46.535c-0.617,0-1.138,0.212-1.562,0.637c-0.424,0.424-0.636,0.945-0.636,1.562
			c0,0.617,0.212,1.138,0.636,1.562c0.424,0.424,0.945,0.646,1.562,0.665c0.617-0.019,1.138-0.241,1.562-0.665
			c0.424-0.424,0.637-0.945,0.637-1.562c0-0.617-0.212-1.138-0.637-1.562C31.584,46.748,31.063,46.535,30.446,46.535z"/>
		<path fill="#F24E4A" d="M29.027,18.003c-1.901-0.553-3.906-0.865-5.986-0.865c-11.826,0-21.412,9.587-21.412,21.412
			s9.587,21.412,21.412,21.412c11.826,0,21.412-9.587,21.412-21.412c0-2.996-0.619-5.845-1.73-8.434
			C36.024,29.351,30.585,24.431,29.027,18.003z M34.149,48.734c-0.019,1.061-0.376,1.938-1.07,2.633
			c-0.694,0.694-1.572,1.051-2.633,1.07c-1.061-0.019-1.938-0.376-2.633-1.07c-0.694-0.694-1.051-1.572-1.07-2.633
			c0-0.694,0.169-1.316,0.506-1.866c0.337-0.55,0.786-0.988,1.345-1.316v-11.63c-0.019-0.482-0.212-0.906-0.579-1.273
			c-0.366-0.366-0.791-0.559-1.273-0.579h-1.852v3.703l-5.554-5.554c0,0.694-0.169,1.316-0.506,1.866
			c-0.337,0.55-0.786,0.988-1.345,1.316v12.15c0.559,0.328,1.008,0.767,1.345,1.316c0.338,0.55,0.506,1.172,0.506,1.866
			c-0.019,1.061-0.376,1.938-1.07,2.633s-1.572,1.051-2.633,1.07c-1.061-0.019-1.938-0.376-2.633-1.07
			c-0.694-0.694-1.051-1.572-1.071-2.633c0-0.694,0.169-1.316,0.506-1.866c0.338-0.55,0.786-0.988,1.345-1.316v-12.15
			c-0.559-0.328-1.008-0.767-1.345-1.316c-0.337-0.55-0.506-1.172-0.506-1.866c0.019-1.061,0.376-1.938,1.071-2.633
			c0.694-0.694,1.572-1.051,2.633-1.07c1.061,0.019,1.938,0.376,2.633,1.07c0.694,0.694,1.051,1.572,1.07,2.633l5.554-5.554v3.703
			h1.852c1.446,0.058,2.719,0.636,3.819,1.736c1.099,1.099,1.678,2.372,1.736,3.819v4.6c0,2.796,0,5.14,0,7.03
			c0.559,0.328,1.008,0.767,1.345,1.316C33.98,47.418,34.149,48.04,34.149,48.734z"/>
	</g>
	<g>
		<path fill="#FFFFFF" d="M54.577,13.688c0.493,0.493,0.746,1.116,0.76,1.868c-0.014,0.753-0.267,1.376-0.76,1.868
			c-0.493,0.493-1.116,0.746-1.868,0.76c-0.493,0-0.934-0.12-1.324-0.359s-0.708-0.565-0.955-0.975v0.021
			c-0.63-0.014-1.294-0.089-1.992-0.226c-0.698-0.137-1.335-0.342-1.91-0.616c-1.122-0.561-2.129-1.3-3.018-2.218v4.743
			c0.397,0.233,0.715,0.544,0.955,0.934c0.24,0.39,0.359,0.832,0.359,1.324c-0.014,0.753-0.267,1.376-0.76,1.868
			c-0.493,0.493-1.116,0.746-1.868,0.76c-0.753-0.014-1.376-0.267-1.868-0.76c-0.493-0.493-0.746-1.116-0.76-1.868
			c0-0.493,0.12-0.934,0.359-1.324c0.24-0.39,0.558-0.702,0.955-0.934V9.93c-0.397-0.233-0.715-0.544-0.955-0.934
			c-0.24-0.39-0.359-0.832-0.359-1.324c0.014-0.753,0.267-1.376,0.76-1.868c0.493-0.493,1.116-0.746,1.868-0.76
			c0.753,0.014,1.376,0.267,1.868,0.76s0.746,1.116,0.76,1.868c0,0.411-0.089,0.791-0.267,1.14
			c-0.178,0.349-0.417,0.647-0.719,0.893c0.26,0.561,0.613,1.136,1.057,1.725s0.921,1.081,1.427,1.478
			c0.575,0.438,1.229,0.767,1.961,0.986c0.732,0.219,1.448,0.335,2.146,0.349v0.021c0.246-0.411,0.565-0.736,0.955-0.975
			c0.39-0.24,0.832-0.359,1.324-0.359C53.462,12.942,54.085,13.195,54.577,13.688z M43.305,8.78
			c0.301-0.301,0.452-0.671,0.452-1.109c0-0.438-0.151-0.808-0.452-1.109c-0.301-0.301-0.671-0.452-1.109-0.452
			s-0.808,0.151-1.109,0.452c-0.301,0.301-0.452,0.671-0.452,1.109c0,0.438,0.151,0.808,0.452,1.109
			c0.301,0.301,0.671,0.459,1.109,0.472C42.634,9.239,43.004,9.082,43.305,8.78z M43.305,19.704
			c-0.301-0.301-0.671-0.452-1.109-0.452s-0.808,0.151-1.109,0.452c-0.301,0.301-0.452,0.671-0.452,1.109s0.151,0.808,0.452,1.109
			c0.301,0.301,0.671,0.452,1.109,0.452s0.808-0.151,1.109-0.452c0.301-0.301,0.459-0.671,0.472-1.109
			C43.763,20.374,43.606,20.005,43.305,19.704z M53.818,16.665c0.301-0.301,0.452-0.671,0.452-1.109
			c0-0.438-0.151-0.808-0.452-1.109c-0.301-0.301-0.671-0.452-1.109-0.452s-0.808,0.151-1.109,0.452
			c-0.301,0.301-0.452,0.671-0.452,1.109c0,0.438,0.151,0.808,0.452,1.109c0.301,0.301,0.671,0.459,1.109,0.472
			C53.147,17.123,53.516,16.966,53.818,16.665z"/>
	</g>
</g>
</svg>
