<?xml version="1.0" encoding="utf-8"?>
<!-- Generator: Adobe Illustrator 17.0.0, SVG Export Plug-In . SVG Version: 6.00 Build 0)  -->
<!DOCTYPE svg PUBLIC "-//W3C//DTD SVG 1.1//EN" "http://www.w3.org/Graphics/SVG/1.1/DTD/svg11.dtd">
<svg version="1.1" id="Layer_1" xmlns="http://www.w3.org/2000/svg" xmlns:xlink="http://www.w3.org/1999/xlink" x="0px" y="0px"
	 width="60px" height="60px" viewBox="0 0 60 60" enable-background="new 0 0 60 60" xml:space="preserve">
<g>
	<g>
		<path fill="#293F55" d="M58.704,16.886h-6.93v-2.31h-4.62v2.31H35.605v-2.31h-4.62v2.31h-4.352
			c0.036,0.737,0.052,1.506,0.046,2.31h4.305v2.31h4.62v-2.31h11.549v2.31h4.62v-2.31h5.775v30.028H32.365
			c-1.073,0.886-2.267,1.66-3.562,2.31h29.9c0.641,0,1.155-0.514,1.155-1.155V18.041C59.859,17.401,59.344,16.886,58.704,16.886z"/>
		<path fill="#293F55" d="M40.225,26.126h-4.62v3.97c0.164,0.215,0.334,0.426,0.483,0.65h4.136V26.126z"/>
		<rect x="42.535" y="26.126" fill="#293F55" width="4.62" height="4.62"/>
		<rect x="49.464" y="26.126" fill="#293F55" width="4.62" height="4.62"/>
		<path fill="#293F55" d="M40.225,33.055h-2.929c0.338,0.86,0.583,1.764,0.725,2.705c0.097,0.642,0.129,1.28,0.131,1.915h2.073
			V33.055z"/>
		<rect x="41.38" y="31.9" fill="#F24E4A" width="6.93" height="6.93"/>
		<rect x="49.464" y="33.055" fill="#293F55" width="4.62" height="4.62"/>
		<path fill="#293F55" d="M40.225,39.985h-2.277c-0.285,1.594-0.856,3.145-1.702,4.62h3.98V39.985z"/>
		<rect x="42.535" y="39.985" fill="#293F55" width="4.62" height="4.62"/>
	</g>
	<g>
		<path fill="#293F55" d="M18.989,27.338c-0.571-2.548-1.803-4.891-2.993-7.195c-1.152-2.235-2.395-4.474-4.139-6.309
			c-0.943-0.991-2.11-1.957-3.449-2.342C7.74,11.299,6.508,11.174,6.651,12.2c0.307,2.208,3.273,2.959,4.768,4.121
			c1.898,1.473,3.426,3.218,4.467,5.394c0.728,1.522,1.096,3.252,0.94,4.939"/>
		<path fill="#293F55" d="M23.57,28.192c0.819-2.576,1.023-5.501,1.1-8.184c0.098-3.37-0.112-6.625-1.176-9.834
			c-0.296-0.891-1.247-3.265-2.549-3.037c-1.7,0.297,0.387,4.349,0.728,5.076c0.712,1.521,1.696,3.168,1.819,4.879
			c0.157,2.184-0.049,7.292-1.515,9.341"/>
		<path fill="#F24E4A" d="M30.994,28.328c-2.721-1.666-5.87-2.313-9.021-2.722c-1.067-0.138-2.133-0.249-3.182-0.362
			c-4.241-0.461-8.675-0.569-12.68,1.135c-2.848,1.213-4.443,4.25-5.439,7.05c-0.872,2.454-0.798,5.066-0.042,7.539
			c1.658,5.415,6.155,10.045,11.706,11.389c6.836,1.655,15.721-0.712,20.357-5.986C37.528,40.868,37.654,32.407,30.994,28.328z
			 M31.457,37.168c-2.536,4.618-8.558,5.902-13.35,5.646c-1.137-0.061-2.291-0.208-3.405-0.445c-1.312-0.281-2.679-0.784-3.908-1.32
			c-2.152-0.936-4.142-2.495-4.86-4.818c-1.615-5.253,3.777-7.842,8.058-8.014c2.911-0.117,5.829,0.197,8.737,0.297
			c3.01,0.104,6.464,0.438,8.44,3.025C32.331,33.057,32.576,35.128,31.457,37.168z"/>
		<circle fill="#293F55" cx="24.692" cy="33.691" r="1.261"/>
		<circle fill="#293F55" cx="13.499" cy="33.754" r="1.261"/>
	</g>
</g>
</svg>
