<?xml version="1.0" encoding="utf-8"?>
<!-- Generator: Adobe Illustrator 17.0.0, SVG Export Plug-In . SVG Version: 6.00 Build 0)  -->
<!DOCTYPE svg PUBLIC "-//W3C//DTD SVG 1.1//EN" "http://www.w3.org/Graphics/SVG/1.1/DTD/svg11.dtd">
<svg version="1.1" id="Layer_1" xmlns="http://www.w3.org/2000/svg" xmlns:xlink="http://www.w3.org/1999/xlink" x="0px" y="0px"
	 width="60px" height="60px" viewBox="0 0 60 60" enable-background="new 0 0 60 60" xml:space="preserve">
<g>
	<g>
		<path fill="#293F55" d="M7.105,45.027c0,0.866,0.768,1.634,1.635,1.634h49.627c0.866,0,1.633-0.768,1.633-1.634V15.11
			c0-0.867-0.767-1.633-1.633-1.633H8.74c-0.867,0-1.635,0.766-1.635,1.633V45.027z"/>
		<circle fill="#293F55" cx="8.619" cy="9.269" r="1.514"/>
		<circle fill="#293F55" cx="12.955" cy="9.269" r="1.514"/>
		<circle fill="#293F55" cx="17.374" cy="9.269" r="1.514"/>
		<path fill="#293F55" d="M58.486,7.755H21.877c-0.836,0-1.514,0.678-1.514,1.514c0,0.837,0.678,1.514,1.514,1.514h36.609
			c0.836,0,1.514-0.678,1.514-1.514C60,8.433,59.322,7.755,58.486,7.755z"/>
	</g>
	<g>
		<g>
			<path fill="#FFFFFF" d="M27.087,33.039c-0.103-2.385-1.121-5.725-5.391-8.093c-1.465-0.813-3.037-1.224-4.672-1.224
				c-4.126,0-8.566,2.752-11.312,7.011c-2.557,3.967-3.136,8.43-1.546,11.938c0.929,2.048,2.857,2.974,5.095,3.892
				c1.186,0.487,2.416,0.734,3.656,0.734c2.446,0,5.032-0.941,7.906-2.875C24.75,41.779,27.267,37.205,27.087,33.039z"/>
			<path fill="#F24E4A" d="M33.691,49.511c-0.302-0.273-0.563-0.508-0.711-0.661c-0.468-0.482-0.972-0.935-1.46-1.372
				c-0.377-0.337-0.766-0.686-1.128-1.04c-0.921-0.899-1.485-2.019-2.029-3.102l-0.128-0.255c-0.061-0.12-0.119-0.25-0.179-0.385
				c-0.043-0.096-0.086-0.193-0.132-0.291c2.799-3.76,3.932-8.126,3.107-12.019c-0.761-3.591-3.15-6.571-6.91-8.618
				c-1.959-1.066-4.061-1.607-6.251-1.607C12.37,20.161,6.534,23.736,3,29.27c-3.191,4.997-3.861,10.641-1.795,15.097
				c1.403,3.027,4.526,4.287,6.806,5.207c1.586,0.64,3.232,0.965,4.893,0.965c3.205,0,6.559-1.183,10.252-3.617
				c0.166-0.109,0.341-0.229,0.53-0.364c1.032,0.371,2.335,1.079,2.774,1.418c0.918,0.708,1.64,1.302,2.404,2.077
				c0.21,0.213,0.47,0.498,0.771,0.828c1.507,1.651,3.784,4.146,5.622,4.146c0.185,0,0.364-0.025,0.533-0.074
				c0.763-0.221,1.013-0.657,1.089-0.984C37.158,52.76,35.53,51.17,33.691,49.511z M20.824,44.42
				c-2.874,1.935-5.461,2.875-7.906,2.875c-1.239,0-2.469-0.247-3.656-0.734c-2.238-0.918-4.165-1.844-5.095-3.892
				c-1.589-3.508-1.011-7.971,1.546-11.938c2.746-4.259,7.186-7.011,11.312-7.011c1.635,0,3.207,0.412,4.672,1.224
				c4.27,2.368,5.288,5.708,5.391,8.093C27.267,37.205,24.75,41.779,20.824,44.42z"/>
		</g>
		<path fill="#293F55" d="M8.487,31.231c-0.965-0.078-1.489,3.479-1.525,4.419c-0.106,2.812,1.062,5.313,3.383,6.702
			c0.622,0.372,6.489,2.23,5.816-0.066c-0.151-0.514-4.066-1.468-5.155-2.453C7.671,36.814,10.557,31.399,8.487,31.231z"/>
	</g>
</g>
</svg>
