<?xml version="1.0" encoding="utf-8"?>
<!-- Generator: Adobe Illustrator 17.0.0, SVG Export Plug-In . SVG Version: 6.00 Build 0)  -->
<!DOCTYPE svg PUBLIC "-//W3C//DTD SVG 1.1//EN" "http://www.w3.org/Graphics/SVG/1.1/DTD/svg11.dtd">
<svg version="1.1" id="Layer_1" xmlns="http://www.w3.org/2000/svg" xmlns:xlink="http://www.w3.org/1999/xlink" x="0px" y="0px"
	 width="60px" height="60px" viewBox="0 0 60 60" enable-background="new 0 0 60 60" xml:space="preserve">
<g>
	<g>
		<g>
			<g>
				<path fill="#293F55" d="M12.762,14.454c-1.804,0.129-4.573,0.886-4.482,3.194c0.06,1.5,1.238,2.831,2.57,3.403
					c2.064,0.886,5.698,0.301,7.022-1.655c0.41-0.606,0.498-1.298,0.288-1.996C17.348,14.697,15.221,14.574,12.762,14.454"/>
				<path fill="#293F55" d="M8.278,19.408c0,2.148-0.405,3.208,2.141,3.741c6.368,1.334,8.43-1.191,8.019-3.046
					c0,0-3.269,1.634-4.2,1.789c-1.044,0.174-2.133,0.048-3.149-0.22c-0.524-0.138-1.027-0.358-1.527-0.565
					C8.755,20.775,8.585,20.162,8.278,19.408z"/>
				<path fill="#293F55" d="M8.278,21.932c0,2.148-0.405,3.208,2.141,3.741c6.368,1.333,8.262-1.55,7.851-3.405
					c0.02,0.089-1.492,1.534-1.681,1.619c-1.335,0.603-2.949,0.74-4.427,0.543c-0.708-0.095-1.381-0.332-2.064-0.529
					c-0.432-0.124-0.889-0.246-1.236-0.548C8.432,22.982,8.478,22.423,8.278,21.932z"/>
			</g>
			<g>
				<path fill="#293F55" d="M26.442,14.454c-1.804,0.129-4.573,0.886-4.482,3.194c0.06,1.5,1.238,2.831,2.57,3.403
					c2.064,0.886,5.698,0.301,7.022-1.655c0.41-0.606,0.498-1.298,0.288-1.996C31.028,14.697,28.901,14.574,26.442,14.454"/>
				<path fill="#293F55" d="M21.958,19.408c0,2.148-0.405,3.208,2.141,3.741c6.368,1.334,8.43-1.191,8.019-3.046
					c0,0-3.269,1.634-4.2,1.789c-1.044,0.174-2.133,0.048-3.149-0.22c-0.524-0.138-1.027-0.358-1.527-0.565
					C22.435,20.775,22.265,20.162,21.958,19.408z"/>
				<path fill="#293F55" d="M21.958,21.932c0,2.148-0.405,3.208,2.141,3.741c6.368,1.333,8.262-1.55,7.851-3.405
					c0.02,0.089-1.492,1.534-1.681,1.619c-1.335,0.603-2.949,0.74-4.427,0.543c-0.708-0.095-1.381-0.332-2.064-0.529
					c-0.432-0.124-0.889-0.246-1.236-0.548C22.112,22.982,22.158,22.423,21.958,21.932z"/>
			</g>
		</g>
		<g>
			<path fill="#293F55" d="M19.602,26.975c-1.804,0.129-4.573,0.886-4.482,3.194c0.06,1.5,1.238,2.831,2.57,3.403
				c2.064,0.886,5.698,0.301,7.022-1.655c0.41-0.606,0.498-1.298,0.288-1.996C24.188,27.218,22.061,27.095,19.602,26.975"/>
			<path fill="#293F55" d="M15.118,31.929c0,2.148-0.405,3.208,2.141,3.741c6.368,1.334,8.43-1.191,8.019-3.046
				c0,0-3.269,1.634-4.2,1.789c-1.044,0.174-2.133,0.048-3.149-0.22c-0.524-0.138-1.027-0.358-1.527-0.565
				C15.595,33.296,15.425,32.683,15.118,31.929z"/>
			<path fill="#293F55" d="M15.118,34.453c0,2.148-0.405,3.208,2.141,3.741c6.368,1.333,8.262-1.55,7.851-3.405
				c0.02,0.089-1.492,1.534-1.681,1.619c-1.335,0.603-2.949,0.74-4.427,0.543c-0.708-0.095-1.381-0.332-2.064-0.529
				c-0.432-0.124-0.889-0.246-1.236-0.548C15.272,35.503,15.318,34.944,15.118,34.453z"/>
		</g>
	</g>
	<path fill="#F24E4A" d="M19.684,44c-0.008,0-0.016,0-0.023,0c-0.527,0-1.057,0.114-1.574,0.064
		c-0.615-0.06-1.064-0.529-1.004-1.145c0.06-0.615,0.604-1.026,1.223-0.965c0.459,0.045,0.931,0.092,1.401,0.102
		c0.618,0.013,1.108,0.377,1.096,0.995C20.79,43.661,20.291,44,19.684,44z M25.566,43.5c-0.479,0-0.923-0.311-1.07-0.793
		c-0.179-0.591,0.154-1.216,0.745-1.396c0.444-0.135,0.889-0.29,1.322-0.46c0.573-0.226,1.224,0.055,1.451,0.631
		c0.226,0.575-0.056,1.224-0.631,1.451c-0.489,0.193-0.99,0.368-1.491,0.52C25.784,43.485,25.674,43.5,25.566,43.5z M12.45,42.715
		c-0.151,0-0.304-0.031-0.452-0.095c-0.475-0.21-0.951-0.444-1.416-0.695c-0.544-0.293-0.748-0.971-0.454-1.515
		c0.293-0.543,0.971-0.748,1.515-0.454c0.415,0.223,0.839,0.431,1.262,0.618c0.564,0.25,0.82,0.911,0.57,1.476
		C13.289,42.467,12.88,42.715,12.45,42.715z M6.395,38.449c-0.296,0-0.591-0.117-0.81-0.347c-0.363-0.382-0.714-0.781-1.043-1.187
		c-0.389-0.481-0.315-1.185,0.165-1.574c0.483-0.388,1.185-0.312,1.574,0.165c0.291,0.36,0.602,0.714,0.925,1.053
		c0.426,0.448,0.408,1.156-0.039,1.582C6.95,38.347,6.672,38.449,6.395,38.449z M2.441,32.186c-0.45,0-0.874-0.274-1.045-0.719
		c-0.186-0.487-0.356-0.99-0.505-1.497c-0.174-0.593,0.165-1.214,0.758-1.388c0.593-0.171,1.214,0.165,1.389,0.758
		c0.132,0.45,0.283,0.896,0.448,1.328c0.221,0.577-0.068,1.224-0.645,1.444C2.709,32.162,2.575,32.186,2.441,32.186z M38.853,27.136
		c-0.033,0-0.066-0.001-0.099-0.004c-0.615-0.054-1.07-0.596-1.017-1.212c0.041-0.466,0.064-1.143,0.068-1.607
		C37.812,23.698,38.312,23,38.924,23c0.004,0,0.007,0,0.012,0c0.618,0,1.113,0.717,1.107,1.335
		c-0.005,0.521-0.031,1.154-0.077,1.677C39.915,26.594,39.427,27.136,38.853,27.136z M1.215,25c-0.012,0-0.023,0-0.035,0
		c-0.618,0-1.102-0.594-1.084-1.211c0.016-0.527,0.052-1.086,0.109-1.603c0.066-0.614,0.604-1.071,1.233-1.006
		c0.614,0.067,1.057,0.611,0.991,1.225c-0.05,0.459-0.082,0.986-0.097,1.456C2.314,24.467,1.817,25,1.215,25z M38.054,19.774
		c-0.476,0-0.916-0.305-1.067-0.782c-0.139-0.442-0.299-0.885-0.475-1.318c-0.232-0.572,0.043-1.224,0.615-1.457
		c0.572-0.234,1.225,0.043,1.457,0.615c0.199,0.488,0.379,0.989,0.536,1.487c0.186,0.589-0.141,1.218-0.73,1.403
		C38.278,19.757,38.165,19.774,38.054,19.774z M2.883,17.667c-0.154,0-0.312-0.032-0.462-0.1c-0.562-0.255-0.811-0.918-0.556-1.481
		c0.218-0.481,0.458-0.956,0.711-1.413c0.301-0.541,0.982-0.734,1.521-0.435c0.54,0.3,0.735,0.981,0.435,1.521
		c-0.224,0.404-0.436,0.825-0.63,1.252C3.716,17.423,3.309,17.667,2.883,17.667z M34.476,13.29c-0.318,0-0.634-0.135-0.855-0.396
		c-0.301-0.357-0.62-0.705-0.947-1.035c-0.434-0.439-0.43-1.147,0.009-1.582c0.439-0.435,1.147-0.431,1.582,0.008
		c0.368,0.372,0.726,0.764,1.065,1.164c0.399,0.472,0.34,1.177-0.132,1.577C34.988,13.203,34.731,13.29,34.476,13.29z M7.213,11.655
		c-0.299,0-0.598-0.119-0.818-0.356c-0.421-0.452-0.396-1.16,0.056-1.581c0.38-0.355,0.783-0.701,1.195-1.03
		c0.484-0.384,1.188-0.304,1.572,0.179c0.384,0.483,0.304,1.187-0.178,1.572c-0.368,0.292-0.726,0.6-1.064,0.915
		C7.759,11.555,7.486,11.655,7.213,11.655z M28.681,8.676c-0.173,0-0.347-0.04-0.51-0.124c-0.417-0.214-0.845-0.413-1.272-0.592
		c-0.57-0.238-0.839-0.894-0.601-1.463s0.894-0.837,1.463-0.601c0.481,0.201,0.963,0.426,1.432,0.667
		c0.55,0.282,0.766,0.956,0.484,1.506C29.478,8.454,29.086,8.676,28.681,8.676z M13.516,7.766c-0.454,0-0.882-0.279-1.049-0.73
		c-0.215-0.579,0.081-1.223,0.66-1.437c0.49-0.181,0.995-0.346,1.502-0.489c0.598-0.167,1.213,0.178,1.381,0.772
		c0.168,0.594-0.178,1.212-0.772,1.38c-0.45,0.127-0.899,0.273-1.333,0.434C13.777,7.743,13.645,7.766,13.516,7.766z M21.556,6.655
		c-0.029,0-0.059-0.001-0.088-0.003c-0.465-0.036-0.937-0.055-1.403-0.055c-0.618,0-1.119-0.501-1.119-1.119
		s0.501-1.119,1.119-1.119c0.523,0,1.053,0.021,1.576,0.061c0.616,0.048,1.076,0.586,1.028,1.202
		C22.624,6.21,22.134,6.655,21.556,6.655z"/>
	<g>
		<circle fill="#F24E4A" cx="45.137" cy="42.958" r="14.681"/>
		<g>
			<g>
				<path fill="#FFFFFF" d="M42.102,38.525c-0.231,0.377-0.539,0.678-0.922,0.903v8.331c0.383,0.225,0.691,0.526,0.922,0.903
					c0.231,0.377,0.347,0.803,0.347,1.279c-0.013,0.727-0.258,1.329-0.734,1.805s-1.078,0.721-1.805,0.734
					c-0.727-0.013-1.329-0.258-1.805-0.734s-0.721-1.078-0.734-1.805c0-0.476,0.116-0.903,0.347-1.279s0.539-0.678,0.922-0.903
					v-8.331c-0.383-0.225-0.691-0.526-0.922-0.903s-0.347-0.803-0.347-1.279c0.013-0.727,0.258-1.329,0.734-1.805
					s1.078-0.721,1.805-0.734c0.727,0.013,1.329,0.258,1.805,0.734s0.721,1.078,0.734,1.805
					C42.449,37.722,42.333,38.148,42.102,38.525z M40.981,38.317c0.291-0.291,0.436-0.648,0.436-1.071s-0.145-0.78-0.436-1.071
					s-0.648-0.436-1.071-0.436s-0.78,0.145-1.071,0.436s-0.436,0.648-0.436,1.071s0.145,0.78,0.436,1.071s0.648,0.443,1.071,0.456
					C40.333,38.76,40.69,38.608,40.981,38.317z M40.981,48.869c-0.291-0.291-0.648-0.436-1.071-0.436s-0.78,0.145-1.071,0.436
					s-0.436,0.648-0.436,1.071s0.145,0.78,0.436,1.071s0.648,0.436,1.071,0.436s0.78-0.145,1.071-0.436s0.443-0.648,0.456-1.071
					C41.424,49.517,41.272,49.16,40.981,48.869z M52.258,48.661c0.231,0.377,0.347,0.803,0.347,1.279
					c-0.013,0.727-0.258,1.329-0.734,1.805s-1.078,0.721-1.805,0.734c-0.727-0.013-1.329-0.258-1.805-0.734
					s-0.721-1.078-0.734-1.805c0-0.476,0.116-0.903,0.347-1.279s0.539-0.678,0.922-0.903v-7.974
					c-0.013-0.331-0.145-0.622-0.397-0.873c-0.251-0.251-0.542-0.383-0.873-0.397h-1.269v2.539l-3.808-3.808l3.808-3.808v2.539
					h1.269c0.992,0.04,1.865,0.436,2.618,1.19c0.754,0.754,1.15,1.627,1.19,2.618v3.154c0,1.917,0,3.524,0,4.82
					C51.719,47.983,52.026,48.284,52.258,48.661z M51.137,51.012c0.291-0.291,0.436-0.648,0.436-1.071s-0.145-0.78-0.436-1.071
					s-0.648-0.436-1.071-0.436s-0.78,0.145-1.071,0.436s-0.436,0.648-0.436,1.071s0.145,0.78,0.436,1.071s0.648,0.443,1.071,0.456
					C50.489,51.455,50.846,51.303,51.137,51.012z"/>
			</g>
		</g>
	</g>
</g>
</svg>
