<?xml version="1.0" encoding="utf-8"?>
<!-- Generator: Adobe Illustrator 17.0.0, SVG Export Plug-In . SVG Version: 6.00 Build 0)  -->
<!DOCTYPE svg PUBLIC "-//W3C//DTD SVG 1.1//EN" "http://www.w3.org/Graphics/SVG/1.1/DTD/svg11.dtd">
<svg version="1.1" id="Layer_1" xmlns="http://www.w3.org/2000/svg" xmlns:xlink="http://www.w3.org/1999/xlink" x="0px" y="0px"
	 width="60px" height="60px" viewBox="0 0 60 60" enable-background="new 0 0 60 60" xml:space="preserve">
<path fill="#F24E4A" d="M11.26,13.984c-0.279,3.039,0.246,6.341,0.808,9.32c0.805,4.262,1.53,8.409,2.76,12.591
	c1.697,5.764,2.535,11.642,4.706,16.902c4.204,0,8.667-2.383,12.536-2.598c5.394-0.299,10.774-0.693,16.228-0.927
	c0.601-6.648-2.038-33.339-3.431-37.502c-1.064-3.174-7.261-2.181-9.531-1.967c-5.417,0.511-10.73,1.676-16.059,2.73
	C16.693,13.043,13.758,13.174,11.26,13.984z"/>
<g>
	<path fill="#FFFFFF" d="M19.163,26.118l0.117-0.008c0.299-0.043,0.552-0.245,0.658-0.529c0.218-0.587,0.618-1.196,1.066-1.82
		c0.61,0.315,1.284,0.651,1.976,0.9c0.092,0.037,0.189,0.056,0.29,0.056l0.124-0.009c0.305-0.044,0.558-0.25,0.661-0.537
		c0.075-0.21,0.064-0.436-0.032-0.637c-0.095-0.2-0.262-0.349-0.466-0.42c-0.534-0.192-1.063-0.449-1.581-0.714
		c0.326-0.466,0.627-0.943,0.806-1.402c0.08-0.207,0.073-0.433-0.018-0.636c-0.091-0.202-0.255-0.356-0.456-0.431
		c-0.415-0.163-0.916,0.062-1.071,0.473c-0.135,0.35-0.42,0.781-0.768,1.266c-0.444-0.224-0.904-0.45-1.411-0.62
		c-0.427-0.138-0.905,0.105-1.043,0.527c-0.144,0.436,0.085,0.895,0.524,1.047c0.321,0.107,0.632,0.253,0.954,0.413
		c-0.436,0.623-0.85,1.28-1.107,1.968c-0.158,0.427,0.06,0.904,0.497,1.066C18.975,26.103,19.068,26.118,19.163,26.118z"/>
	<path fill="#FFFFFF" d="M20.066,32.417l0.116-0.008c0.3-0.042,0.553-0.244,0.66-0.529c0.218-0.587,0.618-1.196,1.066-1.819
		c0.634,0.326,1.288,0.652,1.976,0.899c0.092,0.037,0.189,0.056,0.29,0.056l0.121-0.009c0.306-0.042,0.56-0.248,0.664-0.536
		c0.076-0.209,0.065-0.436-0.031-0.637c-0.095-0.2-0.262-0.35-0.466-0.421c-0.521-0.188-1.038-0.437-1.581-0.714
		c0.326-0.466,0.627-0.943,0.805-1.402c0.08-0.208,0.074-0.434-0.018-0.637c-0.091-0.202-0.256-0.356-0.453-0.429
		c-0.417-0.162-0.918,0.06-1.073,0.471c-0.137,0.355-0.422,0.784-0.768,1.267c-0.444-0.224-0.904-0.45-1.411-0.62
		c-0.427-0.138-0.907,0.107-1.042,0.526c-0.143,0.429,0.09,0.899,0.523,1.048c0.321,0.107,0.632,0.253,0.953,0.413
		c-0.436,0.622-0.85,1.279-1.107,1.969c-0.156,0.426,0.063,0.902,0.503,1.068C19.882,32.402,19.973,32.417,20.066,32.417z"/>
	<path fill="#FFFFFF" d="M20.97,38.716l0.118-0.008c0.301-0.042,0.554-0.244,0.66-0.529c0.218-0.588,0.618-1.196,1.065-1.819
		c0.609,0.314,1.282,0.65,1.976,0.9c0.093,0.037,0.191,0.056,0.292,0.056l0.122-0.009c0.304-0.044,0.558-0.25,0.662-0.54
		c0.074-0.209,0.063-0.434-0.033-0.635c-0.095-0.199-0.262-0.348-0.466-0.42c-0.533-0.192-1.062-0.449-1.58-0.714
		c0.333-0.475,0.627-0.943,0.805-1.403c0.08-0.207,0.074-0.433-0.018-0.637c-0.091-0.202-0.256-0.355-0.453-0.429
		c-0.421-0.167-0.914,0.053-1.073,0.471c-0.137,0.355-0.421,0.785-0.767,1.266c-0.444-0.224-0.904-0.449-1.413-0.62
		c-0.426-0.134-0.904,0.107-1.04,0.526c-0.144,0.428,0.088,0.898,0.523,1.049c0.321,0.107,0.632,0.252,0.953,0.413
		c-0.437,0.623-0.85,1.28-1.107,1.968c-0.157,0.426,0.061,0.903,0.503,1.069C20.788,38.702,20.879,38.716,20.97,38.716z"/>
	<path fill="#FFFFFF" d="M26.737,42.434c-0.095-0.201-0.262-0.351-0.467-0.423c-0.523-0.188-1.042-0.438-1.581-0.713
		c0.333-0.475,0.627-0.943,0.805-1.403c0.08-0.207,0.074-0.432-0.017-0.636c-0.091-0.203-0.255-0.357-0.456-0.432
		c-0.418-0.161-0.918,0.062-1.072,0.473c-0.135,0.353-0.42,0.782-0.768,1.265c-0.444-0.224-0.904-0.449-1.412-0.62
		c-0.432-0.135-0.906,0.109-1.041,0.526c-0.143,0.428,0.089,0.898,0.523,1.049c0.321,0.107,0.632,0.252,0.953,0.412
		c-0.436,0.622-0.85,1.278-1.107,1.968c-0.157,0.426,0.061,0.902,0.503,1.069c0.089,0.03,0.18,0.044,0.271,0.044l0.116-0.008
		c0.303-0.042,0.556-0.245,0.66-0.529c0.218-0.587,0.618-1.196,1.066-1.819c0.611,0.315,1.284,0.651,1.972,0.898
		c0.093,0.038,0.192,0.058,0.295,0.058l0.124-0.009c0.304-0.045,0.557-0.251,0.659-0.537C26.843,42.86,26.833,42.635,26.737,42.434z
		"/>
</g>
<path fill="#FFFFFF" d="M25.027,22.223c-0.362,0.051-0.705-0.19-0.776-0.553c-0.074-0.376,0.171-0.739,0.546-0.813
	c1.579-0.309,3.199-0.811,4.766-1.297c3.057-0.948,6.217-1.927,9.506-1.671c0.381,0.03,0.667,0.363,0.637,0.744
	s-0.365,0.665-0.744,0.637c-3.025-0.237-6.056,0.703-8.988,1.613c-1.602,0.496-3.258,1.01-4.909,1.334
	C25.052,22.219,25.039,22.221,25.027,22.223z"/>
<path fill="#FFFFFF" d="M25.906,28.461c-0.359,0.051-0.701-0.186-0.775-0.547c-0.077-0.374,0.164-0.741,0.539-0.818
	c1.555-0.32,3.13-0.806,4.653-1.276c3.071-0.948,6.247-1.929,9.619-1.694c0.382,0.027,0.669,0.358,0.643,0.739
	c-0.027,0.382-0.36,0.668-0.739,0.643c-3.114-0.219-6.027,0.682-9.114,1.635c-1.555,0.48-3.162,0.977-4.783,1.31
	C25.935,28.456,25.92,28.459,25.906,28.461z"/>
<path fill="#FFFFFF" d="M26.785,34.7c-0.362,0.051-0.705-0.19-0.776-0.553c-0.074-0.376,0.171-0.739,0.546-0.813
	c1.579-0.309,3.199-0.811,4.766-1.297c3.057-0.948,6.217-1.927,9.506-1.671c0.381,0.03,0.667,0.363,0.637,0.744
	s-0.365,0.663-0.744,0.637c-3.025-0.237-6.056,0.704-8.988,1.613c-1.602,0.496-3.258,1.01-4.909,1.334
	C26.809,34.696,26.797,34.698,26.785,34.7z"/>
<path fill="#FFFFFF" d="M27.663,40.938c-0.362,0.051-0.705-0.19-0.776-0.553c-0.074-0.376,0.171-0.739,0.546-0.813
	c1.579-0.309,3.199-0.811,4.766-1.297c3.057-0.948,6.217-1.928,9.506-1.671c0.381,0.03,0.667,0.363,0.637,0.744
	c-0.03,0.381-0.365,0.664-0.744,0.637c-3.025-0.237-6.056,0.703-8.988,1.613c-1.602,0.496-3.258,1.01-4.909,1.334
	C27.688,40.934,27.676,40.936,27.663,40.938z"/>
</svg>
