<?xml version="1.0" encoding="utf-8"?>
<!-- Generator: Adobe Illustrator 17.0.0, SVG Export Plug-In . SVG Version: 6.00 Build 0)  -->
<!DOCTYPE svg PUBLIC "-//W3C//DTD SVG 1.1//EN" "http://www.w3.org/Graphics/SVG/1.1/DTD/svg11.dtd">
<svg version="1.1" id="Layer_1" xmlns="http://www.w3.org/2000/svg" xmlns:xlink="http://www.w3.org/1999/xlink" x="0px" y="0px"
	 width="60px" height="60px" viewBox="0 0 60 60" enable-background="new 0 0 60 60" xml:space="preserve">
<g>
	<path fill="#F24E4A" d="M23.965,36.897c-0.197,0-0.42,0.02-0.684,0.06c-0.516,0.08-0.922,0.339-1.085,0.693
		c-0.145,0.316-0.094,0.691,0.15,1.084c0.43,0.694,0.82,0.701,1.596,0.716l0.177,0.003c0.001,0,0.001,0,0.001,0
		c0.769,0,0.848-0.475,0.891-1.257l0.007-0.124c0.028-0.433-0.044-0.742-0.212-0.921C24.645,36.98,24.37,36.897,23.965,36.897z"/>
	<path fill="#F24E4A" d="M24.866,23.36c0.197-0.26,0.239-0.619,0.122-1.038c-0.22-0.786-0.592-0.901-1.333-1.132l-0.168-0.053
		c-0.131-0.041-0.25-0.062-0.355-0.062c-0.459,0-0.642,0.423-0.852,1.019l-0.042,0.119c-0.155,0.432-0.165,0.763-0.03,0.983
		c0.175,0.286,0.628,0.472,1.387,0.571C24.138,23.84,24.622,23.682,24.866,23.36z"/>
	<path fill="#F24E4A" d="M52.887,13.124l-6.577-6.577c-1.414-0.03-2.861-0.009-4.122,0.037l6.539,6.539h-3.075l-6.369-6.369
		c-1.295,0.104-2.591,0.197-3.888,0.272l6.097,6.097h-3.075L32.455,7.16c-0.917,0.028-1.833,0.044-2.75,0.041
		c-0.46-0.002-0.92-0.008-1.381-0.012l5.935,5.935h-3.075l-5.962-5.962c-1.394-0.015-2.788-0.023-4.182-0.023l5.985,5.985h-3.075
		l-5.96-5.96c-1.074,0.02-2.147,0.045-3.221,0.096c-0.266,0.013-0.537,0.024-0.806,0.036l5.828,5.828h-3.075L11.07,7.479
		c-0.593,0.056-1.184,0.124-1.763,0.226C8.667,7.818,8.176,8.043,7.79,8.359l4.765,4.765H9.48l-2.769-2.769
		c-0.168,0.781-0.223,1.704-0.227,2.762c-0.02,4.561,0.162,9.091,0.348,13.645c0.146,3.592,0.502,15.979,0.487,19.579
		c-0.001,0.179-0.002,0.357-0.003,0.535h0.029l6.47,6.47c1.394,0.018,2.789,0.029,4.185,0.025l-6.495-6.495h3.075l6.484,6.484
		c1.372-0.012,2.745-0.028,4.117-0.042l-6.441-6.441h3.075l6.42,6.42c0.853-0.006,1.707-0.015,2.56-0.015
		c0.509,0,1.043,0.003,1.591,0.007l-6.412-6.412h3.075l6.451,6.451c1.394,0.022,2.823,0.048,4.231,0.072l-6.523-6.523h3.075
		l6.567,6.567c0.844,0.009,1.667,0.016,2.43,0.017c0.53,0,1.127,0.014,1.749,0.003l-6.587-6.587h3.075l6.241,6.241
		c0.966-0.279,1.849-0.78,2.499-1.66l-4.581-4.581h3.075l2.331,2.331c0.523-3.85,0.264-13.14,0.336-15.159
		c0.046-1.3-0.014-2.577-0.014-3.872c0-4.408-0.114-8.815-0.122-13.222c-0.002-1.127,0.145-2.479,0.223-3.83H52.887z M27.193,38.899
		c-0.314,1.697-1.337,2.558-3.038,2.558c-0.198,0-0.397-0.011-0.593-0.03c-1.409-0.136-2.713-1.101-3.324-2.459
		c-0.47-1.044-0.42-2.121,0.133-2.881c0.387-0.531,1.162-0.869,2.153-0.947c0.102-2.489,0.1,0.253-0.009-5.404
		c-0.032-1.716-0.433-4.566-1.404-5.387c-1.098-1.047-1.354-2.297-0.734-3.534c0.855-1.706,2.209-2.205,4.191-1.417
		c1.315,0.523,2.299,1.813,2.508,3.287c0.16,1.133-0.187,2.154-0.929,2.729c-0.293,0.227-0.696,0.363-1.175,0.398
		c0.115,1.153,0.109,2.327,0.103,3.466c-0.002,0.47-0.04,2.317-0.049,2.599c-0.055,1.701-0.196,2.295,0.201,3.698
		C26.748,36.232,27.463,37.436,27.193,38.899z M41.804,38.899c-0.313,1.697-1.335,2.558-3.038,2.558
		c-0.198,0-0.397-0.011-0.593-0.03c-1.409-0.136-2.713-1.101-3.324-2.459c-0.469-1.044-0.42-2.121,0.133-2.881
		c0.387-0.531,1.162-0.869,2.153-0.947c0.13-3.136,0.068-1.432-0.008-5.404c-0.002-0.108-0.003-0.237-0.003-0.384
		c-0.002-1.436-0.007-4.694-1.982-5.357c-0.014,0.706-0.034,1.41-0.068,2.108l-0.036,0.743l-0.514-0.537
		c-0.197-0.201-2.174-1.458-3.236-2.134c-1.536-0.976-1.536-0.976-1.556-1.147l-0.017-0.149l0.104-0.109
		c0.88-0.924,3.538-3.392,4.894-4.017l0.453-0.209v3.047c1.118,0.047,2.045,0.436,2.758,1.156c1.829,1.85,1.788,5.396,1.767,7.301
		c-0.003,0.244-0.044,1.555-0.054,1.843c-0.054,1.698-0.195,2.285,0.203,3.686C41.36,36.232,42.075,37.436,41.804,38.899z"/>
	<path fill="#F24E4A" d="M38.576,36.897c-0.197,0-0.42,0.02-0.684,0.06c-0.516,0.08-0.921,0.339-1.085,0.693
		c-0.145,0.316-0.094,0.691,0.15,1.084c0.43,0.694,0.819,0.701,1.595,0.716l0.177,0.003c0.001,0,0.001,0,0.001,0
		c0.769,0,0.848-0.474,0.891-1.255l0.007-0.126c0.027-0.432-0.044-0.742-0.213-0.921C39.256,36.98,38.981,36.897,38.576,36.897z"/>
	<path fill="#F24E4A" d="M7.422,51.375c0.199,2.404,1.846,2.043,3.299,1.952l-3.379-3.379C7.359,50.423,7.383,50.899,7.422,51.375z"
		/>
	<path fill="#F24E4A" d="M52.443,7.567c-0.375-0.41-1.459-0.671-2.867-0.829l3.941,3.941C53.427,9.437,53.139,8.329,52.443,7.567z"
		/>
</g>
</svg>
