<?xml version="1.0" encoding="utf-8"?>
<!-- Generator: Adobe Illustrator 17.0.0, SVG Export Plug-In . SVG Version: 6.00 Build 0)  -->
<!DOCTYPE svg PUBLIC "-//W3C//DTD SVG 1.1//EN" "http://www.w3.org/Graphics/SVG/1.1/DTD/svg11.dtd">
<svg version="1.1" id="Layer_1" xmlns="http://www.w3.org/2000/svg" xmlns:xlink="http://www.w3.org/1999/xlink" x="0px" y="0px"
	 width="60px" height="60px" viewBox="0 0 60 60" enable-background="new 0 0 60 60" xml:space="preserve">
<g>
	<g>
		<path fill="#293F55" d="M13.47,32.878c-0.663-4.827,0.257-9.598,0.683-11.425c1.479-6.341,7.451-6.835,11.811-7.196
			c0.762-0.063,1.481-0.123,2.164-0.205c2.857-0.346,4.235-0.364,7.08-0.372l0.155,0c3.038,0,6.097,0.244,9.093,0.518
			c-0.134-0.86-0.294-1.673-0.467-2.415c-1.371-5.876-7.59-5.363-12.345-5.94c-2.763-0.335-4.074-0.351-6.855-0.358
			C19.678,5.471,14.504,6.169,9.411,6.558c-3.774,0.288-6.736,1.43-7.755,5.45c-0.728,2.868-0.511,5.971-0.173,8.878
			c0.252,2.166,0.183,5.377,0.969,7.936c0.387,1.262,0.982,2.365,1.925,3.106c0.786,0.618,1.742,0.9,2.76,1.012
			c-0.214,3.943-0.51,8.686,1.257,11.472c-0.017-3.978,2.414-7.76,5.164-11.042C13.532,33.203,13.493,33.048,13.47,32.878z"/>
	</g>
	<g>
		<path fill="#F24E4A" d="M38.583,33.121c0.274-0.174,0.135-0.988,0.135-1.245c0-1.999,0.083-4.019-0.01-6.012
			c-0.76-0.183-1.717-0.593-2.548-0.316c-0.584,0.195-0.482,0.266-0.376,0.918c0.347,2.153,1.565,4.175,2.008,6.263
			C37.895,33.017,38.29,33.307,38.583,33.121z"/>
		<path fill="#F24E4A" d="M38.989,33.579c-0.326-0.222-1.525-0.213-1.761,0.093c-0.414,0.537,0.468,1.111,0.793,1.296
			c0.476,0.272,1.303,0.669,1.587,0.084C39.866,34.521,39.343,33.821,38.989,33.579z"/>
		<path fill="#F24E4A" d="M58.344,22.112c-1.019-4.02-3.982-5.162-7.755-5.45c-5.093-0.389-10.267-1.087-15.376-1.073
			c-2.781,0.007-4.092,0.023-6.855,0.358c-4.755,0.576-10.975,0.064-12.345,5.94c-1.37,5.873-1.931,16.129,4.694,19.85
			c4.857,2.728,9.3,1.703,14.539,1.367c3.571-0.229,7.15-0.197,10.726-0.184c2.937,3.406,5.652,7.392,5.634,11.595
			c1.767-2.786,1.471-7.529,1.257-11.472c1.018-0.112,1.974-0.394,2.76-1.012c0.943-0.741,1.538-1.844,1.925-3.106
			c0.786-2.559,0.717-5.77,0.969-7.936C58.855,28.083,59.072,24.981,58.344,22.112z M48.146,35.812
			c-0.304,2.692-6.143,1.336-7.764,1.279c-4.376-0.156-10.918,1.674-13.026,1.13c-1.603-3.184,1.593-6.736,3.289-9.22
			c1.98-2.9,4.17-5.68,5.753-8.83c0.778-1.548,5.664,6.301,6.126,6.987C44.282,29.766,48.552,32.219,48.146,35.812z"/>
	</g>
</g>
</svg>
