<?xml version="1.0" encoding="utf-8"?>
<!-- Generator: Adobe Illustrator 17.0.0, SVG Export Plug-In . SVG Version: 6.00 Build 0)  -->
<!DOCTYPE svg PUBLIC "-//W3C//DTD SVG 1.1//EN" "http://www.w3.org/Graphics/SVG/1.1/DTD/svg11.dtd">
<svg version="1.1" id="Layer_1" xmlns="http://www.w3.org/2000/svg" xmlns:xlink="http://www.w3.org/1999/xlink" x="0px" y="0px"
	 width="60px" height="60px" viewBox="0 0 60 60" enable-background="new 0 0 60 60" xml:space="preserve">
<g>
	<g>
		<g>
			<path fill="#293F55" d="M22.247,46.434c0,1.029-0.836,1.865-1.865,1.865h-6.219c-1.029,0-1.865-0.836-1.865-1.865v-6.219
				c0-1.029,0.836-1.865,1.865-1.865h6.219c1.029,0,1.865,0.836,1.865,1.865V46.434z"/>
		</g>
		<g>
			<path fill="#293F55" d="M34.013,46.434c0,1.029-0.836,1.865-1.865,1.865H25.93c-1.029,0-1.865-0.836-1.865-1.865v-6.219
				c0-1.029,0.836-1.865,1.865-1.865h6.219c1.029,0,1.865,0.836,1.865,1.865V46.434z"/>
		</g>
		<g>
			<path fill="#293F55" d="M45.78,46.434c0,1.029-0.836,1.865-1.865,1.865h-6.219c-1.029,0-1.865-0.836-1.865-1.865v-6.219
				c0-1.029,0.836-1.865,1.865-1.865h6.219c1.029,0,1.865,0.836,1.865,1.865V46.434z"/>
		</g>
	</g>
	<g>
		<g>
			<path fill="#293F55" d="M22.247,34.667c0,1.029-0.836,1.865-1.865,1.865h-6.219c-1.029,0-1.865-0.836-1.865-1.865v-6.219
				c0-1.029,0.836-1.865,1.865-1.865h6.219c1.029,0,1.865,0.836,1.865,1.865V34.667z"/>
		</g>
		<g>
			<path fill="#293F55" d="M34.013,34.667c0,1.029-0.836,1.865-1.865,1.865H25.93c-1.029,0-1.865-0.836-1.865-1.865v-6.219
				c0-1.029,0.836-1.865,1.865-1.865h6.219c1.029,0,1.865,0.836,1.865,1.865V34.667z"/>
		</g>
		<g>
			<path fill="#F24E4A" d="M44.416,36.181c-0.352,0.967-1.423,1.466-2.39,1.115l-5.844-2.127c-0.967-0.352-1.467-1.423-1.115-2.39
				l2.127-5.844c0.352-0.967,1.423-1.466,2.39-1.115l5.844,2.127c0.967,0.352,1.466,1.423,1.115,2.39L44.416,36.181z"/>
		</g>
	</g>
	<g>
		<g>
			<path fill="#293F55" d="M22.247,22.9c0,1.029-0.836,1.865-1.865,1.865h-6.219c-1.029,0-1.865-0.836-1.865-1.865v-6.219
				c0-1.029,0.836-1.865,1.865-1.865h6.219c1.029,0,1.865,0.836,1.865,1.865V22.9z"/>
		</g>
		<g>
			<path fill="#F24E4A" d="M34.777,21.012c0.351,0.967-0.148,2.038-1.115,2.39l-5.844,2.127c-0.967,0.352-2.038-0.148-2.39-1.115
				l-2.127-5.844c-0.351-0.967,0.148-2.038,1.115-2.39l5.844-2.127c0.967-0.351,2.038,0.148,2.39,1.115L34.777,21.012z"/>
		</g>
		<g>
			<path fill="#F24E4A" d="M47.714,20.966c0,1.03-0.836,1.865-1.865,1.865H39.63c-1.029,0-1.865-0.835-1.865-1.865v-6.219
				c0-1.029,0.836-1.865,1.865-1.865h6.219c1.029,0,1.865,0.836,1.865,1.865V20.966z"/>
		</g>
	</g>
</g>
</svg>
