<?xml version="1.0" encoding="utf-8"?>
<!-- Generator: Adobe Illustrator 17.0.0, SVG Export Plug-In . SVG Version: 6.00 Build 0)  -->
<!DOCTYPE svg PUBLIC "-//W3C//DTD SVG 1.1//EN" "http://www.w3.org/Graphics/SVG/1.1/DTD/svg11.dtd">
<svg version="1.1" id="Layer_1" xmlns="http://www.w3.org/2000/svg" xmlns:xlink="http://www.w3.org/1999/xlink" x="0px" y="0px"
	 width="60px" height="60px" viewBox="0 0 60 60" enable-background="new 0 0 60 60" xml:space="preserve">
<g>
	<path fill="#F24E4A" d="M11.409,55.74c3.146,0.19,6.628,1.525,9.729,0.986c0.431-5.119,0.57-9.767,0.57-9.767
		s-2.456-2.045-4.399-1.972c-2.305,0.088-4.838-0.274-5.766,3.446c-0.711,2.848-0.403,2.752-0.556,5.894"/>
	<g>
		<path fill="#F24E4A" d="M39.445,34.678c0,3.245-1.255,18.314-0.028,20.688c0.999,1.931,9.365,1.587,11.481,1.136
			c0.215-6.08-0.672-14.67-0.884-20.806C46.652,35.081,42.784,34.776,39.445,34.678"/>
	</g>
	<g>
		<path fill="#F24E4A" d="M25.913,39.036c0,2.103-1.083,15.314-0.024,16.852c0.863,1.252,8.086,1.029,9.912,0.737
			c0.186-3.941-0.58-12.952-0.763-16.929C32.134,39.297,28.796,39.1,25.913,39.036z"/>
	</g>
	<g>
		<path fill="#293F55" d="M47.122,5.212c-0.683-0.607-2.335-0.677-3.519-0.677c-0.93,0-1.968,0.052-2.972,0.102
			c-1.492,0.075-3.041,0.15-4.336,0.067c-2.391-0.156-5.233-0.246-7.798-0.246c-4.983,0-8.439,0.333-9.244,0.892
			c-1.535,1.065-2.404,3.605-1.269,5.41c0.772,1.229,8.059,1.255,12.414,1.27c2.165,0.007,4.034,0.014,4.975,0.133l0.647,0.082
			l-0.313,0.572c-1.977,3.625-7.858,6.741-13.546,9.753C16.003,25.832,9.636,29.205,8.52,33.035
			c-0.347,1.19-0.176,2.366,0.521,3.595c0.558,0.981,1.477,1.457,2.814,1.457c7.639,0,24.29-15.067,27.23-19.586l0.58-0.891
			l0.227,1.039c0.747,3.415,1.067,5.741,1.301,7.439c0.296,2.143,0.459,3.324,1.184,4.54c0.485,0.812,1.174,1.175,2.235,1.175
			c0.431,0,0.866-0.056,1.287-0.11c0.35-0.045,0.678-0.087,0.969-0.095c0.056-0.001,0.252-0.135,0.482-0.73
			C49.234,25.999,48.318,6.361,47.122,5.212z"/>
	</g>
</g>
</svg>
