<?xml version="1.0" encoding="utf-8"?>
<!-- Generator: Adobe Illustrator 17.0.0, SVG Export Plug-In . SVG Version: 6.00 Build 0)  -->
<!DOCTYPE svg PUBLIC "-//W3C//DTD SVG 1.1//EN" "http://www.w3.org/Graphics/SVG/1.1/DTD/svg11.dtd">
<svg version="1.1" id="Layer_1" xmlns="http://www.w3.org/2000/svg" xmlns:xlink="http://www.w3.org/1999/xlink" x="0px" y="0px"
	 width="60px" height="60px" viewBox="0 0 60 60" enable-background="new 0 0 60 60" xml:space="preserve">
<g>
	<g>
		<path fill="#F24E4A" d="M51.242,37.149c-0.382-0.344-0.711-0.642-0.899-0.835c-0.591-0.61-1.229-1.181-1.846-1.734
			c-0.476-0.426-0.968-0.867-1.425-1.315c-1.164-1.137-1.876-2.552-2.565-3.921l-0.162-0.322c-0.076-0.152-0.15-0.317-0.227-0.486
			c-0.054-0.121-0.109-0.244-0.167-0.368c3.538-4.752,4.969-10.27,3.927-15.19c-0.961-4.539-3.981-8.305-8.733-10.892
			c-2.475-1.347-5.133-2.03-7.9-2.03c-6.95,0-14.327,4.519-18.793,11.513c-4.032,6.316-4.88,13.448-2.268,19.08
			c1.773,3.826,5.72,5.419,8.602,6.581c2.004,0.809,4.085,1.219,6.184,1.219c4.051,0,8.289-1.495,12.957-4.571
			c0.21-0.138,0.431-0.29,0.67-0.46c1.304,0.469,2.951,1.363,3.506,1.792c1.161,0.895,2.073,1.646,3.039,2.625
			c0.265,0.269,0.594,0.63,0.974,1.047c1.904,2.087,4.782,5.24,7.106,5.24c0.233,0,0.461-0.031,0.674-0.093
			c0.965-0.279,1.28-0.831,1.376-1.244C55.623,41.254,53.566,39.245,51.242,37.149z M34.979,30.714
			c-3.633,2.445-6.902,3.634-9.993,3.634c-1.566,0-3.121-0.312-4.62-0.927c-2.828-1.16-5.264-2.331-6.439-4.918
			c-2.009-4.434-1.278-10.074,1.954-15.088c3.47-5.383,9.082-8.86,14.296-8.861c2.067,0,4.054,0.521,5.905,1.548
			c5.397,2.993,6.684,7.214,6.813,10.229C43.122,21.595,39.94,27.376,34.979,30.714z"/>
		<path fill="#293F55" d="M19.387,14.045c-1.219-0.099-1.882,4.397-1.927,5.585c-0.134,3.555,1.343,6.715,4.275,8.47
			c0.786,0.47,8.201,2.818,7.351-0.084c-0.191-0.65-5.139-1.856-6.515-3.101C18.355,21.101,22.003,14.257,19.387,14.045z"/>
	</g>
	<g>
		<path fill="#293F55" d="M37.623,43.596h-22.94c-0.935,0-1.692,0.757-1.692,1.692s0.757,1.693,1.692,1.693h22.94
			c0.935,0,1.693-0.757,1.693-1.693C39.316,44.353,38.557,43.596,37.623,43.596z"/>
		<path fill="#293F55" d="M37.623,49.968h-22.94c-0.935,0-1.692,0.757-1.692,1.692s0.757,1.693,1.692,1.693h22.94
			c0.935,0,1.693-0.757,1.693-1.693C39.316,50.725,38.557,49.968,37.623,49.968z"/>
		<path fill="#293F55" d="M27.871,56.34H14.682c-0.935,0-1.692,0.757-1.692,1.692s0.757,1.693,1.692,1.693H27.87
			c0.935,0,1.693-0.757,1.693-1.693C29.564,57.097,28.805,56.34,27.871,56.34z"/>
	</g>
</g>
</svg>
