<?xml version="1.0" encoding="utf-8"?>
<!-- Generator: Adobe Illustrator 17.0.0, SVG Export Plug-In . SVG Version: 6.00 Build 0)  -->
<!DOCTYPE svg PUBLIC "-//W3C//DTD SVG 1.1//EN" "http://www.w3.org/Graphics/SVG/1.1/DTD/svg11.dtd">
<svg version="1.1" id="Layer_1" xmlns="http://www.w3.org/2000/svg" xmlns:xlink="http://www.w3.org/1999/xlink" x="0px" y="0px"
	 width="60px" height="60px" viewBox="0 0 60 60" enable-background="new 0 0 60 60" xml:space="preserve">
<g>
	<g>
		<g>
			<path fill="#073452" d="M48.303,28.68h-6.931v-1.314c0-0.117-0.101-0.219-0.219-0.219c-0.054,0-0.115,0.02-0.156,0.061
				l-2.188,2.189c-0.041,0.041-0.062,0.102-0.062,0.157c0,0.055,0.021,0.117,0.062,0.157l2.182,2.183
				c0.048,0.04,0.102,0.067,0.163,0.067c0.124,0,0.219-0.096,0.219-0.219v-1.312h5.399V43.75h-9.088v1.751h10.62
				c0.116,0,0.219-0.103,0.219-0.219v-0.764V43.97V30.211v-0.46v-0.852C48.522,28.782,48.42,28.68,48.303,28.68z"/>
			<path fill="#073452" d="M11.81,13.619h6.931v-1.313c0-0.116,0.102-0.218,0.219-0.218c0.054,0,0.115,0.019,0.156,0.061
				l2.188,2.188c0.041,0.041,0.062,0.103,0.062,0.158c0,0.055-0.021,0.117-0.062,0.157l-2.182,2.182
				c-0.048,0.041-0.103,0.067-0.163,0.067c-0.124,0-0.219-0.096-0.219-0.218V15.37h-5.398v13.32h9.088v1.751H11.81
				c-0.116,0-0.219-0.104-0.219-0.22v-0.763V28.91V15.15v-0.46v-0.852C11.592,13.722,11.694,13.619,11.81,13.619z"/>
		</g>
		<polygon fill="#F24E4A" points="30.932,50.143 29.181,50.143 29.181,8.892 30.932,8.892 30.932,50.143 		"/>
		<g>
			<path fill="#293F55" d="M38.185,18.028c0,1.192-0.969,2.16-2.161,2.16H24.09c-1.192,0-2.16-0.968-2.16-2.16v-7.205
				c0-1.192,0.968-2.161,2.16-2.161h11.935c1.192,0,2.161,0.969,2.161,2.161V18.028z"/>
		</g>
		<g>
			<path fill="#293F55" d="M38.185,48.229c0,1.191-0.969,2.16-2.161,2.16H24.09c-1.192,0-2.16-0.969-2.16-2.16v-7.206
				c0-1.192,0.968-2.16,2.16-2.16h11.935c1.192,0,2.161,0.968,2.161,2.16V48.229z"/>
		</g>
		<g>
			<path fill="#F24E4A" d="M37.744,28.02c1.324,0.824,1.324,2.172,0,2.996l-5.28,3.288c-1.323,0.824-3.489,0.824-4.813,0
				l-5.281-3.288c-1.323-0.824-1.323-2.172,0-2.996l5.281-3.287c1.324-0.824,3.489-0.824,4.813,0L37.744,28.02z"/>
		</g>
	</g>
</g>
</svg>
