<?xml version="1.0" encoding="utf-8"?>
<!-- Generator: Adobe Illustrator 17.0.0, SVG Export Plug-In . SVG Version: 6.00 Build 0)  -->
<!DOCTYPE svg PUBLIC "-//W3C//DTD SVG 1.1//EN" "http://www.w3.org/Graphics/SVG/1.1/DTD/svg11.dtd">
<svg version="1.1" id="Layer_1" xmlns="http://www.w3.org/2000/svg" xmlns:xlink="http://www.w3.org/1999/xlink" x="0px" y="0px"
	 width="60px" height="60px" viewBox="0 0 60 60" enable-background="new 0 0 60 60" xml:space="preserve">
<g>
	<path fill="#293F55" d="M31.803,16.139h-2.93l-3.744,3.511l1.96,2.096l0.833-0.757c0.369-0.349,0.544-0.736,0.544-0.736h0.04
		c0,0-0.021,0.541-0.021,1.065v5.782h-2.947v2.911h9.234v-2.911h-2.968V16.139z"/>
	<path fill="#293F55" d="M40.949,52.754c-0.593-1.346-1.225-2.68-1.791-4.029c-0.315-0.754-0.483-2.537-1.269-3.075
		c-1.447-0.989-6.658-0.365-8.986-0.365c-1.141,0-2.055-0.059-2.815,0.195c-0.443,0.148-0.833,0.401-1.185,0.835
		c-1.947,2.394-3.137,5.002-4.556,7.543c-0.576,1.032-1.194,2.045-1.919,3.034c-0.262,0.357-1.564,2.876-1.874,2.944
		c0.756-0.163,1.371-0.67,2.124-0.953c1.73-0.651,6.557-3.743,8.288-4.568c1.229-0.585,2.352-1.868,4.063-1.742
		c1.833,0.132,3.444,1.721,4.666,2.502c1.001,0.639,2.157,1.199,3.252,1.763c1.126,0.583,2.871,1.78,4.345,1.86
		c0.288-0.832-0.602-1.897-0.947-2.695C41.875,54.92,41.427,53.834,40.949,52.754z"/>
	<path fill="#F4514A" d="M48.053,22.249c1.482-1.554,3.629-2.799,3.659-5.223c0.034-2.742-2.693-2.439-4.569-3.18
		c-2.575-1.018-1.144-3.016-0.956-5.185c0.337-3.875-5.28-3.439-7.471-1.547c-0.088-2.149-0.407-6.776-3.524-6.538
		c-1.604,0.124-4.885,2.639-5.323,4.202c-1.226-1.684-3.541-4.706-5.998-4c-1.249,0.359-1.776,1.391-2.146,2.538
		c-0.086,0.267-0.735,3.348-0.664,3.384c-1.426-0.721-4.414-0.822-5.771,0.052c-1.45,0.933-3.759,5.83-1.085,6.806
		c-2.489-0.142-6.054,1.089-5.55,4.197c0.203,1.247,1.619,4.737,3.041,4.865c-1.605,1.448-4.358,3.963-3.252,6.445
		c0.751,1.686,2.913,1.394,4.119,2.508c1.595,1.473,0.631,3.801,1.567,5.574c1.38,2.616,4.598,1.653,6.745,0.915
		c0.384,2.018-0.035,4.726,2.181,5.903c2.795,1.485,4.183-3.155,7.014-2.544c1.245,0.268,2.376,1.385,3.473,1.98
		c3.22,1.754,5.081-3.036,5.279-5.465c1.937,0.723,4.9,2.543,6.826,0.901c1.176-1.004,1.023-7.856-0.327-7.53
		c1.889-0.456,4.901-0.327,5.866-2.357c0.469-0.988,0.453-1.843,0.166-2.615C50.77,24.767,49.069,23.541,48.053,22.249z
		 M29.95,35.351c-7.145,0-12.937-5.792-12.937-12.937c0-7.145,5.792-12.937,12.937-12.937c7.145,0,12.937,5.792,12.937,12.937
		C42.888,29.559,37.096,35.351,29.95,35.351z"/>
</g>
</svg>
