<?xml version="1.0" encoding="utf-8"?>
<!-- Generator: Adobe Illustrator 17.0.0, SVG Export Plug-In . SVG Version: 6.00 Build 0)  -->
<!DOCTYPE svg PUBLIC "-//W3C//DTD SVG 1.1//EN" "http://www.w3.org/Graphics/SVG/1.1/DTD/svg11.dtd">
<svg version="1.1" id="Layer_1" xmlns="http://www.w3.org/2000/svg" xmlns:xlink="http://www.w3.org/1999/xlink" x="0px" y="0px"
	 width="60px" height="60px" viewBox="0 0 60 60" enable-background="new 0 0 60 60" xml:space="preserve">
<g>
	<line fill="none" stroke="#E5E6ED" stroke-width="3" stroke-miterlimit="10" x1="30.42" y1="11.968" x2="24.446" y2="33.129"/>
	<line fill="none" stroke="#E5E6ED" stroke-width="3" stroke-miterlimit="10" x1="53.79" y1="23.747" x2="24.446" y2="33.129"/>
	<line fill="none" stroke="#E5E6ED" stroke-width="3" stroke-miterlimit="10" x1="44.231" y1="43.155" x2="24.446" y2="33.129"/>
	<line fill="none" stroke="#E5E6ED" stroke-width="3" stroke-miterlimit="10" x1="26.102" y1="33.129" x2="25.196" y2="48.3"/>
	<line fill="none" stroke="#E5E6ED" stroke-width="3" stroke-miterlimit="10" x1="24.446" y1="33.129" x2="4.673" y2="44.237"/>
	<path fill="#ED353A" d="M42.225,48.25c0.993,0.375,2.062,0.508,3.08,0.327c0.968-0.172,2.383-0.673,3.132-1.348
		c1.218-1.098,2.063-3.314,1.876-4.95c-0.44-3.846-4.756-5.171-7.913-4.427c-1.963,0.462-3.994,2.28-4.239,4.384
		C37.839,44.987,39.806,47.336,42.225,48.25z"/>
	<path fill="#FFFFFF" d="M43.432,45.403c0.428,0.161,0.889,0.219,1.327,0.141c0.417-0.074,1.027-0.29,1.35-0.581
		c0.525-0.473,0.889-1.428,0.808-2.133c-0.19-1.657-2.05-2.228-3.41-1.908c-0.846,0.199-1.721,0.983-1.827,1.89
		C41.542,43.997,42.39,45.009,43.432,45.403z"/>
	<path fill="#ED353A" d="M26.716,45.494c-0.643-0.291-1.346-0.424-2.029-0.347c-0.649,0.073-1.609,0.345-2.134,0.761
		c-0.855,0.677-1.509,2.111-1.454,3.204c0.129,2.569,2.936,3.631,5.061,3.272c1.321-0.223,2.746-1.343,2.998-2.728
		C29.487,47.844,28.282,46.202,26.716,45.494z"/>
	<path fill="#FFFFFF" d="M26.058,46.728c-0.339-0.153-0.711-0.224-1.071-0.183c-0.343,0.038-0.849,0.182-1.127,0.402
		c-0.451,0.357-0.796,1.114-0.768,1.691c0.068,1.356,1.55,1.917,2.672,1.727c0.698-0.118,1.45-0.709,1.583-1.44
		C27.521,47.969,26.885,47.102,26.058,46.728z"/>
	<path fill="#ED353A" d="M34.873,12.68c0.187-0.759,0.166-1.54-0.107-2.244c-0.259-0.669-0.845-1.613-1.492-2.059
		c-1.053-0.725-2.979-1.034-4.302-0.684c-3.111,0.824-3.673,4.084-2.676,6.241c0.62,1.341,2.364,2.551,4.126,2.448
		C32.724,16.246,34.417,14.529,34.873,12.68z"/>
	<path fill="#FFFFFF" d="M32.77,12.943c0.109-0.441,0.096-0.894-0.062-1.302c-0.151-0.388-0.49-0.936-0.866-1.195
		c-0.611-0.421-1.729-0.6-2.497-0.397c-1.805,0.478-2.132,2.37-1.553,3.622c0.36,0.778,1.372,1.481,2.395,1.421
		C31.524,15.013,32.506,14.017,32.77,12.943z"/>
	<path fill="#ED353A" d="M9.126,44.948c0.187-0.759,0.166-1.54-0.107-2.244c-0.259-0.669-0.845-1.613-1.492-2.059
		c-1.053-0.725-2.979-1.035-4.302-0.684c-3.111,0.824-3.673,4.084-2.676,6.241c0.62,1.341,2.364,2.551,4.126,2.448
		C6.977,48.515,8.67,46.798,9.126,44.948z"/>
	<path fill="#FFFFFF" d="M7.065,44.545c0.103-0.418,0.091-0.849-0.059-1.236C6.863,42.94,6.54,42.42,6.184,42.174
		c-0.58-0.399-1.641-0.57-2.37-0.377c-1.714,0.454-2.024,2.25-1.474,3.438c0.342,0.739,1.303,1.406,2.273,1.349
		C5.881,46.51,6.814,45.564,7.065,44.545z"/>
	<path fill="#ED353A" d="M58.844,27.33c0.666-0.827,1.088-1.801,1.156-2.823c0.065-0.972-0.113-2.47-0.654-3.391
		c-0.88-1.496-3.072-2.983-4.902-3.312c-4.301-0.772-6.865,2.917-6.876,6.144c-0.007,2.006,1.445,4.497,3.672,5.381
		C54.153,30.486,57.222,29.345,58.844,27.33z"/>
	<path fill="#FFFFFF" d="M56.698,25.828c0.383-0.475,0.625-1.034,0.664-1.622c0.037-0.558-0.065-1.419-0.376-1.948
		c-0.505-0.86-1.765-1.714-2.816-1.902c-2.471-0.443-3.944,1.676-3.95,3.53c-0.004,1.153,0.83,2.584,2.11,3.091
		C54.003,27.64,55.766,26.985,56.698,25.828z"/>
	<g>
		<g>
			<path fill="#1F3043" d="M18.696,21.9c-1.363-1.39-3.063-2.39-4.722-3.382c-1.608-0.963-3.275-1.894-5.101-2.372
				c-0.986-0.258-2.106-0.41-3.104-0.129c-0.499,0.14-1.329,0.544-0.836,1.139c1.062,1.278,3.235,0.589,4.639,0.738
				c1.781,0.188,3.436,0.693,4.948,1.662c1.059,0.679,1.971,1.63,2.537,2.761"/>
			<path fill="#1F3043" d="M22.808,21.716c-0.651-1.906-1.827-3.749-2.97-5.391c-1.435-2.062-3.004-3.92-5.064-5.371
				c-0.573-0.402-2.194-1.403-2.874-0.689c-0.887,0.932,2.16,2.435,2.687,2.719c1.1,0.596,2.421,1.147,3.253,2.116
				c1.063,1.239,3.203,4.391,3.234,6.27"/>
			<path fill="#EE363A" d="M25.542,21.293c-0.793-0.107-1.589-0.194-2.37-0.283c-3.16-0.361-6.464-0.46-9.456,0.793
				c-2.129,0.892-3.33,3.148-4.083,5.232c-0.66,1.826-0.616,3.773-0.063,5.62c1.212,4.042,4.545,7.512,8.677,8.537
				c5.088,1.262,11.72-0.465,15.198-4.376c3.628-4.082,3.757-10.388-1.192-13.456C30.234,22.106,27.888,21.611,25.542,21.293z"/>
			<path fill="#FFFFFF" d="M32.374,25.754c-1.463-1.936-4.036-2.199-6.279-2.29c-2.167-0.088-4.341-0.333-6.511-0.258
				c-2.552,0.088-5.742,1.282-6.196,4.124c-0.358,2.239,0.532,5.101,2.463,6.365c2.72,1.78,6.388-0.055,9.222-0.894
				c2.55-0.755,5.944-0.375,7.491-2.851C33.482,28.48,33.231,26.89,32.374,25.754z"/>
			<circle fill="#1F3043" cx="21.751" cy="27.331" r="0.94"/>
			<circle fill="#1F3043" cx="29.155" cy="27.331" r="0.94"/>
		</g>
	</g>
</g>
</svg>
