<?xml version="1.0" encoding="utf-8"?>
<!-- Generator: Adobe Illustrator 17.0.0, SVG Export Plug-In . SVG Version: 6.00 Build 0)  -->
<!DOCTYPE svg PUBLIC "-//W3C//DTD SVG 1.1//EN" "http://www.w3.org/Graphics/SVG/1.1/DTD/svg11.dtd">
<svg version="1.1" id="Layer_1" xmlns="http://www.w3.org/2000/svg" xmlns:xlink="http://www.w3.org/1999/xlink" x="0px" y="0px"
	 width="60px" height="60px" viewBox="0 0 60 60" enable-background="new 0 0 60 60" xml:space="preserve">
<g>
	<path fill="#F24E4A" d="M56.269,24.943c-0.218-0.443-0.646-0.744-1.136-0.799c-0.28-0.031-0.627-0.066-1.028-0.106
		c-1.823-0.183-3.39-0.378-4.738-0.577c0.144-0.12,0.274-0.23,0.422-0.353c1.004-0.833,1.42-1.178,1.238-2.04
		c-0.1-0.474-0.432-0.866-0.884-1.043c-0.523-0.206-1.551-0.339-4.357-0.669c-1.21-0.142-3.056-0.359-4.736-0.607
		c-0.002-0.806,0.016-1.738,0.034-2.699c0.105-5.457,0.075-9.147-1.246-10.648c-0.273-0.31-0.665-0.489-1.077-0.49
		c-0.116,0-0.23,0.013-0.341,0.04c-0.283,0.068-0.542,0.221-0.739,0.443c-0.595,0.668-1.781,2.757-3.627,6.069
		c-2.287-4.455-3.803-6.945-5-7.716c-0.415-0.267-0.938-0.305-1.387-0.099c-0.449,0.206-0.762,0.626-0.83,1.114
		c-0.038,0.279-0.083,0.625-0.134,1.025c-0.35,2.725-0.709,4.869-1.06,6.565c-0.907-0.98-1.917-2.099-3.07-3.414
		c-0.86-0.981-1.216-1.387-2.074-1.181c-0.471,0.113-0.853,0.456-1.018,0.912c-0.191,0.529-0.296,1.56-0.548,4.374
		c-0.126,1.407-0.329,3.668-0.575,5.54c-5.452-0.256-9.141-0.328-10.678,0.952c-0.318,0.264-0.507,0.651-0.52,1.064
		c-0.003,0.116,0.007,0.23,0.031,0.342c0.06,0.285,0.206,0.548,0.422,0.751c0.546,0.514,2.079,1.471,4.476,2.905
		c-4.843,2.632-7.519,4.322-8.296,5.605c-0.256,0.422-0.279,0.946-0.061,1.389c0.218,0.443,0.646,0.744,1.136,0.799
		c0.28,0.031,0.627,0.066,1.029,0.106c3.888,0.391,6.609,0.832,8.52,1.264c-1.045,0.917-2.252,1.95-3.678,3.132
		c-1.004,0.833-1.42,1.178-1.238,2.04c0.1,0.474,0.432,0.866,0.884,1.043c0.523,0.206,1.551,0.339,4.357,0.669
		c1.075,0.126,2.65,0.312,4.167,0.525c-0.087,5.071-0.006,8.527,1.257,9.963c0.273,0.31,0.665,0.489,1.077,0.49
		c0.116,0,0.23-0.013,0.341-0.04c0.283-0.068,0.542-0.221,0.739-0.443c0.522-0.587,1.503-2.273,2.982-4.914
		c2.961,5.921,4.779,9.132,6.17,10.028c0.415,0.267,0.938,0.305,1.387,0.099c0.449-0.206,0.762-0.626,0.83-1.114
		c0.038-0.279,0.083-0.625,0.134-1.025c0.533-4.146,1.086-6.957,1.6-8.867c0.624,0.689,1.282,1.425,2.005,2.25
		c0.86,0.981,1.216,1.387,2.074,1.181c0.471-0.113,0.853-0.456,1.018-0.912c0.191-0.529,0.296-1.56,0.548-4.374
		c0.052-0.586,0.118-1.322,0.195-2.115c0.297,0.013,0.598,0.027,0.904,0.042c5.452,0.256,9.141,0.328,10.679-0.952
		c0.318-0.264,0.507-0.651,0.519-1.064c0.003-0.116-0.007-0.23-0.031-0.342c-0.06-0.285-0.206-0.548-0.422-0.751
		c-0.697-0.656-2.984-2.024-6.656-4.202c-0.368-0.218-0.75-0.445-1.134-0.673c6.628-3.517,10.17-5.59,11.085-7.101
		C56.464,25.91,56.487,25.386,56.269,24.943z"/>
	<g>
		<g>
			<path fill="#FFFFFF" d="M39.471,26.776c-0.293,0.478-0.692,0.868-1.195,1.17h0.025c-0.034,0.855-0.218,1.715-0.553,2.578
				c-0.335,0.864-0.822,1.622-1.459,2.276c-1.274,1.274-2.75,1.945-4.427,2.012c-0.604,0-1.107,0.092-1.509,0.277
				c-0.101,0.067-0.26,0.193-0.478,0.377c-0.218,0.184-0.377,0.31-0.478,0.377c0.553,0.587,0.838,1.316,0.855,2.188
				c-0.017,0.922-0.327,1.685-0.931,2.289c-0.604,0.604-1.367,0.914-2.289,0.931c-0.922-0.017-1.685-0.327-2.289-0.931
				c-0.604-0.604-0.914-1.367-0.931-2.289c0-0.604,0.147-1.145,0.44-1.622c0.293-0.478,0.683-0.859,1.17-1.145V24.701
				c-0.486-0.285-0.876-0.667-1.17-1.145c-0.293-0.478-0.44-1.019-0.44-1.622c0.017-0.922,0.327-1.685,0.931-2.289
				s1.367-0.914,2.289-0.931c0.922,0.017,1.685,0.327,2.289,0.931c0.604,0.604,0.914,1.367,0.931,2.289
				c0,0.604-0.147,1.145-0.44,1.622c-0.293,0.478-0.683,0.859-1.17,1.145v7.647c0.822-0.47,1.895-0.713,3.22-0.729
				c0.838-0.034,1.576-0.369,2.214-1.006c0.637-0.637,0.973-1.375,1.006-2.214v-0.478c-0.486-0.285-0.876-0.667-1.17-1.145
				c-0.293-0.478-0.44-1.019-0.44-1.622c0.017-0.922,0.327-1.685,0.931-2.289c0.604-0.604,1.367-0.914,2.289-0.931
				c0.922,0.017,1.685,0.327,2.289,0.931c0.604,0.604,0.914,1.367,0.931,2.289C39.911,25.757,39.764,26.298,39.471,26.776z
				 M25.674,20.576c-0.369,0.369-0.553,0.822-0.553,1.358c0,0.537,0.184,0.989,0.553,1.358c0.369,0.369,0.822,0.553,1.358,0.553
				c0.537,0,0.989-0.184,1.358-0.553s0.553-0.822,0.553-1.358c0-0.537-0.184-0.989-0.553-1.358s-0.822-0.562-1.358-0.579
				C26.496,20.014,26.043,20.207,25.674,20.576z M28.39,39.391c0.369-0.369,0.553-0.822,0.553-1.358s-0.184-0.989-0.553-1.358
				s-0.822-0.553-1.358-0.553c-0.537,0-0.989,0.184-1.358,0.553c-0.369,0.369-0.553,0.822-0.553,1.358s0.184,0.989,0.553,1.358
				c0.369,0.369,0.822,0.562,1.358,0.579C27.569,39.953,28.022,39.76,28.39,39.391z M38.05,26.512
				c0.369-0.369,0.553-0.822,0.553-1.358s-0.184-0.989-0.553-1.358c-0.369-0.369-0.822-0.553-1.358-0.553
				c-0.537,0-0.989,0.184-1.358,0.553c-0.369,0.369-0.553,0.822-0.553,1.358s0.184,0.989,0.553,1.358s0.822,0.562,1.358,0.579
				C37.228,27.074,37.681,26.881,38.05,26.512z"/>
		</g>
	</g>
</g>
</svg>
