<?xml version="1.0" encoding="utf-8"?>
<!-- Generator: Adobe Illustrator 17.0.0, SVG Export Plug-In . SVG Version: 6.00 Build 0)  -->
<!DOCTYPE svg PUBLIC "-//W3C//DTD SVG 1.1//EN" "http://www.w3.org/Graphics/SVG/1.1/DTD/svg11.dtd">
<svg version="1.1" id="Layer_1" xmlns="http://www.w3.org/2000/svg" xmlns:xlink="http://www.w3.org/1999/xlink" x="0px" y="0px"
	 width="256px" height="295px" viewBox="0 0 256 295" enable-background="new 0 0 256 295" xml:space="preserve">
<g>
	<path fill="#FFFFFF" d="M194.477,294l1.016-18.81l-13.394-4.871c0,0-9.741,0-14.004,0s-7.306,8.525-7.306,8.525L171.352,294
		H194.477z"/>
	<path fill="#335061" d="M238.702,294c2.923-12.853,11.16-46.214,11.16-46.214l-27.399-28.615l-5.48-4.871l-14.613,14.613v56.624
		L200.304,294H238.702z"/>
	<path fill="#81B0C4" d="M212.59,294c1.771-3.062,3.537-6.13,5.318-9.181h0c-3.587-5.759-11.087-10.78-19.846-6.681
		c-0.199,4.94-0.513,10.364-0.979,15.862H212.59z"/>
	<path id="path28" inkscape:connector-curvature="0" fill="#F0D6B7" d="M198.72,231.955l-24.356,3.653l-32.879,3.653l-21.311,0.608
		l-20.7-0.608l-15.831-4.871l-14.004-15.221L58.68,188.117l-2.435-6.698l-14.613-4.87l-8.524-14.004l-6.088-20.092l6.698-17.657
		l15.829-5.48l12.786,6.09l6.09,13.394l7.306-1.218l2.434-3.043l-2.434-14.004l-0.61-17.657l3.653-24.354L78.63,64.611
		l11.102-17.749l19.484-14.004l34.097-14.613l37.748,5.48l32.878,23.745l15.223,24.354l9.741,17.657l2.435,43.838l-7.306,37.75
		l-13.394,33.487l-12.786,17.657"/>
	<path id="path32" inkscape:connector-curvature="0" fill="#6D6B6D" d="M33.718,124.795l15.829-5.48l12.786,6.09l6.09,13.394
		l7.306-1.218l1.827-7.306l-3.653-14.003l3.653-33.488L74.51,64.518L85.47,51.732l23.745-18.874l-6.698-9.133L69.031,40.165
		L55.027,51.124l-7.915,17.047L34.934,84.611l-3.653,19.484L33.718,124.795"/>
	<path id="path34" inkscape:connector-curvature="0" fill="#DCD9D8" d="M58.68,67.563c0,0,9.133-22.527,45.664-33.487
		s1.827-7.916,1.827-7.916L66.596,41.383L51.374,56.604l-6.696,12.178L58.68,67.563"/>
	<path id="path36" inkscape:connector-curvature="0" fill="#DCD9D8" d="M40.414,120.534c0,0-12.786-42.621,35.923-48.709
		l-1.827-7.306l-33.486,7.916l-9.743,31.66l2.437,20.701L40.414,120.534"/>
	<path id="path66" inkscape:connector-curvature="0" fill="#49728B" d="M205.416,227.085l42.619,31.66l1.218-14.613l-32.27-29.833
		L205.416,227.085"/>
	<path id="path80" inkscape:connector-curvature="0" fill="#FFFFFF" d="M116.342,241.095l-16.867-1.834l-15.831-4.871v5.48
		l7.735,8.53l24.354,10.959"/>
	<path id="path84" inkscape:connector-curvature="0" fill="#D33833" d="M212.476,272.391c-10.331-0.303-19.665-1.531-27.837-3.836
		c0.555-3.35-0.484-6.638,0.351-9.051c2.278-1.64,6.095-1.615,9.538-2c-2.977-1.463-7.16-2.042-10.596-1.196
		c-0.08-2.325-1.123-3.766-1.755-5.586c5.809-2.073,19.521-15.665,27.234-11.164c3.675,2.141,5.237,14.368,5.522,20.313
		C215.17,264.804,214.485,269.779,212.476,272.391"/>
	<path id="path86" inkscape:connector-curvature="0" fill="none" stroke="#D33833" stroke-width="2" d="M212.476,272.391
		c-10.331-0.303-19.665-1.531-27.837-3.836c0.555-3.35-0.484-6.638,0.351-9.051c2.278-1.64,6.095-1.615,9.538-2
		c-2.977-1.463-7.16-2.042-10.596-1.196c-0.08-2.325-1.123-3.766-1.755-5.586c5.809-2.073,19.521-15.665,27.234-11.164
		c3.675,2.141,5.237,14.368,5.522,20.313C215.17,264.804,214.485,269.779,212.476,272.391z"/>
	<path id="path88" inkscape:connector-curvature="0" fill="#D33833" d="M163.073,255.503c-0.027,0.782-0.06,1.569-0.091,2.358
		c-3.226,2.119-8.433,2.093-11.973,3.874c5.219,0.228,9.326,1.485,12.881,3.257c-0.079,1.969-0.153,3.936-0.23,5.905
		c-5.913,4.048-11.314,10.075-18.275,13.871c-3.291,1.795-14.843,6.414-18.345,5.598c-1.981-0.46-2.16-2.919-2.952-5.236
		c-1.687-4.963-5.573-12.863-5.911-20.334c-0.432-9.436-1.384-25.251,8.785-23.307c8.204,1.565,17.746,5.345,24.097,8.815
		C154.939,252.427,157.184,255.05,163.073,255.503"/>
	<path id="path90" inkscape:connector-curvature="0" fill="none" stroke="#D33833" stroke-width="2" d="M163.073,255.503
		c-0.027,0.782-0.06,1.569-0.091,2.358c-3.226,2.119-8.433,2.093-11.973,3.874c5.219,0.228,9.326,1.485,12.881,3.257
		c-0.079,1.969-0.153,3.936-0.23,5.905c-5.913,4.048-11.314,10.075-18.275,13.871c-3.291,1.795-14.843,6.414-18.345,5.598
		c-1.981-0.46-2.16-2.919-2.952-5.236c-1.687-4.963-5.573-12.863-5.911-20.334c-0.432-9.436-1.384-25.251,8.785-23.307
		c8.204,1.565,17.746,5.345,24.097,8.815C154.939,252.427,157.184,255.05,163.073,255.503z"/>
	<path id="path92" inkscape:connector-curvature="0" fill="#D33833" d="M168.945,266.762c-0.902-5.14-1.945-6.607-1.542-11.091
		C181.112,246.531,183.685,271.37,168.945,266.762"/>
	<path id="path94" inkscape:connector-curvature="0" fill="none" stroke="#D33833" stroke-width="2" d="M168.945,266.762
		c-0.902-5.14-1.945-6.607-1.542-11.091C181.112,246.531,183.685,271.37,168.945,266.762z"/>
	<path id="path100" inkscape:connector-curvature="0" fill="#231F20" d="M140.886,75.301c-16.595-3.865-24.841,6.945-29.871,18.156
		c-4.492-1.089-2.704-7.197-1.57-10.309c2.97-8.168,14.941-19.042,24.722-17.568C138.376,66.213,144.072,70.062,140.886,75.301"/>
	<path id="path102" inkscape:connector-curvature="0" fill="#231F20" d="M221.742,94.198c0.261,0.012,0.526,0.02,0.787,0.031
		c3.75,7.79,6.996,16.043,11.727,22.92c-3.169,7.381-23.998,13.913-23.676,0.659c4.504-1.969,12.28-0.402,16.273-2.917
		C224.544,108.555,221.212,103.161,221.742,94.198"/>
	<path id="path104" inkscape:connector-curvature="0" fill="#231F20" d="M149.382,94.401c3.558,6.523,4.716,13.376,9.774,18.306
		c2.278,2.219,6.707,4.924,4.512,11.096c-0.513,1.456-4.263,4.702-6.428,5.339c-7.907,2.334-26.332,0.482-20.093-9.376
		c6.539,0.305,15.329,4.247,20.217-0.5C153.611,113.266,146.919,101.395,149.382,94.401"/>
	<path id="path106" inkscape:connector-curvature="0" fill="#231F20" d="M218.774,160.695
		c-11.906,7.648-25.181,15.964-44.689,14.035c-4.168-3.624-5.757-11.688-1.708-17.015c2.108,3.624,0.784,10.289,6.658,11.292
		c11.069,1.894,23.952-6.771,31.914-9.8c4.937-8.324-0.426-11.385-4.873-16.742c-9.105-10.976-21.32-24.58-20.876-41.012
		c3.681-2.669,3.998,4.073,4.526,5.301c4.755,11.127,16.72,25.358,25.453,34.882c2.144,2.345,5.675,4.596,6.068,6.146
		C222.38,152.292,218.301,157.695,218.774,160.695"/>
	<path id="path108" inkscape:connector-curvature="0" fill="#231F20" d="M61.819,152.643c-3.732-2.13-4.62-11.511-9.001-11.778
		c-6.261-0.38-5.119,12.17-5.094,19.51c-4.31-3.913-5.067-15.959-1.901-22.145c-3.608-1.772-5.219,1.954-7.221,3.268
		C41.174,122.812,65.936,132.83,61.819,152.643"/>
	<path id="path110" inkscape:connector-curvature="0" fill="#231F20" d="M226.354,168.476
		c-5.542,10.548-13.381,22.165-29.643,22.503c-0.331-3.407-0.585-8.59,0.018-10.642C209.16,179.143,216.835,172.816,226.354,168.476
		"/>
	<path id="path112" inkscape:connector-curvature="0" fill="#231F20" d="M148.445,175.315c10.372,5.454,29.434,6.04,43.532,5.628
		c0.756,3.089,0.738,6.904,0.767,10.671C174.622,192.517,153.196,188.033,148.445,175.315"/>
	<path id="path114" inkscape:connector-curvature="0" fill="#231F20" d="M146.473,185.485c7.172,18.008,31.824,15.935,52.612,15.438
		c-0.915,2.338-2.899,5.1-5.365,6.099c-6.662,2.711-25.035,4.767-34.283-0.144c-5.865-3.118-9.633-10.163-12.847-14.293
		C145.039,190.59,137.312,185.496,146.473,185.485"/>
	<path id="path126" inkscape:connector-curvature="0" fill="#F0D6B7" d="M187.75,239.113c-4.334,2.829-8.026,6.362-12.189,9.383
		c-9.232,0.457-14.269-0.639-21.051-5.94c0.111-0.426,0.793-0.236,0.818-0.758C165.21,246.202,177.771,240.004,187.75,239.113"/>
	<path id="path134" inkscape:connector-curvature="0" fill="#1D1919" d="M185.324,284.622c0,1.849-1.5,3.348-3.35,3.348
		c-1.848,0-3.348-1.499-3.348-3.348c0-1.848,1.5-3.35,3.348-3.35C183.824,281.272,185.324,282.774,185.324,284.622"/>
	<path fill="#81B0C4" d="M166.701,294c-2.35-4.19-4.913-8.183-7.813-11.864c-5.52,3.702-11.354,7.283-15.852,11.864H166.701z"/>
	<g>
		<polygon fill="#335061" points="139.315,294 141.486,289.795 129.396,294 		"/>
		<polygon fill="#335061" points="16.552,294 126.936,294 122.001,287.968 114.695,256.308 108.607,254.482 95.211,250.22 
			83.643,239.869 70.249,223.43 55.027,229.52 6.319,263.006 9.365,272.748 		"/>
	</g>
	<path fill="#49728B" d="M15.831,294h16.892c-3.316-16.655-6.31-28.559-6.31-28.559l57.232-25.572l-17.657-17.046L6.319,263.006
		l6.698,18.876L15.831,294z"/>
</g>
</svg>
