<?xml version="1.0" encoding="utf-8"?>
<!-- Generator: Adobe Illustrator 17.0.0, SVG Export Plug-In . SVG Version: 6.00 Build 0)  -->
<!DOCTYPE svg PUBLIC "-//W3C//DTD SVG 1.1//EN" "http://www.w3.org/Graphics/SVG/1.1/DTD/svg11.dtd">
<svg version="1.1" id="Layer_1" xmlns="http://www.w3.org/2000/svg" xmlns:xlink="http://www.w3.org/1999/xlink" x="0px" y="0px"
	 width="50px" height="50px" viewBox="0 0 50 50" enable-background="new 0 0 50 50" xml:space="preserve">
<g>
	<path fill="#A6A6A6" d="M25,0L25,0C13.085,0,3.298,3.191,3.298,7.234c0,1.064,2.553,16.17,3.617,22.128
		C7.34,32.128,14.362,35.957,25,35.957l0,0c10.638,0,17.447-3.83,18.085-6.596c1.064-5.957,3.617-21.064,3.617-22.128
		C46.489,3.191,36.915,0,25,0L25,0z M25,31.064c-3.83,0-6.809-2.979-6.809-6.809S21.17,17.447,25,17.447s6.809,2.979,6.809,6.809
		C31.809,27.872,28.83,31.064,25,31.064L25,31.064z M25,9.362c-7.66,0-13.83-1.277-13.83-2.979S17.34,3.404,25,3.404
		s13.83,1.277,13.83,2.979S32.66,9.362,25,9.362L25,9.362z"/>
	<path fill="#A6A6A6" d="M40.703,35.106c-0.426,0-0.638,0.213-0.638,0.213s-5.319,4.255-14.894,4.255s-14.894-4.255-14.894-4.255
		s-0.426-0.213-0.638-0.213c-0.426,0-0.851,0.213-0.851,0.851v0.213c0.851,4.468,1.489,7.66,1.489,8.085
		C10.916,47.447,17.299,50,24.958,50l0,0c7.66,0,14.043-2.553,14.681-5.745c0-0.426,0.638-3.617,1.489-8.085v-0.213
		C41.341,35.532,41.128,35.106,40.703,35.106L40.703,35.106z"/>
	<circle fill="#A6A6A6" cx="25" cy="24.043" r="3.404"/>
</g>
</svg>
