<?xml version="1.0" encoding="utf-8"?>
<!-- Generator: Adobe Illustrator 17.0.0, SVG Export Plug-In . SVG Version: 6.00 Build 0)  -->
<!DOCTYPE svg PUBLIC "-//W3C//DTD SVG 1.1//EN" "http://www.w3.org/Graphics/SVG/1.1/DTD/svg11.dtd">
<svg version="1.1"
	 id="svg2" xmlns:dc="http://purl.org/dc/elements/1.1/" xmlns:cc="http://creativecommons.org/ns#" xmlns:rdf="http://www.w3.org/1999/02/22-rdf-syntax-ns#" xmlns:svg="http://www.w3.org/2000/svg" xmlns:sodipodi="http://sodipodi.sourceforge.net/DTD/sodipodi-0.dtd" xmlns:inkscape="http://www.inkscape.org/namespaces/inkscape" inkscape:version="0.48.0 r9654" sodipodi:docname="headshot.svg"
	 xmlns="http://www.w3.org/2000/svg" xmlns:xlink="http://www.w3.org/1999/xlink" x="0px" y="0px" width="50px" height="50px"
	 viewBox="65 65 50 50" enable-background="new 65 65 50 50" xml:space="preserve">
<sodipodi:namedview  inkscape:cy="28.333333" inkscape:cx="85.437483" inkscape:zoom="2.67" showgrid="false" guidetolerance="10" gridtolerance="10" objecttolerance="10" bordercolor="#666666" pagecolor="#ffffff" borderopacity="1" id="namedview4" inkscape:current-layer="g10" inkscape:window-maximized="0" inkscape:window-y="562" inkscape:window-x="2281" inkscape:window-height="844" inkscape:window-width="1500" inkscape:pageshadow="2" inkscape:pageopacity="0">
	</sodipodi:namedview>
<g id="layer1" inkscape:label="background" inkscape:groupmode="layer" display="none">
	<path id="path26-6" inkscape:connector-curvature="0" display="inline" fill="#231F20" d="M21.51,69.511
		C3.511,87.927-7.626,113.354-7.626,141.484l0,0c0,28.124,11.138,53.554,29.137,71.967l0,0
		c18.007,18.413,42.824,29.775,70.261,29.775l0,0c27.437,0,52.256-11.362,70.262-29.775l0,0
		c17.998-18.413,29.138-43.843,29.138-71.967l0,0c0-28.13-11.14-53.557-29.138-71.973l0,0
		c-18.006-18.409-42.825-29.771-70.262-29.773l0,0C64.335,39.74,39.518,51.101,21.51,69.511L21.51,69.511z M16.954,217.905
		C-2.174,198.342-14,171.306-14,141.484l0,0c0-29.827,11.826-56.861,30.954-76.425l0,0c19.124-19.568,45.597-31.696,74.817-31.693
		l0,0c29.22-0.004,55.696,12.125,74.816,31.693l0,0c19.13,19.564,30.957,46.6,30.955,76.425l0,0
		c0.002,29.823-11.825,56.859-30.955,76.421l0,0c-19.121,19.566-45.596,31.694-74.816,31.694l0,0
		C62.551,249.598,36.078,237.471,16.954,217.905L16.954,217.905"/>
	<path id="path22" inkscape:connector-curvature="0" display="inline" fill="#D33833" d="M194.358,141.092
		c0,57.951-45.929,104.93-102.586,104.93c-56.656,0-102.585-46.979-102.585-104.93c0-57.952,45.929-104.932,102.585-104.932
		C148.429,36.16,194.358,83.14,194.358,141.092"/>
	<path id="path24" inkscape:connector-curvature="0" display="inline" fill="#EF3D3A" d="M-6.632,167.08
		c0,0-7.426-109.424,93.401-112.551l-7.034-11.724L25.023,61.172L9.391,79.149l-13.678,26.185l-7.817,30.483l2.345,20.321"/>
	<path id="path26" inkscape:connector-curvature="0" display="inline" fill="#231F20" d="M21.51,69.511
		C3.511,87.927-7.626,113.354-7.626,141.484l0,0c0,28.124,11.138,53.554,29.137,71.967l0,0
		c18.007,18.413,42.824,29.775,70.261,29.775l0,0c27.437,0,52.256-11.362,70.262-29.775l0,0
		c17.998-18.413,29.138-43.843,29.138-71.967l0,0c0-28.13-11.14-53.557-29.138-71.973l0,0
		c-18.006-18.409-42.825-29.771-70.262-29.773l0,0C64.335,39.74,39.518,51.101,21.51,69.511L21.51,69.511z M16.954,217.905
		C-2.174,198.342-14,171.306-14,141.484l0,0c0-29.827,11.826-56.861,30.954-76.425l0,0c19.124-19.568,45.597-31.696,74.817-31.693
		l0,0c29.22-0.004,55.696,12.125,74.816,31.693l0,0c19.13,19.564,30.957,46.6,30.955,76.425l0,0
		c0.002,29.823-11.825,56.859-30.955,76.421l0,0c-19.121,19.566-45.596,31.694-74.816,31.694l0,0
		C62.551,249.598,36.078,237.471,16.954,217.905L16.954,217.905"/>
</g>
<g>
	<g id="g10" transform="matrix(1.25,0,0,-1.25,0,180)" inkscape:label="front" inkscape:groupmode="layer">
		<path id="path66_1_" inkscape:connector-curvature="0" fill="#A6A6A6" d="M80.963,61.47"/>
		<path id="path100" inkscape:connector-curvature="0" fill="#A6A6A6" d="M73.062,82.951c-2.349,0.547-3.516-0.983-4.227-2.57
			c-0.636,0.154-0.383,1.019-0.222,1.459c0.42,1.156,2.114,2.695,3.499,2.486C72.707,84.237,73.513,83.693,73.062,82.951"/>
		<path id="path102" inkscape:connector-curvature="0" fill="#A6A6A6" d="M84.505,80.277c0.037-0.002,0.074-0.003,0.111-0.004
			c0.531-1.103,0.99-2.27,1.66-3.244c-0.449-1.045-3.396-1.969-3.351-0.093c0.637,0.279,1.738,0.057,2.303,0.413
			C84.902,78.245,84.43,79.008,84.505,80.277"/>
		<path id="path104" inkscape:connector-curvature="0" fill="#A6A6A6" d="M74.265,80.248c0.504-0.923,0.667-1.893,1.383-2.591
			c0.322-0.314,0.949-0.697,0.639-1.57c-0.073-0.206-0.603-0.665-0.91-0.756c-1.119-0.33-3.727-0.068-2.844,1.327
			c0.925-0.043,2.169-0.601,2.861,0.071C74.863,77.578,73.916,79.258,74.265,80.248"/>
		<path id="path106" inkscape:connector-curvature="0" fill="#A6A6A6" d="M84.085,70.866c-1.685-1.082-3.564-2.259-6.325-1.986
			c-0.59,0.513-0.815,1.654-0.242,2.408c0.298-0.513,0.111-1.456,0.942-1.598c1.567-0.268,3.39,0.958,4.517,1.387
			c0.699,1.178-0.06,1.611-0.69,2.369c-1.289,1.553-3.017,3.479-2.954,5.804c0.521,0.378,0.566-0.576,0.641-0.75
			c0.673-1.575,2.366-3.589,3.602-4.937c0.303-0.332,0.803-0.65,0.859-0.87C84.595,72.055,84.018,71.29,84.085,70.866"/>
		<path id="path108" inkscape:connector-curvature="0" fill="#A6A6A6" d="M61.872,72.005c-0.528,0.301-0.654,1.629-1.274,1.667
			c-0.886,0.054-0.725-1.722-0.721-2.761c-0.61,0.554-0.717,2.259-0.269,3.134c-0.511,0.251-0.739-0.277-1.022-0.462
			C58.951,76.227,62.455,74.809,61.872,72.005"/>
		<path id="path110" inkscape:connector-curvature="0" fill="#A6A6A6" d="M85.158,69.765c-0.784-1.493-1.894-3.137-4.195-3.185
			c-0.047,0.482-0.083,1.216,0.002,1.506C82.725,68.255,83.811,69.15,85.158,69.765"/>
		<path id="path112" inkscape:connector-curvature="0" fill="#A6A6A6" d="M74.132,68.797c1.468-0.772,4.166-0.855,6.161-0.796
			c0.107-0.437,0.104-0.977,0.109-1.51C77.837,66.362,74.804,66.997,74.132,68.797"/>
		<path id="path114" inkscape:connector-curvature="0" fill="#A6A6A6" d="M73.853,67.357c1.015-2.549,4.504-2.255,7.446-2.185
			c-0.13-0.331-0.41-0.722-0.759-0.863c-0.943-0.384-3.543-0.675-4.852,0.02c-0.83,0.441-1.363,1.438-1.818,2.023
			C73.65,66.635,72.556,67.356,73.853,67.357"/>
	</g>
	<path fill="#A6A6A6" d="M111.454,106.308c-0.138-1.092-1.842-2.24-2.738-3.105c-0.498-0.48-2.82-2.244-2.955-2.904
		c-0.131-0.639,0.947-2.085,1.294-2.809c0.497-1.036,0.853-2.303,1.099-3.165c1.827-6.422,2.012-15.244-0.599-20.523
		c-0.989-2-3.753-4.761-5.483-6.069c-4.079-3.085-11.618-3.425-16.533-1.617c-1.37,0.504-2.696,0.955-3.9,1.662
		c-3.219,1.89-6.636,3.154-7.59,6.957c-2.352,1.053-3.061,4.063-2.943,7.556c0.023,0.681,0.393,1.532,0.264,2.172
		c-0.065,0.325-0.506,0.741-0.594,0.953c-1.127,2.687-0.224,6.221,1.079,8.13c0.787,1.154,2.091,2.177,3.81,2.449
		c0.068,1.03,0.316,1.916,0.792,2.959c0.301,0.66,1.425,1.847,1.011,2.688c-0.208,0.425-2.039,1.346-2.646,1.711
		c-2.05,1.23-3.535,1.983-5.428,3.346c-1.224,0.881-3.139,0.994-2.837,3.028c0.204,1.372,0.984,3.072,1.431,4.448
		c0.091,0.279,0.194,0.551,0.296,0.823h40.832c0.503-1.563,0.996-3.16,1.492-4.82C110.942,109.059,111.602,107.47,111.454,106.308z
		 M84.129,68.294c0.177-0.05,0.332,0.07,0.479,0.228c-0.019,0.511-0.522,0.5-0.863,0.664c-0.53,0.65-1.303,0.955-1.947,1.668
		c-0.66,0.73-1.399,2.693-2.275,2.91c-0.439,0.109-0.94-0.076-1.322-0.051c-1.011,0.064-1.723,0.581-2.748,0.73
		C76.778,71.548,80.907,69.207,84.129,68.294z M73.946,77.382c1.313-1.446,3.123-2.346,5.327-2.513
		c1.135,2.889-0.814,6.321-0.088,9.48c0.222,0.967,0.992,2.468-0.237,2.501c0.032-2.752-3.382-4.499-5.954-2.88
		C72.821,81.882,72.523,78.948,73.946,77.382z M77.515,96.835c-0.096-0.4-0.262-1.254-0.221-1.473
		c0.155-0.846,1.662-1.217,1.069-2.399c-1.093-0.01-1.34,0.996-2.343,1.095c-2.598,0.257-4.43-3.443-4.312-5.676
		c0.1-1.898,1.705-3.715,3.9-3.475c1.551,0.17,2.078,1.863,2.379,3.37c0.894,0.048,2.186-0.038,2.609-0.736
		c-0.061-1.703-0.851-3.068-0.797-4.633c0.102-2.94,1.704-5.593,0.468-8.489c1.323-3.001,5.203-5.368,8.073-6.8
		c3.557-1.773,9.217-0.354,12.562,1.533c1.921,1.084,3.339,3.179,4.69,4.923c-1.895-0.563-3.509,0.404-3.215,1.968
		c1.587-1.454,4.297-0.016,5.098,1.592c0.767,1.537,0.762,3.815,0.879,6.1c0.286,5.541-1.014,11.258-3.798,15.263
		c-0.744,1.07-1.369,2.238-2.416,2.974c-2.523,1.772-6.358,3.378-9.642,2.276c-4.34-1.456-6.311-4.348-8.698-7.659
		c0.065,1.819,1.344,3.311,2.607,4.703c1.099,1.213,2.426,2.583,3.853,3.148c-1.191-0.28-3.018-0.367-3.514,0.701
		c-2.777-0.185-5.359-0.468-6.673-2.351C79.038,101.308,77.987,98.785,77.515,96.835z M95.402,112.101
		c0.203-0.215,0.385-0.454,0.584-0.674c0.87,0.364,1.438-0.478,2.107-0.406c0.767,0.081,1.374,1.141,2.469,1.071
		c-0.025,0.408-0.038,0.814-0.056,1.221h-1.371c-0.015-0.313-0.27-0.565-0.587-0.565c-0.317,0-0.571,0.252-0.587,0.565h-1.706
		C95.991,112.891,95.715,112.478,95.402,112.101z M97.414,106.95c-1.633,0.081-2.524-0.113-3.724-1.051
		c0.02-0.075,0.14-0.042,0.145-0.134c1.748,0.779,3.97-0.317,5.736-0.475C98.803,105.791,98.15,106.416,97.414,106.95z
		 M96.243,110.181c-0.16-0.909-0.344-1.169-0.273-1.962C98.396,106.602,98.851,110.997,96.243,110.181z M93.846,113.313
		c0.207-0.138,0.414-0.275,0.618-0.412c0.104,0.132,0.195,0.276,0.294,0.412H93.846z M101.337,113.313
		c0.022-0.382,0.043-0.762,0.058-1.119c1.517-0.71,2.816,0.128,3.466,1.119H101.337z M103.944,111.177
		c-1.828-0.054-3.479-0.271-4.925-0.679c0.098-0.593-0.086-1.174,0.062-1.601c0.403-0.29,1.078-0.286,1.687-0.354
		c-0.527-0.259-1.267-0.361-1.874-0.212c-0.014-0.411-0.199-0.666-0.311-0.988c1.028-0.367,3.453-2.771,4.818-1.975
		c0.65,0.379,0.926,2.542,0.977,3.594C104.421,109.835,104.3,110.715,103.944,111.177z M86.363,106.034
		c0.07,0.43-0.278,0.995-0.271,1.594c-1.13-0.069-4.678-1.36-3.745-2.307C83.258,105.954,85.022,105.798,86.363,106.034z
		 M78.231,103.557c0.271-0.107,2.252,2.471,2.545,2.679c1.606,1.14,3.6,2.041,5.465,2.93c0.114,0.856,0.378,1.965,0.842,3.449
		c0.07,0.224,0.139,0.46,0.211,0.698H69.7c-0.417-1.232-0.867-2.441-1.4-3.586C71.295,107.415,74.647,104.971,78.231,103.557z
		 M88.83,114.357c-0.351-0.081-0.382-0.516-0.522-0.926c-0.299-0.878-0.986-2.275-1.046-3.597c-0.076-1.669-0.245-4.467,1.554-4.123
		c1.451,0.277,3.139,0.946,4.263,1.559c0.687,0.376,1.084,0.84,2.126,0.92c-0.005,0.138-0.011,0.278-0.016,0.417
		c-0.571,0.375-1.492,0.37-2.118,0.685c0.923,0.04,1.65,0.263,2.279,0.576c-0.014,0.348-0.027,0.696-0.041,1.045
		c-1.046,0.716-2.001,1.782-3.233,2.454C91.493,113.684,89.449,114.502,88.83,114.357z M109.44,109.717
		c-0.224,1.106-0.57,2.364-0.976,3.653c-0.042-0.026-0.083-0.056-0.136-0.056h-2.616c0.06-0.107,0.124-0.21,0.184-0.317
		c-0.254-0.593-0.876-0.845-1.057-1.504c1.171-2.21,0.632-9.071-2.354-7.623c0.418-0.613,1.514-1.12,2.025-1.874
		c1.26,1.015,2.021,1.969,3.228,3.054c0.656,0.587,1.945,1.292,2.075,2.242C109.886,107.822,109.56,109.121,109.44,109.717z"/>
</g>
</svg>
