<?xml version="1.0" encoding="utf-8"?>
<!-- Generator: Adobe Illustrator 17.0.0, SVG Export Plug-In . SVG Version: 6.00 Build 0)  -->
<!DOCTYPE svg PUBLIC "-//W3C//DTD SVG 1.1//EN" "http://www.w3.org/Graphics/SVG/1.1/DTD/svg11.dtd">
<svg version="1.1" id="Layer_1" xmlns="http://www.w3.org/2000/svg" xmlns:xlink="http://www.w3.org/1999/xlink" x="0px" y="0px"
	 width="50px" height="50px" viewBox="0 0 50 50" enable-background="new 0 0 50 50" xml:space="preserve">
<g>
	<path fill="#205081" d="M25,0.083L25,0.083c-11.895,0-21.666,3.186-21.666,7.222c0,1.062,2.549,16.144,3.611,22.091
		C7.37,32.157,14.379,35.981,25,35.981l0,0c10.621,0,17.418-3.823,18.055-6.585c1.062-5.948,3.611-21.029,3.611-22.091
		C46.454,3.269,36.895,0.083,25,0.083L25,0.083z M25,31.095c-3.823,0-6.797-2.974-6.797-6.797s2.974-6.797,6.797-6.797
		s6.797,2.974,6.797,6.797C31.797,27.909,28.823,31.095,25,31.095L25,31.095z M25,9.429c-7.647,0-13.807-1.274-13.807-2.974
		c0-1.699,6.16-2.974,13.807-2.974s13.807,1.274,13.807,2.974C38.807,8.154,32.647,9.429,25,9.429L25,9.429z"/>
	<path fill="#205081" d="M40.677,35.131c-0.425,0-0.637,0.212-0.637,0.212s-5.31,4.248-14.869,4.248s-14.869-4.248-14.869-4.248
		s-0.425-0.212-0.637-0.212c-0.425,0-0.85,0.212-0.85,0.85v0.212c0.85,4.461,1.487,7.647,1.487,8.072
		C10.939,47.451,17.311,50,24.958,50l0,0c7.647,0,14.019-2.549,14.657-5.735c0-0.425,0.637-3.611,1.487-8.072v-0.212
		C41.314,35.556,41.102,35.131,40.677,35.131L40.677,35.131z"/>
	<circle fill="#205081" cx="25" cy="24.085" r="3.399"/>
</g>
</svg>
