<?xml version="1.0" encoding="utf-8"?>
<!-- Generator: Adobe Illustrator 17.0.0, SVG Export Plug-In . SVG Version: 6.00 Build 0)  -->
<!DOCTYPE svg PUBLIC "-//W3C//DTD SVG 1.1//EN" "http://www.w3.org/Graphics/SVG/1.1/DTD/svg11.dtd">
<svg version="1.1" id="Layer_1" xmlns="http://www.w3.org/2000/svg" xmlns:xlink="http://www.w3.org/1999/xlink" x="0px" y="0px"
	 width="60px" height="60px" viewBox="0 0 60 60" enable-background="new 0 0 60 60" xml:space="preserve">
<g>
	<path fill="#E24329" d="M30,57.604L30,57.604l11.035-33.963H18.965L30,57.604L30,57.604z"/>
	<path fill="#FC6D26" d="M30,57.604L18.965,23.641H3.499L30,57.604L30,57.604z"/>
	<path fill="#FCA326" d="M3.499,23.641L3.499,23.641L0.145,33.962c-0.306,0.941,0.029,1.973,0.83,2.554L30,57.604L3.499,23.641
		L3.499,23.641z"/>
	<path fill="#E24329" d="M3.499,23.641h15.466L12.318,3.185c-0.342-1.053-1.831-1.052-2.173,0L3.499,23.641L3.499,23.641z"/>
	<path fill="#FC6D26" d="M30,57.604l11.035-33.963h15.466L30,57.604L30,57.604z"/>
	<path fill="#FCA326" d="M56.501,23.641L56.501,23.641l3.353,10.321c0.306,0.941-0.029,1.973-0.83,2.554L30,57.604L56.501,23.641
		L56.501,23.641z"/>
	<path fill="#E24329" d="M56.501,23.641H41.035l6.647-20.456c0.342-1.053,1.831-1.052,2.173,0L56.501,23.641L56.501,23.641z"/>
</g>
</svg>
