<?xml version="1.0" encoding="utf-8"?>
<!-- Generator: Adobe Illustrator 17.0.0, SVG Export Plug-In . SVG Version: 6.00 Build 0)  -->
<!DOCTYPE svg PUBLIC "-//W3C//DTD SVG 1.1//EN" "http://www.w3.org/Graphics/SVG/1.1/DTD/svg11.dtd">
<svg version="1.1" id="Layer_1" xmlns="http://www.w3.org/2000/svg" xmlns:xlink="http://www.w3.org/1999/xlink" x="0px" y="0px"
	 width="50px" height="50px" viewBox="0 0 50 50" enable-background="new 0 0 50 50" xml:space="preserve">
<g>
	<path fill="#FFFFFF" d="M32.864,49.205c-1.262,0.227-1.683-0.55-1.683-1.197c0-0.809,0-3.495,0-6.829
		c0-2.33-0.777-3.819-1.683-4.596c5.534-0.615,11.36-2.719,11.36-12.266c0-2.719-0.971-4.952-2.557-6.667
		c0.259-0.647,1.101-3.172-0.259-6.602c-2.071-0.647-6.829,2.557-6.829,2.557c-1.974-0.55-4.111-0.842-6.214-0.842
		c-2.104,0-4.24,0.291-6.214,0.842c0,0-4.758-3.204-6.861-2.557c-1.327,3.431-0.485,5.955-0.227,6.602
		c-1.586,1.715-2.557,3.949-2.557,6.667c0,9.515,5.793,11.651,11.327,12.266c-0.712,0.647-1.359,1.716-1.586,3.334
		c-1.424,0.647-5.049,1.747-7.217-2.071c-1.36-2.363-3.819-2.557-3.819-2.557c-2.427-0.032-0.162,1.521-0.162,1.521
		c1.618,0.745,2.751,3.625,2.751,3.625c1.457,4.434,8.382,2.945,8.382,2.945c0,2.071,0.032,4.045,0.032,4.628
		c0,0.647-0.453,1.424-1.715,1.197C7.264,45.904,0.144,36.582,0.144,25.611C0.144,11.888,11.277,0.755,25,0.755
		s24.856,11.133,24.856,24.856C49.856,36.582,42.736,45.904,32.864,49.205z"/>
</g>
</svg>
