<?xml version="1.0" encoding="utf-8"?>
<!-- Generator: Adobe Illustrator 17.0.0, SVG Export Plug-In . SVG Version: 6.00 Build 0)  -->
<!DOCTYPE svg PUBLIC "-//W3C//DTD SVG 1.1//EN" "http://www.w3.org/Graphics/SVG/1.1/DTD/svg11.dtd">
<svg version="1.1" id="Layer_1" xmlns="http://www.w3.org/2000/svg" xmlns:xlink="http://www.w3.org/1999/xlink" x="0px" y="0px"
	 width="50px" height="50px" viewBox="0 0 50 50" enable-background="new 0 0 50 50" xml:space="preserve">
<g>
	<path fill="#A6A6A6" d="M38.559,21.843c-0.001-0.52-0.422-0.988-0.988-0.988c-0.229,0-0.463,0.078-0.655,0.251
		c-2.501,2.249-6.758,4.238-11.906,4.251h-0.02c-5.139-0.013-9.273-2.081-11.906-4.251c-0.166-0.137-0.475-0.231-0.675-0.231
		c-0.612,0-0.968,0.521-0.969,1.094c0,0.441,0.31,0.811,0.564,1.193c1.476,2.218,6.053,5.982,12.941,5.982h0.108
		c6.888,0,11.466-3.764,12.941-5.982C38.25,22.781,38.559,22.286,38.559,21.843L38.559,21.843z"/>
	<path fill="#A6A6A6" d="M38.764,43.205c0.077,0.104,0.119,0.192,0.119,0.287c0,0.144-0.137,0.243-0.308,0.243
		c-1.244,0-5.076-2.066-7.093-3.769c-0.277-0.233-0.663-0.318-1.212-0.199c-1.682,0.367-3.447,0.564-5.27,0.564
		c-11.412,0-20.665-7.644-20.665-17.075c0-9.427,9.253-17.069,20.665-17.069s20.664,7.641,20.664,17.069
		c0,5.628-3.295,10.618-8.376,13.728c-0.34,0.208-0.701,0.599-0.701,1.088C36.587,39.077,37.529,41.566,38.764,43.205L38.764,43.205
		z M45.408,45.288c-1.754-0.999-3.418-2.69-4.18-5.006c-0.15-0.455-0.017-0.821,0.333-1.091c5.074-3.925,8.266-9.623,8.266-15.971
		c0-11.836-11.116-21.432-24.826-21.432c-13.712,0-24.828,9.596-24.828,21.432c0,11.842,11.116,21.44,24.828,21.44
		c1.791,0,3.539-0.165,5.222-0.476c0.413-0.076,0.749,0.021,1.024,0.19c3.398,2.086,8.457,3.836,12.895,3.836
		c1.43,0,1.979-0.907,1.979-1.734C46.121,45.945,45.833,45.531,45.408,45.288L45.408,45.288z"/>
</g>
</svg>
