<?xml version="1.0" encoding="utf-8"?>
<!-- Generator: Adobe Illustrator 17.0.0, SVG Export Plug-In . SVG Version: 6.00 Build 0)  -->
<!DOCTYPE svg PUBLIC "-//W3C//DTD SVG 1.1//EN" "http://www.w3.org/Graphics/SVG/1.1/DTD/svg11.dtd">
<svg version="1.1" id="Layer_1" xmlns="http://www.w3.org/2000/svg" xmlns:xlink="http://www.w3.org/1999/xlink" x="0px" y="0px"
	 width="50px" height="50px" viewBox="0 0 50 50" enable-background="new 0 0 50 50" xml:space="preserve">
<g>
	<path fill="#A6A6A6" d="M32.415,30.024c0.06,1.656,0.945,1.644,1.999,1.605c1.419-0.026,2.198-0.461,2.909-0.118
		c-0.011-0.04-0.234-0.704-1.216-0.589c0.114-0.246,0.163-0.579,0.128-1.036c-0.129-1.655-1.092-2.969-2.148-2.932
		C33.034,26.99,32.357,28.364,32.415,30.024L32.415,30.024z M33.988,28.005c0.297-0.006,0.544,0.231,0.548,0.529
		c0.006,0.297-0.232,0.544-0.528,0.549c-0.298,0.005-0.544-0.234-0.549-0.532C33.453,28.255,33.691,28.01,33.988,28.005
		L33.988,28.005z"/>
	<path fill="#A6A6A6" d="M17.952,31.927c0.109,0.002,0.224,0,0.34-0.002c0.102,0,0.204-0.002,0.311-0.006
		c1.057-0.01,1.933,0.089,1.919-1.568c-0.017-1.657-0.753-2.999-1.81-2.988c-1.055,0.01-2.076,1.369-2.015,3.025
		c0.019,0.432,0.082,0.743,0.184,0.968c-0.919,0.232-1.174,0.8-1.189,0.836C16.272,31.88,16.926,31.925,17.952,31.927L17.952,31.927
		z M18.861,28.405c0.298-0.01,0.545,0.226,0.555,0.524c0.007,0.297-0.229,0.545-0.525,0.553c-0.298,0.01-0.547-0.227-0.554-0.524
		C18.328,28.661,18.562,28.411,18.861,28.405L18.861,28.405z"/>
	<path fill="#A6A6A6" d="M21.341,10.746h2.964V9.524h0.667v5.647h-1.008v3.159h5.189v-3.159h-1.009V9.524h0.668v1.222h2.967V6.561
		H21.341V10.746z"/>
	<path fill="#A6A6A6" d="M49.144,18.816c-0.019-0.359-0.053-0.717-0.102-1.07c-0.025-0.179-0.051-0.358-0.088-0.533
		c-0.035-0.181-0.07-0.349-0.128-0.547l-0.037-0.139l-0.098-0.078c-0.565-0.442-1.173-0.778-1.79-1.073
		c-0.511-0.241-1.029-0.451-1.552-0.644c-1.462-4.055-3.972-7.65-7.275-10.153C34.661,1.99,30.647,0.62,26.468,0.62
		c-4.182,0-8.194,1.37-11.608,3.959c-2.6,1.97-4.706,4.619-6.198,7.634H8.655c-0.404,0.816-0.766,1.656-1.077,2.519
		c-0.524,0.193-1.042,0.403-1.553,0.644c-0.619,0.296-1.225,0.631-1.79,1.073l-0.099,0.078l-0.037,0.139
		c-0.057,0.198-0.094,0.365-0.129,0.547c-0.035,0.175-0.063,0.354-0.087,0.533c-0.036,0.255-0.06,0.513-0.081,0.771H3.81
		c-0.009,0.099-0.016,0.199-0.021,0.299c-0.036,0.717-0.016,1.434,0.062,2.147c0.076,0.712,0.207,1.416,0.398,2.116
		c0.099,0.348,0.212,0.689,0.347,1.031c0.066,0.17,0.138,0.339,0.219,0.509c0.04,0.084,0.083,0.168,0.127,0.253l0.071,0.125
		c0.027,0.047,0.046,0.081,0.087,0.142l0.071,0.112l0.114,0.058c0.121,0.062,0.221,0.108,0.33,0.16l0.318,0.144
		c0.058,0.024,0.116,0.048,0.176,0.073c-1.45,1.339-3.025,3.08-4.388,5.231L0,33.631l2.416-2.121
		c0.042-0.036,2.067-1.789,5.446-3.778l0.047,0.389l0.123,0.98l0.619,5.028c0.014,0.096,0.063,0.181,0.143,0.236l1.268,0.891
		c0.022,0.071,0.043,0.142,0.065,0.215c0.03,0.101,0.057,0.2,0.088,0.301l0.289,0.873c0.635,1.974,1.534,3.754,2.629,5.318
		c-0.052,0.016-0.106,0.031-0.158,0.046c-0.66-0.306-2.964-1.374-3.738-1.723L7.619,39.56l0.958,1.494
		c0.07,0.108,1.722,2.685,3.07,4.421c1.263,1.621,2.991,3.276,6.251,3.276c0.391,0,0.804-0.025,1.226-0.07
		c0.973-0.113,1.703-0.2,2.258-0.272c3.421,1.26,7.195,1.334,10.777-0.021c0.981-0.373,1.875-0.824,2.693-1.33
		c0.017-0.002,0.034-0.007,0.048-0.011c1.332-0.321,2.844-0.682,3.59-0.891c0.119-0.032,0.27-0.068,0.425-0.106
		c1.04-0.237,2.778-0.642,3.703-2.496c0.933-1.871,2.456-4.736,2.471-4.764l0.713-1.333l-1.385,0.603
		c-0.076,0.032-1.832,0.799-2.745,1.277c-0.031,0.019-0.071,0.035-0.107,0.052c0.743-1.514,1.113-2.721,1.246-3.184l0.501-2.066
		l1.442-3.226c0,0,0.405-3.527,0.414-3.524l0.142-1.349c0.127-0.053,0.897-0.107,1.047-0.166c0.215-0.084,0.43-0.168,0.645-0.261
		l0.317-0.144c0.112-0.052,0.211-0.098,0.332-0.16l0.114-0.058l0.072-0.112c0.04-0.061,0.062-0.096,0.086-0.142l0.07-0.125
		c0.048-0.086,0.089-0.169,0.128-0.253c0.081-0.169,0.152-0.338,0.221-0.509c0.133-0.342,0.243-0.683,0.344-1.031
		c0.189-0.699,0.325-1.404,0.398-2.116C49.163,20.251,49.18,19.533,49.144,18.816L49.144,18.816z M16.231,27.521
		c0.031-0.021,1.327-0.871,3.442-1.906c2.109-0.16,4.436-0.262,6.93-0.262c0.606,0,1.201,0.009,1.789,0.019
		c-0.41,0.33-0.842,0.642-1.292,0.912l-1.494,0.904c-0.943,0.114-1.76,0.349-1.805,0.362c-0.029,0.007-0.055,0.02-0.078,0.034
		c-0.073,0.042-0.129,0.112-0.154,0.194l-1.528,5.033l-8.156,1.813l-2.57-1.8l-0.748-6.054c1.458-0.27,3.411-0.579,5.754-0.841
		c-0.251,0.298-0.496,0.614-0.726,0.947L14.2,28.879L16.231,27.521L16.231,27.521z M27.237,48.583
		c-1.345,0.089-2.712-0.068-4.05-0.435c0.112-0.022,0.193-0.035,0.292-0.046c0.109-0.015,2.511-0.33,3.59-1.935l0.102,0.002
		l0.268-0.002c0.178,0,0.339-0.015,0.512-0.022c0.41-0.034,0.806-0.093,1.2-0.173c0.042,0.041,0.082,0.082,0.125,0.127
		c0.811,0.804,1.819,1.265,2.926,1.345C30.341,48.2,28.588,48.493,27.237,48.583L27.237,48.583z M27.359,45.638
		c0.202-0.451,0.355-0.803,0.471-1.067c0.239,0.266,0.54,0.595,0.88,0.947c-0.265,0.04-0.525,0.073-0.783,0.094
		c-0.169,0.007-0.345,0.026-0.507,0.026H27.359L27.359,45.638z M23.358,35.25l0.729-0.164c0.121-0.026,0.215-0.117,0.251-0.234
		l1.523-5.01c0.263-0.035,0.494-0.053,0.694-0.053c0.194,0,0.429,0.019,0.691,0.053l1.568,5.159c0.04,0.132,0.153,0.227,0.287,0.242
		l0.581,0.066l0.149,0.016l10.015,1.139c0.083,0.01,0.165-0.014,0.234-0.061l1.006-0.703l0.93-0.651l0.344-0.242
		c-0.056,0.24-0.118,0.478-0.183,0.713c-0.096,0.308-0.198,0.606-0.299,0.902c-0.411,1.17-0.872,2.232-1.374,3.191
		c-0.137,0.009-0.284,0.015-0.44,0.015c-0.487,0-0.981-0.04-1.529-0.091c-0.952-0.088-2.459-0.261-2.933-0.314
		c-0.414-0.329-1.819-1.444-2.985-2.364c-0.045-0.035-0.084-0.072-0.125-0.104c-0.205-0.174-0.439-0.37-0.912-0.37
		c-0.432,0-1.061,0.157-2.58,0.615c0.791-0.591,0.798-1.353,0.798-1.353s-1.126,1.049-2.942,1.28
		c-1.811,0.234-3.236-0.881-3.236-0.881c0.06,0.194,0.144,0.632,0.555,1.004c-0.483-0.056-1.005-0.096-1.553-0.096
		c-0.196,0-0.398,0.005-0.59,0.015c-1.116,0.06-2.686,1.744-3.788,3.445c-0.542,0.171-2.235,0.709-4.193,1.285
		c-1.157-1.6-1.94-3.224-2.384-4.269c-0.258-0.609-0.403-1.022-0.435-1.121v-0.002c-0.036-0.099-0.075-0.205-0.108-0.311l0.47,0.328
		v0.002l1.162,0.815l0.388,0.27c0.058,0.041,0.129,0.062,0.196,0.062c0.025,0,0.05-0.002,0.076-0.007L23.358,35.25z M29.537,27.777
		c-0.035-0.112-0.122-0.195-0.234-0.229c-0.051-0.016-1.058-0.303-2.128-0.394l0.196-0.015c0.169-0.012,2.978-0.355,6.333-1.513
		c3.716,0.284,6.749,0.74,8.824,1.118l-0.734,5.151l-2.591,1.813l-8.146-0.926L29.537,27.777z M47.42,20.838
		c-0.091,0.663-0.391,1.955-0.391,1.955l-0.235,0.039c-0.123-0.034-1.268-0.33-3.241-0.696c0.063-0.014,0.124-0.027,0.184-0.041
		c0.409-0.102,0.811-0.227,1.203-0.385c0.194-0.083,0.388-0.171,0.57-0.276c0.181-0.106,0.359-0.222,0.498-0.38
		c-1.975,0.646-6.057,0.353-9.686-0.022c-3.316-0.343-6.644-0.564-9.988-0.571c-3.343,0.007-6.667,0.23-9.987,0.571
		c-3.629,0.375-7.71,0.668-9.685,0.022c0.139,0.157,0.318,0.275,0.501,0.38c0.181,0.104,0.374,0.191,0.568,0.276
		c0.39,0.157,0.795,0.283,1.204,0.385c0.144,0.034,0.291,0.066,0.437,0.092c-1.8,0.342-2.842,0.612-2.959,0.645
		c0,0-0.415,0.067-0.506-0.251c-0.18-0.636-0.301-1.081-0.391-1.743c-0.086-0.66-0.129-1.327-0.124-1.993
		c0.001-0.109-0.001-0.328-0.001-0.328c0.006-0.224,0.016-0.447,0.037-0.671c0.012-0.165,0.62-0.694,1.142-0.995
		c0.564-0.328,1.157-0.624,1.76-0.898c0.598-0.283,2.534-0.694,3.702-0.906c1.168-0.214,5.344-0.768,5.657-0.885
		c0.312-0.119,2.117-1.511,2.432-1.626c-0.663,0.109-9.829,1.509-10.241,1.64c2.975-7.78,8.815-11.569,16.588-11.569
		c7.771,0,13.612,3.578,16.59,11.36c-3.931-1.045-9.374-1.532-10.038-1.642c0.316,0.116,2.101,1.371,2.432,1.414
		c2.718,0.353,7.004,1.303,7.315,1.426c0.616,0.25,1.234,0.507,1.832,0.789c0.605,0.275,1.196,0.57,1.76,0.898
		c0.522,0.302,1.128,0.83,1.143,0.995c0.029,0.333,0.041,0.665,0.045,0.998C47.551,19.51,47.505,20.179,47.42,20.838L47.42,20.838z"
		/>
</g>
</svg>
