<?xml version="1.0" encoding="utf-8"?>
<!-- Generator: Adobe Illustrator 17.0.0, SVG Export Plug-In . SVG Version: 6.00 Build 0)  -->
<!DOCTYPE svg PUBLIC "-//W3C//DTD SVG 1.1//EN" "http://www.w3.org/Graphics/SVG/1.1/DTD/svg11.dtd">
<svg version="1.1" id="Layer_1" xmlns="http://www.w3.org/2000/svg" xmlns:xlink="http://www.w3.org/1999/xlink" x="0px" y="0px"
	 width="50px" height="50px" viewBox="0 0 50 50" enable-background="new 0 0 50 50" xml:space="preserve">
<g>
	<g>
		<path fill="#A6A6A6" d="M32.817,31.241C43.979,20.282,43.624,12.52,43.624,12.52c0.002-1.842-1.598-0.823-1.598-0.823
			c-2.967,2.386-7.23,2.447-7.23,2.447c-1.229,5.326-7.953,11.942-9.671,13.564c-1.147-1.047-8.618-8.037-9.92-13.681
			c0,0-4.264-0.002-7.23-2.388c0,0-1.6-0.959-1.597,0.882c0,0-0.355,7.528,10.807,18.487s12.43,15.41,11.821,18.486h8.118
			c0,0,0.489-8.451-6.145-16.412C31.558,32.489,32.17,31.876,32.817,31.241z"/>
		<path fill="#A6A6A6" d="M23.547,41.797c-1.44-1.863-3.361-4.043-5.903-6.64c-5.183,7.448-4.766,14.809-4.766,14.809h8.118
			C20.635,48.073,20.933,45.678,23.547,41.797z"/>
	</g>
	<path fill="#A6A6A6" d="M20.912,14.708h8.043c0,0,1.051-0.148,0.794,1.243c-0.364,1.979-4.706,5.988-4.706,5.988
		s-3.175-2.948-4.588-5.717C20.455,16.223,19.884,14.708,20.912,14.708z"/>
	<circle fill="#A6A6A6" cx="35.595" cy="6.39" r="3.515"/>
	<circle fill="#A6A6A6" cx="14.895" cy="6.39" r="3.515"/>
	<circle fill="#A6A6A6" cx="25.448" cy="3.549" r="3.515"/>
</g>
</svg>
