<?xml version="1.0" encoding="utf-8"?>
<!-- Generator: Adobe Illustrator 17.0.0, SVG Export Plug-In . SVG Version: 6.00 Build 0)  -->
<!DOCTYPE svg PUBLIC "-//W3C//DTD SVG 1.1//EN" "http://www.w3.org/Graphics/SVG/1.1/DTD/svg11.dtd">
<svg version="1.1" id="Layer_1" xmlns="http://www.w3.org/2000/svg" xmlns:xlink="http://www.w3.org/1999/xlink" x="0px" y="0px"
	 width="50px" height="50px" viewBox="0 0 50 50" enable-background="new 0 0 50 50" xml:space="preserve">
<g>
	<g>
		<path fill="#A6A6A6" d="M8.731,6.29c-2.287,0.788-3.503,3.28-2.715,5.567l12.116,35.188c0.788,2.287,3.28,3.503,5.567,2.715
			s3.503-3.28,2.715-5.567L14.298,9.005C13.51,6.718,11.018,5.502,8.731,6.29z"/>
		<path fill="#A6A6A6" d="M26.301,0.24c-2.287,0.788-3.503,3.28-2.715,5.567l12.116,35.188c0.788,2.287,3.28,3.503,5.567,2.715
			c2.287-0.788,3.503-3.28,2.715-5.567L31.868,2.955C31.081,0.668,28.588-0.548,26.301,0.24z"/>
	</g>
	<g>
		<path fill="#A6A6A6" d="M6.29,41.269c0.788,2.287,3.28,3.503,5.567,2.715l35.188-12.116c2.287-0.788,3.503-3.28,2.715-5.567
			s-3.28-3.503-5.567-2.715L9.005,35.702C6.718,36.49,5.502,38.982,6.29,41.269z"/>
		<path fill="#A6A6A6" d="M0.24,23.699c0.788,2.287,3.28,3.503,5.567,2.715l35.188-12.116c2.287-0.788,3.503-3.28,2.715-5.567
			s-3.28-3.503-5.567-2.715L2.955,18.132C0.668,18.919-0.548,21.412,0.24,23.699z"/>
	</g>
</g>
</svg>
