<?xml version="1.0" encoding="utf-8"?>
<!-- Generator: Adobe Illustrator 17.0.0, SVG Export Plug-In . SVG Version: 6.00 Build 0)  -->
<!DOCTYPE svg PUBLIC "-//W3C//DTD SVG 1.1//EN" "http://www.w3.org/Graphics/SVG/1.1/DTD/svg11.dtd">
<svg version="1.1" id="Layer_1" xmlns="http://www.w3.org/2000/svg" xmlns:xlink="http://www.w3.org/1999/xlink" x="0px" y="0px"
	 width="60px" height="60px" viewBox="0 0 60 60" enable-background="new 0 0 60 60" xml:space="preserve">
<g>
	<g>
		<g>
			<path fill="#F24E4A" d="M12.493,18.561c-1.696,0.031-3.099,0.601-4.209,1.711c-1.111,1.11-1.682,2.513-1.712,4.209
				c0,1.11,0.269,2.104,0.809,2.984c0.54,0.879,1.257,1.581,2.151,2.105v19.425c-0.895,0.524-1.611,1.225-2.151,2.104
				c-0.538,0.878-0.809,1.872-0.809,2.982c0.032,1.696,0.602,3.099,1.712,4.209c1.11,1.11,2.513,1.68,4.209,1.711
				c1.696-0.03,3.099-0.601,4.209-1.711c1.11-1.11,1.68-2.513,1.711-4.209c0-1.11-0.269-2.103-0.809-2.982
				c-0.54-0.879-1.257-1.581-2.151-2.104V29.569c0.895-0.524,1.611-1.225,2.151-2.105c0.54-0.879,0.809-1.874,0.809-2.984
				c-0.031-1.696-0.601-3.099-1.711-4.209C15.592,19.162,14.189,18.592,12.493,18.561z M16.053,54.08
				c-0.03,0.987-0.386,1.819-1.063,2.497c-0.677,0.677-1.51,1.017-2.497,1.017c-0.987,0-1.82-0.338-2.497-1.017
				c-0.678-0.678-1.017-1.51-1.017-2.497c0-0.987,0.338-1.819,1.017-2.497c0.677-0.678,1.51-1.017,2.497-1.017
				c0.987,0,1.819,0.34,2.497,1.017C15.667,52.261,16.023,53.094,16.053,54.08z M14.99,26.978c-0.677,0.678-1.51,1.033-2.497,1.063
				c-0.987-0.03-1.82-0.386-2.497-1.063c-0.678-0.677-1.017-1.51-1.017-2.497c0-0.987,0.338-1.82,1.017-2.497
				c0.677-0.678,1.51-1.017,2.497-1.017c0.987,0,1.819,0.34,2.497,1.017c0.678,0.677,1.017,1.51,1.017,2.497
				C16.007,25.467,15.667,26.298,14.99,26.978z"/>
			<path fill="#F24E4A" d="M41.284,51.097c-0.54-0.879-1.257-1.581-2.151-2.105c0-3.022,0-6.769,0-11.239V30.4
				c-0.093-2.313-1.019-4.348-2.776-6.105c-1.759-1.757-3.793-2.681-6.105-2.774h-2.96v-5.92l-8.879,8.879l8.879,8.879v-5.92h2.96
				c0.772,0.032,1.45,0.34,2.036,0.926c0.586,0.586,0.895,1.265,0.926,2.036v18.592c-0.895,0.524-1.611,1.225-2.151,2.104
				c-0.54,0.878-0.809,1.872-0.809,2.982c0.03,1.696,0.601,3.099,1.711,4.209c1.11,1.11,2.513,1.68,4.209,1.711
				c1.696-0.03,3.099-0.601,4.209-1.711c1.11-1.11,1.68-2.513,1.711-4.209C42.092,52.97,41.822,51.977,41.284,51.097z
				 M38.668,56.577c-0.677,0.677-1.51,1.033-2.497,1.063c-0.987-0.03-1.82-0.384-2.497-1.063c-0.677-0.678-1.017-1.51-1.017-2.497
				c0-0.987,0.34-1.819,1.017-2.497c0.677-0.678,1.51-1.017,2.497-1.017c0.987,0,1.819,0.34,2.497,1.017
				c0.678,0.677,1.017,1.51,1.017,2.497C39.685,55.067,39.347,55.9,38.668,56.577z"/>
		</g>
	</g>
	<g>
		<path fill="#293F55" d="M30.476,3.92l3.92,1.2l-3.92,1.2l-1.2,3.92l-1.2-3.92l-3.92-1.2l3.92-1.2l1.2-3.921L30.476,3.92z
			 M44.478,10.4l7.841,2.4l-7.841,2.4l-2.4,7.841l-2.4-7.841l-7.841-2.4l7.841-2.4l2.4-7.841L44.478,10.4z M56.079,3.92L60,5.12
			l-3.921,1.2l-1.2,3.92l-1.2-3.92l-3.921-1.2l3.921-1.2l1.2-3.921L56.079,3.92z M50.96,24.883l3.92,1.2l-3.92,1.2l-1.201,3.92
			l-1.2-3.92l-3.921-1.2l3.921-1.2l1.2-3.92L50.96,24.883z"/>
	</g>
</g>
</svg>
