<?xml version="1.0" encoding="utf-8"?>
<!-- Generator: Adobe Illustrator 17.0.0, SVG Export Plug-In . SVG Version: 6.00 Build 0)  -->
<!DOCTYPE svg PUBLIC "-//W3C//DTD SVG 1.1//EN" "http://www.w3.org/Graphics/SVG/1.1/DTD/svg11.dtd">
<svg version="1.1" id="Layer_1" xmlns="http://www.w3.org/2000/svg" xmlns:xlink="http://www.w3.org/1999/xlink" x="0px" y="0px"
	 width="60px" height="60px" viewBox="0 0 60 60" enable-background="new 0 0 60 60" xml:space="preserve">
<g>
	<circle fill="#293F55" cx="8.619" cy="12.061" r="1.514"/>
	<circle fill="#293F55" cx="12.955" cy="12.061" r="1.514"/>
	<circle fill="#293F55" cx="17.374" cy="12.061" r="1.514"/>
	<path fill="#293F55" d="M58.486,10.547H21.877c-0.836,0-1.514,0.678-1.514,1.514c0,0.837,0.678,1.514,1.514,1.514h36.609
		c0.836,0,1.514-0.678,1.514-1.514C60,11.225,59.322,10.547,58.486,10.547z"/>
</g>
<path fill="#293F55" d="M58.367,16.269H8.74c-0.867,0-1.635,0.766-1.635,1.633c0,0,0,3.198,0,4.222
	c2.362-0.947,5.154-1.468,8.435-1.468c5.415,0,11.789,1.352,15.338,5.524s4.273,11.164,4.273,17.531
	c0,1.982-0.213,3.906-0.614,5.742h23.829c0.866,0,1.633-0.768,1.633-1.634V17.902C60,17.035,59.233,16.269,58.367,16.269z"/>
<g>
	<path fill="#F24E4A" d="M14.716,22.257c-5.89,0.42-14.93,2.893-14.632,10.426c0.194,4.898,4.043,9.244,8.39,11.109
		c6.737,2.891,18.603,0.981,22.925-5.403c1.339-1.977,1.626-4.239,0.942-6.515C29.689,23.052,22.744,22.649,14.716,22.257"/>
	<path fill="#F24E4A" d="M0.077,38.432c0,7.014-1.322,10.474,6.991,12.215C27.858,55,34.59,46.759,33.249,40.703
		c0,0-10.674,5.335-13.713,5.842c-3.407,0.568-6.963,0.155-10.282-0.719c-1.71-0.451-3.353-1.169-4.984-1.844
		C1.635,42.893,1.081,40.893,0.077,38.432z"/>
	<path fill="#F24E4A" d="M0.077,46.673c0,7.014-1.322,10.474,6.991,12.215c20.79,4.353,26.972-5.059,25.631-11.116
		c0.064,0.291-4.87,5.008-5.489,5.287c-4.358,1.969-9.629,2.416-14.455,1.772c-2.31-0.309-4.509-1.085-6.738-1.727
		c-1.409-0.406-2.901-0.803-4.035-1.788C0.581,50.098,0.73,48.274,0.077,46.673z"/>
</g>
</svg>
