<?xml version="1.0" encoding="utf-8"?>
<!-- Generator: Adobe Illustrator 17.0.0, SVG Export Plug-In . SVG Version: 6.00 Build 0)  -->
<!DOCTYPE svg PUBLIC "-//W3C//DTD SVG 1.1//EN" "http://www.w3.org/Graphics/SVG/1.1/DTD/svg11.dtd">
<svg version="1.1" id="Layer_1" xmlns="http://www.w3.org/2000/svg" xmlns:xlink="http://www.w3.org/1999/xlink" x="0px" y="0px"
	 width="60px" height="60px" viewBox="0 0 60 60" enable-background="new 0 0 60 60" xml:space="preserve">
<path fill="#FFFFFF" d="M39.227,31.1c-2.874,1.935-5.461,2.875-7.906,2.875c-1.239,0-2.469-0.247-3.656-0.734
	c-2.238-0.918-4.165-1.844-5.095-3.892c-1.589-3.508-1.011-7.971,1.546-11.938c2.746-4.259,7.186-7.011,11.312-7.011
	c1.635,0,3.207,0.412,4.672,1.224c4.27,2.368,5.288,5.708,5.391,8.093C45.67,23.885,43.153,28.459,39.227,31.1z"/>
<path fill="#F24E4A" d="M12.493,18.561c-1.696,0.031-3.099,0.601-4.209,1.711c-1.111,1.11-1.682,2.513-1.712,4.209
	c0,1.11,0.269,2.104,0.809,2.984c0.54,0.879,1.257,1.581,2.151,2.105v19.425c-0.895,0.524-1.611,1.225-2.151,2.104
	c-0.538,0.878-0.809,1.872-0.809,2.982c0.032,1.696,0.602,3.099,1.712,4.209c1.11,1.11,2.513,1.68,4.209,1.711
	c1.696-0.03,3.099-0.601,4.209-1.711c1.11-1.11,1.68-2.513,1.711-4.209c0-1.11-0.269-2.103-0.809-2.982
	c-0.54-0.879-1.257-1.581-2.151-2.104V29.569c0.895-0.524,1.611-1.225,2.151-2.105c0.54-0.879,0.809-1.874,0.809-2.984
	c-0.031-1.696-0.601-3.099-1.711-4.209C15.592,19.162,14.189,18.592,12.493,18.561z M16.053,54.08
	c-0.03,0.987-0.386,1.819-1.063,2.497c-0.677,0.677-1.51,1.017-2.497,1.017c-0.987,0-1.82-0.338-2.497-1.017
	c-0.678-0.678-1.017-1.51-1.017-2.497c0-0.987,0.338-1.819,1.017-2.497c0.677-0.678,1.51-1.017,2.497-1.017
	c0.987,0,1.819,0.34,2.497,1.017C15.667,52.261,16.023,53.094,16.053,54.08z M14.99,26.978c-0.677,0.678-1.51,1.033-2.497,1.063
	c-0.987-0.03-1.82-0.386-2.497-1.063c-0.678-0.677-1.017-1.51-1.017-2.497c0-0.987,0.338-1.82,1.017-2.497
	c0.677-0.678,1.51-1.017,2.497-1.017c0.987,0,1.819,0.34,2.497,1.017c0.678,0.677,1.017,1.51,1.017,2.497
	C16.007,25.467,15.667,26.298,14.99,26.978z"/>
<path fill="none" d="M36.171,50.566c-0.987,0-1.82,0.339-2.497,1.017c-0.677,0.677-1.017,1.51-1.017,2.497
	c0,0.987,0.34,1.819,1.017,2.497c0.677,0.679,1.51,1.033,2.497,1.063c0.987-0.03,1.819-0.386,2.497-1.063
	c0.679-0.678,1.017-1.51,1.017-2.497c0-0.987-0.34-1.819-1.017-2.497C37.991,50.906,37.158,50.566,36.171,50.566z"/>
<path fill="#F24E4A" d="M39.133,48.992c0-3.022,0-6.768,0-11.239v-6.611c-2.108,1.408-4.062,2.281-5.92,2.637v15.214
	c-0.895,0.524-1.611,1.225-2.151,2.104c-0.54,0.878-0.809,1.872-0.809,2.982c0.03,1.696,0.601,3.099,1.711,4.209
	c1.11,1.11,2.513,1.68,4.209,1.711c1.696-0.031,3.099-0.601,4.209-1.711c1.11-1.11,1.68-2.513,1.711-4.209
	c0-1.11-0.271-2.103-0.809-2.984C40.744,50.217,40.026,49.516,39.133,48.992z M38.668,56.577c-0.677,0.677-1.51,1.033-2.497,1.063
	c-0.987-0.03-1.82-0.384-2.497-1.063c-0.677-0.678-1.017-1.51-1.017-2.497c0-0.987,0.34-1.819,1.017-2.497
	c0.677-0.678,1.51-1.017,2.497-1.017c0.987,0,1.819,0.339,2.497,1.017c0.677,0.677,1.017,1.51,1.017,2.497
	C39.685,55.067,39.347,55.9,38.668,56.577z"/>
<g>
	<defs>
		<path id="SVGID_1_" d="M39.227,31.1c-2.874,1.935-5.461,2.875-7.906,2.875c-1.239,0-2.469-0.247-3.656-0.734
			c-2.238-0.918-4.165-1.844-5.095-3.892c-1.589-3.508-1.011-7.971,1.546-11.938c2.746-4.259,7.186-7.011,11.312-7.011
			c1.635,0,3.207,0.412,4.672,1.224c4.27,2.368,5.288,5.708,5.391,8.093C45.67,23.885,43.153,28.459,39.227,31.1z"/>
	</defs>
	<clipPath id="SVGID_2_">
		<use xlink:href="#SVGID_1_"  overflow="visible"/>
	</clipPath>
	<path clip-path="url(#SVGID_2_)" fill="#F24E4A" d="M45.007,54.599c-0.614-1-1.43-1.798-2.446-2.394c0-3.437,0-7.698,0-12.782
		V31.06c-0.106-2.63-1.159-4.946-3.157-6.944c-2-1.998-4.314-3.049-6.944-3.155h-3.366v-6.733L18.995,24.328l10.099,10.099v-6.733
		h3.366c0.878,0.036,1.649,0.386,2.315,1.053c0.667,0.667,1.018,1.439,1.053,2.315v21.145c-1.018,0.596-1.832,1.393-2.446,2.394
		c-0.614,0.998-0.92,2.129-0.92,3.392c0.035,1.929,0.683,3.525,1.945,4.787c1.262,1.262,2.858,1.911,4.787,1.946
		c1.929-0.035,3.525-0.683,4.787-1.946c1.262-1.262,1.911-2.858,1.945-4.787C45.927,56.73,45.619,55.601,45.007,54.599z
		 M42.032,60.832c-0.77,0.77-1.718,1.175-2.84,1.21c-1.122-0.035-2.069-0.437-2.84-1.21c-0.77-0.771-1.157-1.718-1.157-2.84
		c0-1.122,0.386-2.069,1.157-2.84c0.77-0.771,1.718-1.157,2.84-1.157c1.122,0,2.069,0.386,2.84,1.157
		c0.771,0.77,1.157,1.718,1.157,2.84C43.189,59.115,42.805,60.062,42.032,60.832z"/>
</g>
<g>
	<g>
		<path fill="#293F55" d="M52.08,36.181c-0.302-0.273-0.563-0.508-0.711-0.661c-0.468-0.482-0.972-0.935-1.46-1.372
			c-0.377-0.337-0.766-0.686-1.128-1.04c-0.921-0.899-1.485-2.019-2.029-3.102l-0.128-0.255c-0.061-0.12-0.119-0.25-0.179-0.385
			c-0.043-0.096-0.086-0.193-0.132-0.291c2.799-3.76,3.932-8.126,3.107-12.019c-0.761-3.591-3.15-6.571-6.91-8.618
			c-1.959-1.066-4.061-1.607-6.251-1.607c-5.5,0-11.336,3.575-14.87,9.109c-3.191,4.997-3.861,10.641-1.795,15.097
			c1.403,3.027,4.526,4.287,6.806,5.207c1.586,0.64,3.232,0.965,4.893,0.965c3.205,0,6.559-1.183,10.252-3.617
			c0.166-0.109,0.341-0.229,0.53-0.364c1.032,0.371,2.335,1.079,2.774,1.418c0.918,0.708,1.64,1.302,2.404,2.077
			c0.21,0.213,0.47,0.498,0.771,0.828c1.507,1.651,3.784,4.146,5.622,4.146c0.185,0,0.364-0.025,0.533-0.074
			c0.763-0.221,1.013-0.657,1.089-0.984C55.547,39.43,53.919,37.84,52.08,36.181z M39.213,31.09
			c-2.874,1.935-5.461,2.875-7.906,2.875c-1.239,0-2.469-0.247-3.656-0.734c-2.238-0.918-4.165-1.844-5.095-3.892
			c-1.589-3.508-1.011-7.971,1.546-11.938c2.746-4.259,7.186-7.011,11.312-7.011c1.635,0,3.207,0.412,4.672,1.224
			c4.27,2.368,5.288,5.708,5.391,8.093C45.656,23.875,43.139,28.449,39.213,31.09z"/>
	</g>
</g>
</svg>
