<?xml version="1.0" encoding="utf-8"?>
<!-- Generator: Adobe Illustrator 17.0.0, SVG Export Plug-In . SVG Version: 6.00 Build 0)  -->
<!DOCTYPE svg PUBLIC "-//W3C//DTD SVG 1.1//EN" "http://www.w3.org/Graphics/SVG/1.1/DTD/svg11.dtd">
<svg version="1.1" id="Layer_1" xmlns="http://www.w3.org/2000/svg" xmlns:xlink="http://www.w3.org/1999/xlink" x="0px" y="0px"
	 width="11.264px" height="10.013px" viewBox="0 0 11.264 10.013" enable-background="new 0 0 11.264 10.013" xml:space="preserve">
<g>
	<path fill="#FFFFFF" d="M2.95,0c0.078,0,0.142,0.026,0.193,0.076l2.682,2.682C5.875,2.808,5.9,2.872,5.9,2.951
		c0,0.072-0.026,0.136-0.079,0.188C5.767,3.193,5.705,3.218,5.632,3.218h-1.61v6.527c0,0.072-0.026,0.134-0.079,0.188
		c-0.053,0.053-0.116,0.079-0.188,0.079h-1.61c-0.072,0-0.135-0.027-0.188-0.079c-0.053-0.053-0.08-0.115-0.08-0.187V3.218h-1.61
		c-0.078,0-0.142-0.024-0.193-0.076C0.025,3.092,0,3.029,0,2.951c0-0.067,0.028-0.134,0.084-0.202l2.674-2.673
		C2.808,0.026,2.872,0,2.95,0z M7.509,0h1.61c0.072,0,0.136,0.027,0.188,0.079c0.053,0.054,0.08,0.117,0.08,0.189v6.527h1.61
		c0.072,0,0.136,0.027,0.188,0.079c0.054,0.054,0.079,0.116,0.079,0.188c0,0.067-0.028,0.134-0.083,0.202L8.499,9.937
		c-0.051,0.05-0.112,0.076-0.186,0.076c-0.078,0-0.142-0.026-0.192-0.076L5.439,7.256c-0.05-0.05-0.075-0.115-0.075-0.193
		c0-0.072,0.026-0.134,0.079-0.188c0.054-0.053,0.117-0.08,0.189-0.08h1.609V0.268c0-0.072,0.026-0.134,0.079-0.188
		C7.375,0.027,7.437,0,7.509,0z"/>
</g>
</svg>
