<?xml version="1.0" encoding="utf-8"?>
<!-- Generator: Adobe Illustrator 17.0.0, SVG Export Plug-In . SVG Version: 6.00 Build 0)  -->
<!DOCTYPE svg PUBLIC "-//W3C//DTD SVG 1.1//EN" "http://www.w3.org/Graphics/SVG/1.1/DTD/svg11.dtd">
<svg version="1.1" id="Layer_1" xmlns="http://www.w3.org/2000/svg" xmlns:xlink="http://www.w3.org/1999/xlink" x="0px" y="0px"
	 width="144px" height="144px" viewBox="0 0 144 144" enable-background="new 0 0 144 144" xml:space="preserve">
<g>
	<g>
		<circle fill="#203143" cx="72" cy="72" r="72"/>
	</g>
	<g>
		<g>
			<g>
				<path fill="#FFFFFF" d="M25.214,33.35l6.733,3.319c0.504,0.254,0.93,0.533,0.93,0.533l0.019-0.021c0,0-0.363-0.373-0.672-0.829
					l-4.263-6.145l0.939-1.076l5.739,8.458l-1.06,1.212l-5.954-2.935c-0.585-0.288-1.248-0.7-1.248-0.7l-0.019,0.021
					c0,0,0.497,0.602,0.861,1.143l3.705,5.507l-1.061,1.213l-9.103-4.609l0.939-1.076l6.614,3.456
					c0.483,0.255,0.91,0.554,0.91,0.554l0.019-0.021c0,0-0.333-0.385-0.652-0.85l-4.189-6.229L25.214,33.35z"/>
				<path fill="#FFFFFF" d="M33.34,25.649L38,22.303l0.702,0.978l-3.535,2.539l1.805,2.513l2.876-2.065l0.702,0.978l-2.877,2.065
					l1.854,2.581l3.729-2.678l0.702,0.978l-4.854,3.486L33.34,25.649z"/>
				<path fill="#FFFFFF" d="M51.455,23.978c0,0,1.344,0.657,2.731,0.169c0.872-0.306,1.44-1.055,1.13-1.94
					c-0.71-2.021-5.076,0.001-6.083-2.867c-0.51-1.453,0.342-3.043,2.099-3.661c1.731-0.607,2.973,0.011,2.973,0.011l-0.214,1.292
					c0,0-1.143-0.504-2.332-0.087c-0.99,0.348-1.473,1.215-1.213,1.955c0.677,1.929,5.016-0.172,6.077,2.854
					c0.506,1.44-0.187,3.02-2.036,3.669c-1.982,0.696-3.523-0.144-3.523-0.144L51.455,23.978z"/>
				<path fill="#FFFFFF" d="M59.492,13.491l1.373-0.19l0.876,6.325c0.208,1.498,1.3,2.237,2.798,2.03
					c1.512-0.21,2.376-1.22,2.164-2.746l-0.873-6.297l1.373-0.19l0.877,6.325c0.302,2.177-1.063,3.851-3.352,4.168
					c-2.289,0.317-4.059-0.922-4.36-3.1L59.492,13.491z"/>
				<path fill="#FFFFFF" d="M73.408,12.319l3.603,0.244c1.801,0.122,3.018,1.424,2.891,3.295s-1.511,3.04-3.312,2.917l-2.22-0.15
					l-0.247,3.644l-1.383-0.094L73.408,12.319z M76.447,17.56c1.188,0.081,1.964-0.61,2.044-1.797
					c0.08-1.187-0.599-1.934-1.771-2.013l-2.01-0.136l-0.259,3.812L76.447,17.56z"/>
				<path fill="#FFFFFF" d="M85.353,13.721l3.492,0.929c1.745,0.465,2.691,1.977,2.208,3.791c-0.482,1.814-2.064,2.697-3.811,2.232
					L85.09,20.1l-0.939,3.532l-1.34-0.356L85.353,13.721z M87.335,19.451c1.15,0.306,2.045-0.224,2.352-1.374
					c0.306-1.151-0.218-2.015-1.354-2.317l-1.949-0.519L85.4,18.936L87.335,19.451z"/>
				<path fill="#FFFFFF" d="M101.019,19.297c2.53,1.32,3.475,4.29,2.161,6.808c-1.346,2.58-4.354,3.568-6.885,2.248
					c-2.53-1.32-3.455-4.358-2.109-6.938C95.499,18.896,98.488,17.978,101.019,19.297z M96.884,27.225
					c1.787,0.932,4.002,0.193,5.031-1.779c0.996-1.91,0.308-4.1-1.479-5.031c-1.786-0.932-3.988-0.25-4.984,1.661
					C94.423,24.047,95.098,26.293,96.884,27.225z"/>
				<path fill="#FFFFFF" d="M110.15,25.225l2.304,1.958c0.789,0.67,1.065,1.016,1.263,1.367c0.523,0.94,0.382,2.124-0.462,3.116
					c-0.815,0.96-2.037,1.317-3.085,0.886l-0.019,0.021c0,0,0.004,0.168-0.066,0.532l-0.883,4.282l-1.195-1.015l0.958-4.347
					l-1.61-1.369l-2.547,2.997l-1.057-0.897L110.15,25.225z M109.648,31.025c0.821,0.698,1.777,0.61,2.493-0.232
					c0.472-0.555,0.594-1.13,0.391-1.67c-0.112-0.279-0.303-0.551-0.89-1.05l-1.216-1.033l-2.293,2.698L109.648,31.025z"/>
				<path fill="#FFFFFF" d="M119.64,36.202l-2.112-2.651l0.942-0.751l5.089,6.388l-0.942,0.75l-2.112-2.651l-6.793,5.411
					l-0.863-1.084L119.64,36.202z"/>
			</g>
		</g>
	</g>
	<g>
		<g>
			<path fill="#FFFFFF" d="M26.937,108.821h4.21c2.288,0,3.889,1.024,3.889,2.993c0,0.96-0.464,1.937-1.328,2.433v0.032
				c1.312,0.4,1.793,1.568,1.793,2.577c0,2.497-2.081,3.409-4.354,3.409h-4.21V108.821z M31.179,113.255
				c0.705,0,1.009-0.512,1.009-1.057c0-0.528-0.304-0.976-1.057-0.976h-1.393v2.032H31.179z M31.419,117.865
				c0.816,0,1.217-0.561,1.217-1.201c0-0.64-0.384-1.168-1.2-1.168h-1.697v2.369H31.419z"/>
			<path fill="#FFFFFF" d="M37.802,108.821h2.801v11.444h-2.801V108.821z"/>
			<path fill="#FFFFFF" d="M45.802,111.223h-3.473v-2.401h9.747v2.401h-3.473v9.043h-2.802V111.223z"/>
			<path fill="#FFFFFF" d="M53.802,108.821h4.21c2.288,0,3.889,1.024,3.889,2.993c0,0.96-0.464,1.937-1.328,2.433v0.032
				c1.312,0.4,1.793,1.568,1.793,2.577c0,2.497-2.081,3.409-4.354,3.409h-4.21V108.821z M58.043,113.255
				c0.705,0,1.009-0.512,1.009-1.057c0-0.528-0.304-0.976-1.057-0.976h-1.393v2.032H58.043z M58.283,117.865
				c0.816,0,1.217-0.561,1.217-1.201c0-0.64-0.385-1.168-1.2-1.168h-1.697v2.369H58.283z"/>
			<path fill="#FFFFFF" d="M64.506,108.821h2.801v7.235c0,1.2,0.784,1.84,1.985,1.84c1.2,0,1.984-0.64,1.984-1.84v-7.235h2.802
				v7.235c0,2.576-1.89,4.401-4.771,4.401c-2.913,0-4.802-1.825-4.802-4.401V108.821z"/>
			<path fill="#FFFFFF" d="M82.139,108.629c2.833,0,4.291,1.617,4.291,1.617l-1.297,2.112c0,0-1.28-1.168-2.866-1.168
				c-2.192,0-3.233,1.616-3.233,3.265c0,1.697,1.121,3.441,3.233,3.441c1.729,0,3.042-1.408,3.042-1.408l1.44,2.049
				c0,0-1.617,1.921-4.611,1.921c-3.585,0-6.002-2.545-6.002-5.938C76.137,111.19,78.697,108.629,82.139,108.629z"/>
			<path fill="#FFFFFF" d="M88.761,108.821h2.801v4.418h1.152l2.369-4.418h3.01l-3.09,5.475v0.031l3.266,5.938h-3.138l-2.417-4.642
				h-1.152v4.642h-2.801V108.821z"/>
			<path fill="#FFFFFF" d="M100.154,108.821h7.171v2.401h-4.37v2.08h3.489v2.401h-3.489v2.161h4.594v2.4h-7.395V108.821z"/>
			<path fill="#FFFFFF" d="M112.074,111.223h-3.473v-2.401h9.747v2.401h-3.473v9.043h-2.802V111.223z"/>
		</g>
	</g>
	<g>
		<path fill="#FFFFFF" d="M72,37.536L72,37.536c-14.632,0-26.651,3.919-26.651,8.884c0,1.306,3.135,19.857,4.442,27.173
			c0.523,3.397,9.145,8.1,22.209,8.1l0,0c13.064,0,21.425-4.703,22.209-8.1c1.306-7.316,4.442-25.867,4.442-27.173
			C98.389,41.456,86.632,37.536,72,37.536L72,37.536z M72,75.683c-4.703,0-8.361-3.658-8.361-8.361c0-4.703,3.658-8.361,8.361-8.361
			c4.703,0,8.361,3.658,8.361,8.361C80.361,71.764,76.703,75.683,72,75.683L72,75.683z M72,49.033
			c-9.406,0-16.983-1.568-16.983-3.658c0-2.09,7.577-3.658,16.983-3.658s16.983,1.568,16.983,3.658
			C88.983,47.465,81.406,49.033,72,49.033L72,49.033z"/>
		<path fill="#FFFFFF" d="M91.284,80.648c-0.523,0-0.784,0.261-0.784,0.261s-6.532,5.226-18.29,5.226s-18.29-5.226-18.29-5.226
			s-0.523-0.261-0.784-0.261c-0.523,0-1.045,0.261-1.045,1.045v0.261c1.045,5.487,1.829,9.406,1.829,9.929
			c0.784,3.919,8.622,7.055,18.028,7.055l0,0c9.406,0,17.245-3.135,18.028-7.055c0-0.523,0.784-4.442,1.829-9.929v-0.261
			C92.067,81.17,91.806,80.648,91.284,80.648L91.284,80.648z"/>
		<circle fill="#FFFFFF" cx="72" cy="67.061" r="4.181"/>
	</g>
</g>
</svg>
