<?xml version="1.0" encoding="utf-8"?>
<!-- Generator: Adobe Illustrator 17.0.0, SVG Export Plug-In . SVG Version: 6.00 Build 0)  -->
<!DOCTYPE svg PUBLIC "-//W3C//DTD SVG 1.1//EN" "http://www.w3.org/Graphics/SVG/1.1/DTD/svg11.dtd">
<svg version="1.1" id="Layer_1" xmlns="http://www.w3.org/2000/svg" xmlns:xlink="http://www.w3.org/1999/xlink" x="0px" y="0px"
	 width="144px" height="144px" viewBox="0 0 144 144" enable-background="new 0 0 144 144" xml:space="preserve">
<g>
	<circle fill="#4DB6D3" cx="72" cy="72" r="72"/>
</g>
<g>
	<path fill="#FFFFFF" d="M47.359,45.303c2.929,0,4.401,1.521,4.401,1.521l-1.345,2.097c0,0-1.168-1.057-2.785-1.057
		c-2.4,0-3.377,1.537-3.377,3.233c0,2.177,1.504,3.473,3.281,3.473c1.345,0,2.32-0.832,2.32-0.832v-0.88h-1.616v-2.385h4.098v6.467
		H50v-0.32c0-0.24,0.016-0.48,0.016-0.48h-0.031c0,0-1.104,0.992-3.01,0.992c-2.929,0-5.618-2.193-5.618-5.938
		C41.356,47.864,43.869,45.303,47.359,45.303z"/>
	<path fill="#FFFFFF" d="M54.444,45.495h2.801V56.94h-2.801V45.495z"/>
	<path fill="#FFFFFF" d="M62.125,47.896h-3.473v-2.401h9.747v2.401h-3.473v9.043h-2.802V47.896z"/>
	<path fill="#FFFFFF" d="M69.804,45.495h2.801v4.578h4.162v-4.578h2.801V56.94h-2.801v-4.482h-4.162v4.482h-2.801V45.495z"/>
	<path fill="#FFFFFF" d="M82.092,45.495h2.801v7.235c0,1.2,0.784,1.84,1.985,1.84c1.2,0,1.984-0.64,1.984-1.84v-7.235h2.801v7.235
		c0,2.577-1.889,4.401-4.77,4.401c-2.913,0-4.802-1.825-4.802-4.401V45.495z"/>
	<path fill="#FFFFFF" d="M94.188,45.495h4.21c2.288,0,3.889,1.024,3.889,2.993c0,0.96-0.464,1.937-1.328,2.433v0.032
		c1.312,0.4,1.793,1.568,1.793,2.577c0,2.497-2.081,3.409-4.354,3.409h-4.21V45.495z M98.429,49.929
		c0.705,0,1.009-0.512,1.009-1.057c0-0.528-0.304-0.976-1.057-0.976h-1.393v2.033H98.429z M98.669,54.539
		c0.816,0,1.217-0.561,1.217-1.201s-0.385-1.168-1.2-1.168h-1.697v2.369H98.669z"/>
	<path fill="#FFFFFF" d="M24.836,61.495h7.171v2.401h-4.37v2.081h3.489v2.401h-3.489v2.161h4.594v2.401h-7.395V61.495z"/>
	<path fill="#FFFFFF" d="M34.245,61.495h2.833l3.169,5.346c0.448,0.752,0.961,1.953,0.961,1.953h0.032c0,0-0.129-1.233-0.129-1.953
		v-5.346h2.802V72.94h-2.817l-3.186-5.33c-0.448-0.752-0.96-1.953-0.96-1.953h-0.032c0,0,0.128,1.232,0.128,1.953v5.33h-2.801
		V61.495z"/>
	<path fill="#FFFFFF" d="M48.789,63.896h-3.473v-2.401h9.747v2.401H51.59v9.043h-2.802V63.896z"/>
	<path fill="#FFFFFF" d="M56.468,61.495h7.171v2.401h-4.37v2.081h3.489v2.401h-3.489v2.161h4.594v2.401h-7.395V61.495z"/>
	<path fill="#FFFFFF" d="M65.876,61.495h3.985c1.169,0,1.729,0.08,2.225,0.272c1.297,0.496,2.113,1.665,2.113,3.329
		c0,1.217-0.576,2.545-1.712,3.122v0.032c0,0,0.16,0.208,0.433,0.688l2.224,4.001h-3.121l-2.033-3.857h-1.312v3.857h-2.801V61.495z
		 M69.894,66.682c0.896,0,1.456-0.497,1.456-1.409c0-0.864-0.319-1.376-1.729-1.376h-0.944v2.785H69.894z"/>
	<path fill="#FFFFFF" d="M76.788,61.495h4.754c2.225,0,3.729,1.633,3.729,3.938c0,2.305-1.505,3.969-3.729,3.969h-1.953v3.538
		h-2.801V61.495z M80.966,67.001c0.977,0,1.456-0.656,1.456-1.568c0-0.913-0.479-1.537-1.408-1.537h-1.425v3.105H80.966z"/>
	<path fill="#FFFFFF" d="M86.932,61.495h3.985c1.169,0,1.729,0.08,2.225,0.272c1.297,0.496,2.113,1.665,2.113,3.329
		c0,1.217-0.576,2.545-1.713,3.122v0.032c0,0,0.16,0.208,0.433,0.688l2.225,4.001h-3.121l-2.033-3.857h-1.312v3.857h-2.801V61.495z
		 M90.949,66.682c0.896,0,1.456-0.497,1.456-1.409c0-0.864-0.319-1.376-1.729-1.376h-0.944v2.785H90.949z"/>
	<path fill="#FFFFFF" d="M97.844,61.495h2.801V72.94h-2.801V61.495z"/>
	<path fill="#FFFFFF" d="M103.956,69.371c0,0,1.297,1.185,2.737,1.185c0.576,0,1.2-0.224,1.2-0.913c0-1.36-5.154-1.312-5.154-4.834
		c0-2.113,1.777-3.505,4.05-3.505c2.465,0,3.682,1.296,3.682,1.296l-1.185,2.289c0,0-1.152-1.008-2.529-1.008
		c-0.576,0-1.216,0.256-1.216,0.896c0,1.44,5.153,1.184,5.153,4.802c0,1.905-1.456,3.553-4.033,3.553
		c-2.689,0-4.178-1.632-4.178-1.632L103.956,69.371z"/>
	<path fill="#FFFFFF" d="M112.611,61.495h7.171v2.401h-4.37v2.081h3.489v2.401h-3.489v2.161h4.594v2.401h-7.395V61.495z"/>
	<path fill="#FFFFFF" d="M65.917,82.911h-2.659l-0.699,2.028h-1.02l2.538-7.056h1.04l2.538,7.056h-1.029L65.917,82.911z
		 M64.586,78.854c0,0-0.159,0.64-0.279,0.999l-0.79,2.239h2.139l-0.779-2.239c-0.12-0.359-0.27-0.999-0.27-0.999H64.586z"/>
	<path fill="#FFFFFF" d="M68.699,77.884h0.979l3.139,4.587c0.26,0.381,0.59,1.02,0.59,1.02h0.02c0,0-0.069-0.629-0.069-1.02v-4.587
		h0.989v7.056h-0.969l-3.148-4.577c-0.26-0.39-0.589-1.029-0.589-1.029h-0.021c0,0,0.07,0.63,0.07,1.029v4.577h-0.989V77.884z"/>
	<path fill="#FFFFFF" d="M76.269,77.884h2.338c2.159,0,3.578,1.29,3.578,3.519c0,2.238-1.419,3.537-3.578,3.537h-2.338V77.884z
		 M78.537,84.08c1.589,0,2.628-0.939,2.628-2.678c0-1.729-1.049-2.659-2.628-2.659h-1.279v5.337H78.537z"/>
	<path fill="#FFFFFF" d="M31.965,89.495h4.21c2.288,0,3.889,1.024,3.889,2.993c0,0.961-0.464,1.938-1.328,2.434v0.031
		c1.312,0.4,1.793,1.568,1.793,2.578c0,2.496-2.081,3.408-4.354,3.408h-4.21V89.495z M36.207,93.93c0.705,0,1.009-0.513,1.009-1.057
		c0-0.529-0.304-0.977-1.057-0.977h-1.393v2.033H36.207z M36.447,98.539c0.816,0,1.217-0.561,1.217-1.201
		c0-0.64-0.385-1.168-1.2-1.168h-1.697v2.369H36.447z"/>
	<path fill="#FFFFFF" d="M42.509,89.495h2.801v11.444h-2.801V89.495z"/>
	<path fill="#FFFFFF" d="M50.189,91.896h-3.473v-2.401h9.747v2.401h-3.473v9.043h-2.802V91.896z"/>
	<path fill="#FFFFFF" d="M57.869,89.495h4.21c2.288,0,3.889,1.024,3.889,2.993c0,0.961-0.464,1.938-1.328,2.434v0.031
		c1.312,0.4,1.793,1.568,1.793,2.578c0,2.496-2.081,3.408-4.354,3.408h-4.21V89.495z M62.11,93.93c0.705,0,1.009-0.513,1.009-1.057
		c0-0.529-0.304-0.977-1.057-0.977h-1.393v2.033H62.11z M62.35,98.539c0.816,0,1.217-0.561,1.217-1.201
		c0-0.64-0.384-1.168-1.2-1.168h-1.697v2.369H62.35z"/>
	<path fill="#FFFFFF" d="M68.252,89.495h2.801v7.235c0,1.2,0.784,1.84,1.985,1.84c1.2,0,1.984-0.64,1.984-1.84v-7.235h2.801v7.235
		c0,2.576-1.889,4.401-4.769,4.401c-2.913,0-4.802-1.825-4.802-4.401V89.495z"/>
	<path fill="#FFFFFF" d="M85.565,89.303c2.833,0,4.29,1.617,4.29,1.617l-1.297,2.113c0,0-1.28-1.169-2.865-1.169
		c-2.192,0-3.233,1.616-3.233,3.265c0,1.697,1.121,3.441,3.233,3.441c1.729,0,3.042-1.408,3.042-1.408l1.44,2.049
		c0,0-1.617,1.921-4.61,1.921c-3.585,0-6.002-2.545-6.002-5.938C79.563,91.864,82.124,89.303,85.565,89.303z"/>
	<path fill="#FFFFFF" d="M91.867,89.495h2.801v4.418h1.152l2.369-4.418h3.01l-3.09,5.475v0.032l3.266,5.938h-3.138l-2.417-4.642
		h-1.152v4.642h-2.801V89.495z"/>
	<path fill="#FFFFFF" d="M102.939,89.495h7.171v2.401h-4.37v2.08h3.489v2.401h-3.489v2.161h4.594v2.4h-7.395V89.495z"/>
	<path fill="#FFFFFF" d="M114.54,91.896h-3.473v-2.401h9.747v2.401h-3.473v9.043h-2.802V91.896z"/>
	<path fill="#FFFFFF" d="M43.708,113.371c0,0,1.297,1.184,2.737,1.184c0.576,0,1.2-0.224,1.2-0.912c0-1.36-5.154-1.312-5.154-4.834
		c0-2.113,1.777-3.506,4.05-3.506c2.465,0,3.682,1.297,3.682,1.297l-1.185,2.289c0,0-1.152-1.008-2.529-1.008
		c-0.576,0-1.216,0.256-1.216,0.896c0,1.439,5.153,1.184,5.153,4.801c0,1.905-1.456,3.554-4.033,3.554
		c-2.689,0-4.178-1.632-4.178-1.632L43.708,113.371z"/>
	<path fill="#FFFFFF" d="M52.364,105.495h7.171v2.401h-4.37v2.08h3.489v2.401h-3.489v2.161h4.594v2.4h-7.395V105.495z"/>
	<path fill="#FFFFFF" d="M61.772,105.495h3.985c1.169,0,1.729,0.08,2.225,0.272c1.297,0.496,2.113,1.664,2.113,3.329
		c0,1.217-0.576,2.545-1.713,3.122v0.031c0,0,0.16,0.208,0.433,0.688l2.225,4.001h-3.121l-2.033-3.857h-1.312v3.857h-2.801V105.495z
		 M65.79,110.682c0.896,0,1.456-0.496,1.456-1.408c0-0.865-0.319-1.377-1.729-1.377h-0.944v2.785H65.79z"/>
	<path fill="#FFFFFF" d="M71.164,105.495h3.041l2.017,6.515c0.225,0.721,0.433,1.841,0.433,1.841h0.031c0,0,0.209-1.12,0.433-1.841
		l2.049-6.515h2.993l-4.033,11.444h-2.914L71.164,105.495z"/>
	<path fill="#FFFFFF" d="M83.403,105.495h7.171v2.401h-4.37v2.08h3.489v2.401h-3.489v2.161h4.594v2.4h-7.395V105.495z"/>
	<path fill="#FFFFFF" d="M92.812,105.495h3.985c1.169,0,1.729,0.08,2.225,0.272c1.297,0.496,2.113,1.664,2.113,3.329
		c0,1.217-0.576,2.545-1.713,3.122v0.031c0,0,0.16,0.208,0.433,0.688l2.225,4.001h-3.121l-2.033-3.857h-1.312v3.857h-2.801V105.495z
		 M96.829,110.682c0.896,0,1.456-0.496,1.456-1.408c0-0.865-0.319-1.377-1.729-1.377h-0.944v2.785H96.829z"/>
</g>
<g>
	<g>
		<path fill="#FFFFFF" d="M27.74,30.753l6.536,3.693c0.489,0.282,0.898,0.584,0.898,0.584l0.02-0.02c0,0-0.341-0.392-0.624-0.865
			l-3.911-6.375l0.999-1.021l5.255,8.768l-1.127,1.151l-5.779-3.266c-0.568-0.32-1.207-0.769-1.207-0.769l-0.02,0.02
			c0,0,0.463,0.629,0.796,1.189l3.389,5.708l-1.126,1.151l-8.83-5.114l0.999-1.021l6.409,3.823c0.469,0.282,0.878,0.604,0.878,0.604
			l0.02-0.02c0,0-0.311-0.402-0.604-0.885l-3.833-6.456L27.74,30.753z"/>
		<path fill="#FFFFFF" d="M35.643,23.982l4.805-3.141l0.659,1.008l-3.645,2.382l1.692,2.59l2.965-1.938l0.659,1.008l-2.965,1.938
			l1.738,2.66l3.844-2.513l0.659,1.008l-5.004,3.271L35.643,23.982z"/>
		<path fill="#FFFFFF" d="M52.499,23.602c0,0,1.33,0.681,2.726,0.219c0.878-0.29,1.459-1.028,1.165-1.918
			c-0.673-2.034-5.073-0.092-6.026-2.976c-0.483-1.462,0.396-3.036,2.164-3.62c1.741-0.576,2.971,0.064,2.971,0.064l-0.238,1.288
			c0,0-1.132-0.525-2.328-0.129c-0.996,0.33-1.494,1.187-1.248,1.932c0.642,1.94,5.016-0.081,6.021,2.962
			c0.479,1.449-0.242,3.014-2.103,3.629c-1.993,0.659-3.519-0.208-3.519-0.208L52.499,23.602z"/>
		<path fill="#FFFFFF" d="M59.966,13.412l1.375-0.182l0.835,6.332c0.197,1.5,1.285,2.246,2.784,2.048
			c1.514-0.2,2.385-1.204,2.183-2.732l-0.831-6.304l1.375-0.181l0.835,6.332c0.287,2.18-1.09,3.845-3.381,4.147
			s-4.053-0.949-4.34-3.129L59.966,13.412z"/>
		<path fill="#FFFFFF" d="M73.102,12.305l3.605,0.224c1.804,0.112,3.027,1.409,2.911,3.282s-1.495,3.05-3.298,2.938l-2.223-0.138
			l-0.226,3.648l-1.384-0.086L73.102,12.305z M76.172,17.533c1.188,0.074,1.961-0.622,2.034-1.81
			c0.074-1.188-0.609-1.932-1.783-2.005l-2.013-0.125l-0.237,3.815L76.172,17.533z"/>
		<path fill="#FFFFFF" d="M84.27,13.483l3.508,0.862c1.754,0.431,2.728,1.925,2.28,3.747c-0.448,1.822-2.014,2.734-3.768,2.303
			l-2.161-0.531l-0.872,3.549l-1.346-0.331L84.27,13.483z M86.36,19.172c1.155,0.284,2.04-0.263,2.324-1.418
			c0.283-1.156-0.256-2.009-1.398-2.29l-1.958-0.481l-0.912,3.712L86.36,19.172z"/>
		<path fill="#FFFFFF" d="M99.347,18.417c2.571,1.242,3.606,4.183,2.37,6.741c-1.266,2.622-4.243,3.702-6.814,2.459
			c-2.571-1.242-3.589-4.251-2.323-6.873C93.815,18.186,96.775,17.175,99.347,18.417z M95.456,26.47
			c1.814,0.877,4.008,0.071,4.976-1.933c0.938-1.941,0.182-4.109-1.633-4.986c-1.815-0.876-3.996-0.127-4.934,1.814
			C92.897,23.369,93.641,25.594,95.456,26.47z"/>
		<path fill="#FFFFFF" d="M107.982,23.569l2.39,1.855c0.818,0.636,1.11,0.968,1.323,1.311c0.564,0.917,0.474,2.106-0.325,3.135
			c-0.772,0.996-1.979,1.407-3.045,1.022l-0.018,0.022c0,0,0.011,0.168-0.043,0.535l-0.694,4.319l-1.239-0.962l0.766-4.389
			l-1.67-1.297l-2.414,3.109l-1.096-0.851L107.982,23.569z M107.736,29.39c0.852,0.662,1.804,0.532,2.482-0.342
			c0.446-0.575,0.543-1.156,0.317-1.687c-0.125-0.274-0.328-0.538-0.937-1.01l-1.261-0.979l-2.174,2.799L107.736,29.39z"/>
		<path fill="#FFFFFF" d="M117.432,33.549l-2.26-2.526l0.897-0.803l5.444,6.084l-0.897,0.803l-2.26-2.526l-6.471,5.79l-0.925-1.033
			L117.432,33.549z"/>
	</g>
</g>
</svg>
