<?xml version="1.0" encoding="utf-8"?>
<!-- Generator: Adobe Illustrator 17.0.0, SVG Export Plug-In . SVG Version: 6.00 Build 0)  -->
<!DOCTYPE svg PUBLIC "-//W3C//DTD SVG 1.1//EN" "http://www.w3.org/Graphics/SVG/1.1/DTD/svg11.dtd">
<svg version="1.1" id="Layer_1" xmlns="http://www.w3.org/2000/svg" xmlns:xlink="http://www.w3.org/1999/xlink" x="0px" y="0px"
	 width="144px" height="144px" viewBox="0 0 144 144" enable-background="new 0 0 144 144" xml:space="preserve">
<g>
	<g>
		<circle fill="#203143" cx="72" cy="72" r="72"/>
	</g>
	<g>
		<g>
			<path fill="#FFFFFF" d="M47.275,64.646c2.929,0,4.401,1.521,4.401,1.521l-1.345,2.097c0,0-1.168-1.057-2.785-1.057
				c-2.4,0-3.377,1.537-3.377,3.233c0,2.177,1.504,3.473,3.281,3.473c1.345,0,2.32-0.832,2.32-0.832v-0.88h-1.616v-2.385h4.098
				v6.467h-2.337v-0.32c0-0.24,0.016-0.48,0.016-0.48H49.9c0,0-1.104,0.992-3.01,0.992c-2.929,0-5.618-2.193-5.618-5.938
				C41.272,67.207,43.785,64.646,47.275,64.646z"/>
			<path fill="#FFFFFF" d="M54.36,64.838h2.801v11.445H54.36V64.838z"/>
			<path fill="#FFFFFF" d="M62.041,67.239h-3.473v-2.401h9.747v2.401h-3.473v9.043h-2.802V67.239z"/>
			<path fill="#FFFFFF" d="M69.721,64.838h2.801v4.578h4.162v-4.578h2.801v11.445h-2.801v-4.482h-4.162v4.482h-2.801V64.838z"/>
			<path fill="#FFFFFF" d="M82.009,64.838h2.801v7.235c0,1.2,0.784,1.84,1.985,1.84c1.2,0,1.984-0.64,1.984-1.84v-7.235h2.801v7.235
				c0,2.577-1.889,4.401-4.77,4.401c-2.913,0-4.802-1.825-4.802-4.401V64.838z"/>
			<path fill="#FFFFFF" d="M94.104,64.838h4.21c2.288,0,3.889,1.024,3.889,2.993c0,0.96-0.464,1.937-1.328,2.433v0.032
				c1.312,0.4,1.793,1.568,1.793,2.577c0,2.497-2.081,3.409-4.354,3.409h-4.21V64.838z M98.346,69.272
				c0.705,0,1.009-0.512,1.009-1.057c0-0.528-0.304-0.976-1.057-0.976h-1.393v2.033H98.346z M98.586,73.882
				c0.816,0,1.217-0.561,1.217-1.201s-0.385-1.168-1.2-1.168h-1.697v2.369H98.586z"/>
			<path fill="#FFFFFF" d="M66.453,84.455h-2.396l-0.63,1.828H62.51l2.286-6.356h0.937l2.287,6.356h-0.928L66.453,84.455z
				 M65.255,80.8c0,0-0.144,0.576-0.252,0.9l-0.711,2.017h1.927L65.517,81.7c-0.108-0.324-0.243-0.9-0.243-0.9H65.255z"/>
			<path fill="#FFFFFF" d="M68.954,79.927h0.882l2.827,4.132c0.234,0.342,0.531,0.918,0.531,0.918h0.018
				c0,0-0.062-0.567-0.062-0.918v-4.132h0.892v6.356h-0.874l-2.836-4.123c-0.233-0.351-0.53-0.927-0.53-0.927h-0.019
				c0,0,0.063,0.567,0.063,0.927v4.123h-0.892V79.927z"/>
			<path fill="#FFFFFF" d="M75.767,79.927h2.106c1.944,0,3.223,1.162,3.223,3.169c0,2.017-1.278,3.187-3.223,3.187h-2.106V79.927z
				 M77.811,85.508c1.431,0,2.367-0.846,2.367-2.413c0-1.558-0.945-2.395-2.367-2.395h-1.152v4.807H77.811z"/>
			<path fill="#FFFFFF" d="M30.953,89.558h3.945c2.145,0,3.645,0.96,3.645,2.805c0,0.9-0.435,1.814-1.245,2.28v0.03
				c1.23,0.375,1.68,1.47,1.68,2.415c0,2.34-1.949,3.195-4.079,3.195h-3.945V89.558z M34.928,93.713c0.66,0,0.945-0.48,0.945-0.99
				c0-0.495-0.285-0.915-0.99-0.915h-1.305v1.905H34.928z M35.153,98.033c0.765,0,1.14-0.525,1.14-1.125
				c0-0.6-0.359-1.095-1.125-1.095h-1.59v2.22H35.153z"/>
			<path fill="#FFFFFF" d="M40.838,89.558h2.625v10.725h-2.625V89.558z"/>
			<path fill="#FFFFFF" d="M48.037,91.808h-3.255v-2.25h9.135v2.25h-3.255v8.475h-2.625V91.808z"/>
			<path fill="#FFFFFF" d="M55.237,89.558h3.945c2.145,0,3.645,0.96,3.645,2.805c0,0.9-0.435,1.814-1.245,2.28v0.03
				c1.23,0.375,1.68,1.47,1.68,2.415c0,2.34-1.949,3.195-4.079,3.195h-3.945V89.558z M59.212,93.713c0.66,0,0.945-0.48,0.945-0.99
				c0-0.495-0.285-0.915-0.99-0.915h-1.305v1.905H59.212z M59.438,98.033c0.765,0,1.14-0.525,1.14-1.125
				c0-0.6-0.36-1.095-1.125-1.095h-1.59v2.22H59.438z"/>
			<path fill="#FFFFFF" d="M64.973,89.558h2.624v6.78c0,1.125,0.735,1.725,1.86,1.725s1.86-0.6,1.86-1.725v-6.78h2.624v6.78
				c0,2.415-1.77,4.125-4.47,4.125c-2.729,0-4.499-1.71-4.499-4.125V89.558z"/>
			<path fill="#FFFFFF" d="M81.201,89.378c2.655,0,4.021,1.515,4.021,1.515l-1.215,1.98c0,0-1.2-1.095-2.686-1.095
				c-2.055,0-3.029,1.515-3.029,3.06c0,1.59,1.05,3.225,3.029,3.225c1.62,0,2.851-1.32,2.851-1.32l1.35,1.92c0,0-1.515,1.8-4.32,1.8
				c-3.359,0-5.624-2.385-5.624-5.565C75.577,91.778,77.977,89.378,81.201,89.378z"/>
			<path fill="#FFFFFF" d="M87.111,89.558h2.625v4.14h1.08l2.22-4.14h2.82l-2.896,5.13v0.03l3.061,5.565h-2.94l-2.265-4.35h-1.08
				v4.35h-2.625V89.558z"/>
			<path fill="#FFFFFF" d="M97.491,89.558h6.72v2.25h-4.095v1.95h3.27v2.25h-3.27v2.025h4.305v2.25h-6.93V89.558z"/>
			<path fill="#FFFFFF" d="M108.366,91.808h-3.255v-2.25h9.135v2.25h-3.255v8.475h-2.625V91.808z"/>
		</g>
		<g>
			<g>
				<path fill="#FFFFFF" d="M24.714,33.35l6.733,3.319c0.504,0.254,0.93,0.533,0.93,0.533l0.019-0.021c0,0-0.363-0.373-0.672-0.829
					l-4.263-6.145l0.939-1.076l5.739,8.458l-1.06,1.212l-5.954-2.935c-0.585-0.288-1.248-0.7-1.248-0.7l-0.019,0.021
					c0,0,0.497,0.602,0.861,1.143l3.705,5.507l-1.061,1.213l-9.103-4.609l0.939-1.076l6.614,3.456
					c0.483,0.255,0.91,0.554,0.91,0.554l0.019-0.021c0,0-0.333-0.385-0.652-0.85l-4.189-6.229L24.714,33.35z"/>
				<path fill="#FFFFFF" d="M32.84,25.649l4.66-3.347l0.702,0.978l-3.535,2.539l1.805,2.513l2.876-2.065l0.702,0.978l-2.877,2.065
					l1.854,2.581l3.729-2.678l0.702,0.978l-4.854,3.486L32.84,25.649z"/>
				<path fill="#FFFFFF" d="M50.955,23.978c0,0,1.344,0.657,2.731,0.169c0.872-0.306,1.44-1.055,1.13-1.94
					c-0.71-2.021-5.076,0.001-6.083-2.867c-0.51-1.453,0.342-3.043,2.099-3.661c1.731-0.607,2.973,0.011,2.973,0.011l-0.214,1.292
					c0,0-1.143-0.504-2.332-0.087c-0.99,0.348-1.473,1.215-1.213,1.955c0.677,1.929,5.016-0.172,6.077,2.854
					c0.506,1.44-0.187,3.02-2.036,3.669c-1.982,0.696-3.523-0.144-3.523-0.144L50.955,23.978z"/>
				<path fill="#FFFFFF" d="M58.992,13.491l1.373-0.19l0.876,6.325c0.208,1.498,1.3,2.237,2.798,2.03
					c1.512-0.21,2.376-1.22,2.164-2.746l-0.873-6.297l1.373-0.19l0.877,6.325c0.302,2.177-1.063,3.851-3.352,4.168
					c-2.289,0.317-4.059-0.922-4.36-3.1L58.992,13.491z"/>
				<path fill="#FFFFFF" d="M72.908,12.319l3.603,0.244c1.801,0.122,3.018,1.424,2.891,3.295s-1.511,3.04-3.312,2.917l-2.22-0.15
					l-0.247,3.644l-1.383-0.094L72.908,12.319z M75.947,17.56c1.188,0.081,1.964-0.61,2.044-1.797
					c0.08-1.187-0.599-1.934-1.771-2.013l-2.01-0.136l-0.259,3.812L75.947,17.56z"/>
				<path fill="#FFFFFF" d="M84.853,13.721l3.492,0.929c1.745,0.465,2.691,1.977,2.208,3.791c-0.482,1.814-2.064,2.697-3.811,2.232
					L84.59,20.1l-0.939,3.532l-1.34-0.356L84.853,13.721z M86.835,19.451c1.15,0.306,2.045-0.224,2.352-1.374
					c0.306-1.151-0.218-2.015-1.354-2.317l-1.949-0.519l-0.983,3.695L86.835,19.451z"/>
				<path fill="#FFFFFF" d="M100.519,19.297c2.53,1.32,3.475,4.29,2.161,6.808c-1.346,2.58-4.354,3.568-6.885,2.248
					c-2.53-1.32-3.455-4.358-2.109-6.938C94.999,18.896,97.987,17.978,100.519,19.297z M96.384,27.225
					c1.787,0.932,4.002,0.193,5.031-1.779c0.996-1.91,0.308-4.1-1.479-5.031c-1.786-0.932-3.988-0.25-4.984,1.661
					C93.923,24.047,94.598,26.293,96.384,27.225z"/>
				<path fill="#FFFFFF" d="M109.649,25.225l2.304,1.958c0.789,0.67,1.065,1.016,1.263,1.367c0.523,0.94,0.382,2.124-0.462,3.116
					c-0.815,0.96-2.037,1.317-3.085,0.886l-0.019,0.021c0,0,0.004,0.168-0.066,0.532l-0.883,4.282l-1.195-1.015l0.958-4.347
					l-1.61-1.369l-2.547,2.997l-1.057-0.897L109.649,25.225z M109.147,31.025c0.821,0.698,1.777,0.61,2.493-0.232
					c0.472-0.555,0.594-1.13,0.391-1.67c-0.112-0.279-0.303-0.551-0.89-1.05l-1.216-1.033l-2.293,2.698L109.147,31.025z"/>
				<path fill="#FFFFFF" d="M119.14,36.202l-2.112-2.651l0.942-0.751l5.089,6.388l-0.942,0.75l-2.112-2.651l-6.793,5.411
					l-0.863-1.084L119.14,36.202z"/>
			</g>
		</g>
	</g>
	<g>
		<path fill="#FFFFFF" d="M76.738,58.023c-0.76,0.136-1.014-0.331-1.014-0.721c0-0.488,0-2.106,0-4.114
			c0-1.404-0.468-2.3-1.014-2.768c3.334-0.37,6.843-1.638,6.843-7.389c0-1.638-0.585-2.983-1.54-4.016
			c0.156-0.39,0.663-1.911-0.156-3.977c-1.248-0.39-4.114,1.54-4.114,1.54C74.554,36.245,73.267,36.07,72,36.07
			c-1.267,0-2.554,0.175-3.743,0.507c0,0-2.866-1.93-4.133-1.54c-0.799,2.067-0.292,3.587-0.136,3.977
			c-0.955,1.033-1.54,2.379-1.54,4.016c0,5.732,3.49,7.019,6.824,7.389c-0.429,0.39-0.819,1.033-0.955,2.008
			c-0.858,0.39-3.041,1.053-4.348-1.248c-0.819-1.423-2.301-1.54-2.301-1.54c-1.462-0.02-0.098,0.916-0.098,0.916
			c0.975,0.448,1.657,2.184,1.657,2.184c0.877,2.671,5.05,1.774,5.05,1.774c0,1.248,0.02,2.437,0.02,2.788
			c0,0.39-0.273,0.858-1.033,0.721c-5.946-1.989-10.236-7.604-10.236-14.213c0-8.267,6.707-14.973,14.973-14.973
			s14.973,6.707,14.973,14.973C86.973,50.419,82.684,56.034,76.738,58.023z"/>
	</g>
	<g>
		<path fill="#FFFFFF" d="M72,107.006L72,107.006c-7.088,0-12.91,1.899-12.91,4.303c0,0.633,1.519,9.619,2.152,13.163
			c0.253,1.645,4.43,3.924,10.759,3.924l0,0c6.329,0,10.379-2.278,10.759-3.924c0.633-3.544,2.152-12.531,2.152-13.163
			C84.784,108.904,79.088,107.006,72,107.006L72,107.006z M72,125.485c-2.278,0-4.05-1.772-4.05-4.05s1.772-4.05,4.05-4.05
			s4.05,1.772,4.05,4.05C76.05,123.587,74.278,125.485,72,125.485L72,125.485z M72,112.575c-4.557,0-8.227-0.759-8.227-1.772
			s3.671-1.772,8.227-1.772s8.227,0.759,8.227,1.772S76.557,112.575,72,112.575L72,112.575z"/>
		<path fill="#FFFFFF" d="M81.341,127.89c-0.253,0-0.38,0.127-0.38,0.127s-3.164,2.531-8.86,2.531s-8.86-2.531-8.86-2.531
			s-0.253-0.127-0.38-0.127c-0.253,0-0.506,0.127-0.506,0.506v0.127c0.506,2.658,0.886,4.557,0.886,4.81
			c0.38,1.899,4.177,3.417,8.733,3.417l0,0c4.557,0,8.354-1.519,8.733-3.417c0-0.253,0.38-2.152,0.886-4.81v-0.127
			C81.721,128.143,81.595,127.89,81.341,127.89L81.341,127.89z"/>
		<circle fill="#FFFFFF" cx="72" cy="121.308" r="2.025"/>
	</g>
</g>
</svg>
