<?xml version="1.0" encoding="utf-8"?>
<!-- Generator: Adobe Illustrator 17.0.0, SVG Export Plug-In . SVG Version: 6.00 Build 0)  -->
<!DOCTYPE svg PUBLIC "-//W3C//DTD SVG 1.1//EN" "http://www.w3.org/Graphics/SVG/1.1/DTD/svg11.dtd">
<svg version="1.1" id="Layer_1" xmlns="http://www.w3.org/2000/svg" xmlns:xlink="http://www.w3.org/1999/xlink" x="0px" y="0px"
	 width="144px" height="144px" viewBox="0 0 144 144" enable-background="new 0 0 144 144" xml:space="preserve">
<g>
	<circle fill="#203143" cx="72" cy="72" r="72"/>
</g>
<g>
	<g>
		<g>
			<path fill="#FFFFFF" d="M25.214,33.35l6.733,3.319c0.504,0.254,0.93,0.533,0.93,0.533l0.019-0.021c0,0-0.363-0.373-0.672-0.829
				l-4.263-6.145l0.939-1.076l5.739,8.458l-1.06,1.212l-5.954-2.935c-0.585-0.288-1.248-0.7-1.248-0.7l-0.019,0.021
				c0,0,0.497,0.602,0.861,1.143l3.705,5.507l-1.061,1.213l-9.103-4.609l0.939-1.076l6.614,3.456c0.483,0.255,0.91,0.554,0.91,0.554
				l0.019-0.021c0,0-0.333-0.385-0.652-0.85l-4.189-6.229L25.214,33.35z"/>
			<path fill="#FFFFFF" d="M33.34,25.649L38,22.303l0.702,0.978l-3.535,2.539l1.805,2.513l2.876-2.065l0.702,0.978l-2.877,2.065
				l1.854,2.581l3.729-2.678l0.702,0.978l-4.854,3.486L33.34,25.649z"/>
			<path fill="#FFFFFF" d="M51.455,23.978c0,0,1.344,0.657,2.731,0.169c0.872-0.306,1.44-1.055,1.13-1.94
				c-0.71-2.021-5.076,0.001-6.083-2.867c-0.51-1.453,0.342-3.043,2.099-3.661c1.731-0.607,2.973,0.011,2.973,0.011l-0.214,1.292
				c0,0-1.143-0.504-2.332-0.087c-0.99,0.348-1.473,1.215-1.213,1.955c0.677,1.929,5.016-0.172,6.077,2.854
				c0.506,1.44-0.187,3.02-2.036,3.669c-1.982,0.696-3.523-0.144-3.523-0.144L51.455,23.978z"/>
			<path fill="#FFFFFF" d="M59.492,13.491l1.373-0.19l0.876,6.325c0.208,1.498,1.3,2.237,2.798,2.03
				c1.512-0.21,2.376-1.22,2.164-2.746l-0.873-6.297l1.373-0.19l0.877,6.325c0.302,2.177-1.063,3.851-3.352,4.168
				c-2.289,0.317-4.059-0.922-4.36-3.1L59.492,13.491z"/>
			<path fill="#FFFFFF" d="M73.408,12.319l3.603,0.244c1.801,0.122,3.018,1.424,2.891,3.295s-1.511,3.04-3.312,2.917l-2.22-0.15
				l-0.247,3.644l-1.383-0.094L73.408,12.319z M76.447,17.56c1.188,0.081,1.964-0.61,2.044-1.797
				c0.08-1.187-0.599-1.934-1.771-2.013l-2.01-0.136l-0.259,3.812L76.447,17.56z"/>
			<path fill="#FFFFFF" d="M85.353,13.721l3.492,0.929c1.745,0.465,2.691,1.977,2.208,3.791c-0.482,1.814-2.064,2.697-3.811,2.232
				L85.09,20.1l-0.939,3.532l-1.34-0.356L85.353,13.721z M87.335,19.451c1.15,0.306,2.045-0.224,2.352-1.374
				c0.306-1.151-0.218-2.015-1.354-2.317l-1.949-0.519L85.4,18.936L87.335,19.451z"/>
			<path fill="#FFFFFF" d="M101.019,19.297c2.53,1.32,3.475,4.29,2.161,6.808c-1.346,2.58-4.354,3.568-6.885,2.248
				c-2.53-1.32-3.455-4.358-2.109-6.938C95.499,18.896,98.487,17.978,101.019,19.297z M96.884,27.225
				c1.787,0.932,4.002,0.193,5.031-1.779c0.996-1.91,0.308-4.1-1.479-5.031c-1.786-0.932-3.988-0.25-4.984,1.661
				C94.423,24.047,95.098,26.293,96.884,27.225z"/>
			<path fill="#FFFFFF" d="M110.15,25.225l2.304,1.958c0.789,0.67,1.065,1.016,1.263,1.367c0.523,0.94,0.382,2.124-0.462,3.116
				c-0.815,0.96-2.037,1.317-3.085,0.886l-0.019,0.021c0,0,0.004,0.168-0.066,0.532l-0.883,4.282l-1.195-1.015l0.958-4.347
				l-1.61-1.369l-2.547,2.997l-1.057-0.897L110.15,25.225z M109.648,31.025c0.821,0.698,1.777,0.61,2.493-0.232
				c0.472-0.555,0.594-1.13,0.391-1.67c-0.112-0.279-0.303-0.551-0.89-1.05l-1.216-1.033l-2.293,2.698L109.648,31.025z"/>
			<path fill="#FFFFFF" d="M119.64,36.202l-2.112-2.651l0.942-0.751l5.089,6.388l-0.942,0.75l-2.112-2.651l-6.793,5.411
				l-0.863-1.084L119.64,36.202z"/>
		</g>
	</g>
</g>
<g>
	<g>
		<path fill="#FFFFFF" d="M41.934,112.606c3.295,0,4.951,1.71,4.951,1.71l-1.513,2.359c0,0-1.314-1.188-3.133-1.188
			c-2.7,0-3.799,1.729-3.799,3.637c0,2.449,1.692,3.907,3.691,3.907c1.512,0,2.61-0.937,2.61-0.937v-0.99h-1.818v-2.683h4.609v7.274
			h-2.629v-0.36c0-0.271,0.018-0.54,0.018-0.54h-0.035c0,0-1.243,1.116-3.386,1.116c-3.295,0-6.319-2.467-6.319-6.68
			C35.182,115.487,38.008,112.606,41.934,112.606z"/>
		<path fill="#FFFFFF" d="M50.806,112.822h3.15v12.874h-3.15V112.822z"/>
		<path fill="#FFFFFF" d="M60.346,115.523h-3.907v-2.701h10.965v2.701h-3.907v10.173h-3.15V115.523z"/>
		<path fill="#FFFFFF" d="M69.885,112.822h3.15v5.149h4.682v-5.149h3.151v12.874h-3.151v-5.042h-4.682v5.042h-3.15V112.822z"/>
		<path fill="#FFFFFF" d="M84.608,112.822h3.151v8.139c0,1.351,0.882,2.07,2.232,2.07s2.232-0.72,2.232-2.07v-8.139h3.151v8.139
			c0,2.898-2.125,4.951-5.365,4.951c-3.277,0-5.402-2.053-5.402-4.951V112.822z"/>
		<path fill="#FFFFFF" d="M99.116,112.822h4.735c2.574,0,4.375,1.152,4.375,3.367c0,1.08-0.522,2.179-1.494,2.736v0.036
			c1.477,0.45,2.017,1.765,2.017,2.899c0,2.809-2.341,3.835-4.897,3.835h-4.735V112.822z M103.888,117.81
			c0.792,0,1.134-0.576,1.134-1.188c0-0.594-0.342-1.098-1.188-1.098h-1.566v2.286H103.888z M104.157,122.995
			c0.919,0,1.368-0.63,1.368-1.351c0-0.72-0.432-1.314-1.35-1.314h-1.909v2.665H104.157z"/>
	</g>
</g>
<g>
	<path fill="#FFFFFF" d="M82.495,102.195c-1.684,0.302-2.246-0.734-2.246-1.598c0-1.08,0-4.665,0-9.114
		c0-3.11-1.037-5.096-2.246-6.133c7.386-0.82,15.16-3.628,15.16-16.37c0-3.628-1.296-6.608-3.412-8.898
		c0.346-0.864,1.469-4.233-0.346-8.811c-2.764-0.864-9.113,3.412-9.113,3.412c-2.635-0.734-5.486-1.123-8.293-1.123
		c-2.808,0-5.658,0.389-8.293,1.123c0,0-6.349-4.276-9.157-3.412c-1.771,4.578-0.648,7.947-0.302,8.811
		c-2.116,2.289-3.412,5.27-3.412,8.898c0,12.698,7.731,15.549,15.117,16.37c-0.95,0.864-1.814,2.29-2.116,4.449
		c-1.901,0.864-6.738,2.332-9.632-2.764c-1.814-3.153-5.097-3.412-5.097-3.412c-3.239-0.043-0.216,2.03-0.216,2.03
		c2.16,0.994,3.671,4.838,3.671,4.838c1.944,5.917,11.187,3.931,11.187,3.931c0,2.764,0.043,5.399,0.043,6.177
		c0,0.864-0.605,1.9-2.289,1.598C48.331,97.789,38.829,85.35,38.829,70.708c0-18.314,14.858-33.171,33.171-33.171
		s33.171,14.858,33.171,33.171C105.171,85.35,95.669,97.789,82.495,102.195z"/>
</g>
</svg>
